<?xml version="1.0" encoding="utf-8"?>
<!-- Generator: Adobe Illustrator 22.0.1, SVG Export Plug-In . SVG Version: 6.00 Build 0)  -->
<svg version="1.1" id="Laag_1" xmlns="http://www.w3.org/2000/svg" xmlns:xlink="http://www.w3.org/1999/xlink" x="0px" y="0px"
	 viewBox="0 0 535 738" style="enable-background:new 0 0 535 738;" xml:space="preserve">
<style type="text/css">
	.st0{fill:#333333;}
	.st1{fill:#666666;}
	.st2{fill:#901337;}
	.st3{fill:#070707;}
	.st4{fill:#FFFFFF;}
	.st5{opacity:0.57;}
	.st6{fill:none;}
	.st7{fill:#FFFAFC;}
	.st8{fill:#470C27;}
</style>
<g id="Laag_2_1_">
</g>
<g id="Laag_4">
</g>
<path class="st0" d="M508.9,603l-45.9-6V150l45.9-6c1.8,0,3.1,1.6,3.1,3.6v451.8C512,601.4,510.6,603,508.9,603z"/>
<path class="st1" d="M477.2,621H470V126h6.7c2.5,0,4.6,3.1,4.6,6.9v481.9C481.3,618.2,479.5,621,477.2,621z"/>
<path class="st2" d="M466.2,738H3.8c-2.1,0-3.8-1.7-3.8-3.8V3.8C0,1.7,1.7,0,3.8,0h462.3c2.1,0,3.8,1.7,3.8,3.8v730.3
	C470,736.3,468.3,738,466.2,738z"/>
<rect x="34.7" y="204.7" class="st3" width="400.6" height="443.8"/>
<g>
	<rect x="20" y="10.3" class="st2" width="429.1" height="196.9"/>
	<g>
		<polygon class="st3" points="187.5,190.1 140.4,210 93.4,190.1 44.4,210.8 48.3,214.1 93.4,195.1 140.4,215 187.5,195.1 
			234.5,215 281.6,195.1 328.6,215 375.7,195.1 420.8,214.1 424.7,210.8 375.7,190.1 328.6,210 281.6,190.1 234.5,210 		"/>
		<polygon class="st3" points="187.5,177.2 140.4,197.1 93.4,177.2 20,208.2 44.1,228.8 93.4,207.9 140.4,227.9 187.5,207.9 
			234.5,227.9 281.6,207.9 328.6,227.9 375.7,207.9 425.1,228.8 449.1,208.2 375.7,177.2 328.6,197.1 281.6,177.2 234.5,197.1 		"/>
	</g>
</g>
<g>
	<circle class="st4" cx="117" cy="98" r="39"/>
	<circle class="st2" cx="117" cy="98" r="6"/>
</g>
<g class="st5">
	<rect x="31" y="717" class="st6" width="154" height="17"/>
	<path d="M36.7,721.7h-2.2v-0.9c0-0.3,0-0.5-0.1-0.6s-0.1-0.2-0.3-0.2s-0.2,0-0.3,0.1s-0.1,0.3-0.1,0.7v3.7c0,0.3,0,0.5,0.1,0.6
		s0.2,0.2,0.3,0.2c0.2,0,0.3-0.1,0.3-0.2s0.1-0.4,0.1-0.8v-0.9h2.1c0,0.6,0,1.1-0.1,1.4s-0.2,0.6-0.4,1s-0.5,0.6-0.9,0.7
		s-0.8,0.2-1.3,0.2c-0.7,0-1.2-0.1-1.6-0.3s-0.7-0.5-0.8-1s-0.2-1-0.2-1.8v-2.2c0-0.7,0.1-1.2,0.2-1.5s0.4-0.6,0.8-0.9
		c0.4-0.3,1-0.4,1.6-0.4s1.1,0.1,1.6,0.4s0.7,0.6,0.9,1S36.7,720.9,36.7,721.7z"/>
	<path d="M46.6,728H45v-1.5h-4v1.5h-1.6v-3.4H40c0.3-0.5,0.5-1.2,0.7-2.2s0.3-2.1,0.3-3.5v-0.3h5.1v5.9h0.5V728z M43.8,724.6v-4.2
		h-0.6v0.1c0,1.4-0.2,2.8-0.7,4.1L43.8,724.6L43.8,724.6z"/>
	<path d="M55,722.7h-3.1v1.7c0,0.4,0,0.6,0.1,0.7s0.1,0.2,0.3,0.2s0.3-0.1,0.4-0.2s0.1-0.4,0.1-0.8v-1H55v0.6c0,0.5,0,0.8-0.1,1.1
		s-0.2,0.5-0.4,0.8s-0.5,0.5-0.8,0.7s-0.8,0.2-1.3,0.2s-0.9-0.1-1.3-0.2s-0.7-0.3-0.9-0.6s-0.4-0.5-0.4-0.8s-0.1-0.7-0.1-1.3v-2.3
		c0-0.7,0.1-1.2,0.3-1.6s0.5-0.7,0.9-0.9s0.9-0.3,1.4-0.3c0.7,0,1.2,0.1,1.6,0.4s0.7,0.6,0.9,1s0.3,1,0.3,1.8v0.8L55,722.7L55,722.7
		z M52.6,721.5v-0.6c0-0.4,0-0.7-0.1-0.8s-0.1-0.2-0.3-0.2s-0.3,0-0.3,0.1s-0.1,0.4-0.1,0.8v0.6h0.8
		C52.6,721.4,52.6,721.5,52.6,721.5z"/>
	<path d="M61.8,726.5v-6.1H61v3.9c0,0.7-0.1,1.2-0.2,1.5s-0.4,0.5-0.8,0.6s-0.9,0.1-1.7,0.1h-0.4v-1.3c0.3,0,0.5,0,0.6-0.1
		s0.2-0.3,0.2-0.8v-5.6h5.5v7.8L61.8,726.5L61.8,726.5z"/>
	<path d="M69.4,721.7h-2.2v-0.5c0-0.6,0.1-1.1,0.2-1.4s0.4-0.6,0.8-0.9s1-0.4,1.6-0.4c0.8,0,1.4,0.1,1.8,0.4s0.7,0.6,0.7,1
		s0.1,1.3,0.1,2.5v3.9h-2.3v-0.7c-0.1,0.3-0.3,0.5-0.6,0.6c-0.2,0.1-0.5,0.2-0.8,0.2c-0.4,0-0.8-0.1-1.1-0.3s-0.5-0.7-0.5-1.5V724
		c0-0.6,0.1-1,0.3-1.2s0.6-0.5,1.4-0.7c0.8-0.3,1.2-0.5,1.2-0.6s0.1-0.3,0.1-0.6c0-0.4,0-0.7-0.1-0.8s-0.2-0.2-0.3-0.2
		c-0.2,0-0.3,0.1-0.3,0.2s-0.1,0.4-0.1,0.8v0.8H69.4z M70.2,722.8c-0.4,0.3-0.6,0.5-0.7,0.7s-0.1,0.5-0.1,0.8c0,0.4,0,0.7,0.1,0.8
		s0.2,0.2,0.3,0.2c0.1,0,0.2,0,0.3-0.1s0.1-0.3,0.1-0.7C70.2,724.5,70.2,722.8,70.2,722.8z"/>
	<path d="M81.3,726.5h-2.4v-2.9h-0.8v2.9h-2.3v-7.8h2.3v2.8h0.8v-2.8h2.4V726.5z"/>
	<path d="M89.9,721.4v1.9c0,0.7,0,1.2-0.1,1.5s-0.2,0.6-0.5,0.9s-0.5,0.5-0.9,0.6s-0.8,0.2-1.2,0.2c-0.5,0-1-0.1-1.3-0.2
		s-0.6-0.3-0.8-0.5s-0.3-0.5-0.4-0.8s-0.1-0.8-0.1-1.5v-2c0-0.7,0.1-1.3,0.2-1.7s0.4-0.7,0.8-1s0.9-0.4,1.6-0.4c0.5,0,1,0.1,1.4,0.2
		s0.7,0.4,0.9,0.6s0.3,0.5,0.4,0.8S89.9,720.9,89.9,721.4z M87.5,720.9c0-0.4,0-0.6-0.1-0.8s-0.1-0.2-0.3-0.2s-0.2,0.1-0.3,0.2
		s-0.1,0.4-0.1,0.8v3.5c0,0.4,0,0.6,0.1,0.7s0.1,0.2,0.3,0.2c0.1,0,0.2-0.1,0.3-0.2s0.1-0.3,0.1-0.7V720.9z"/>
	<path d="M103.1,724.4c0,0.8-0.2,1.3-0.5,1.6s-1.1,0.4-2.3,0.4h-2.7v-7.8h2.8c1,0,1.6,0.2,2,0.5s0.5,0.9,0.5,1.6
		c0,0.9-0.5,1.4-1.4,1.5c0.5,0.1,0.9,0.3,1.1,0.6s0.4,0.7,0.4,1.1L103.1,724.4L103.1,724.4z M99.9,721.6c0.4,0,0.6,0,0.7-0.1
		s0.1-0.3,0.1-0.5s0-0.4-0.1-0.5s-0.3-0.1-0.6-0.1L99.9,721.6L99.9,721.6z M100.7,724.1v-0.3c0-0.3,0-0.5-0.1-0.6s-0.3-0.1-0.6-0.1
		v1.8c0.3,0,0.5,0,0.6-0.1S100.7,724.4,100.7,724.1z"/>
	<path d="M113.1,718.7v0.7c0.2-0.3,0.4-0.5,0.7-0.6c0.3-0.1,0.5-0.2,0.8-0.2c0.4,0,0.7,0.1,1,0.3s0.4,0.4,0.5,0.7s0.1,0.7,0.1,1.3
		v3.3c0,0.7,0,1.2-0.1,1.5s-0.3,0.5-0.5,0.7s-0.6,0.3-0.9,0.3s-0.6-0.1-0.8-0.2c-0.3-0.1-0.5-0.3-0.7-0.6v1.8h-2.4v-8.9L113.1,718.7
		L113.1,718.7z M113.8,721c0-0.5,0-0.8-0.1-0.9s-0.1-0.2-0.3-0.2c-0.2,0-0.3,0.1-0.3,0.2s-0.1,0.4-0.1,0.8v3.2c0,0.5,0,0.8,0.1,0.9
		s0.1,0.2,0.3,0.2c0.2,0,0.2-0.1,0.3-0.2s0.1-0.4,0.1-0.8V721z"/>
	<path d="M124.7,721.4v1.9c0,0.7,0,1.2-0.1,1.5s-0.2,0.6-0.5,0.9s-0.5,0.5-0.9,0.6s-0.8,0.2-1.2,0.2c-0.5,0-1-0.1-1.3-0.2
		s-0.6-0.3-0.8-0.5s-0.3-0.5-0.4-0.8s-0.1-0.8-0.1-1.5v-2c0-0.7,0.1-1.3,0.2-1.7s0.4-0.7,0.8-1s0.9-0.4,1.6-0.4c0.5,0,1,0.1,1.4,0.2
		s0.7,0.4,0.9,0.6s0.3,0.5,0.4,0.8S124.7,720.9,124.7,721.4z M122.3,720.9c0-0.4,0-0.6-0.1-0.8s-0.1-0.2-0.3-0.2s-0.2,0.1-0.3,0.2
		s-0.1,0.4-0.1,0.8v3.5c0,0.4,0,0.6,0.1,0.7s0.1,0.2,0.3,0.2c0.1,0,0.2-0.1,0.3-0.2s0.1-0.3,0.1-0.7V720.9z"/>
	<path d="M133.1,721.7h-2.2v-0.9c0-0.3,0-0.5-0.1-0.6s-0.1-0.2-0.3-0.2s-0.2,0-0.3,0.1s-0.1,0.3-0.1,0.7v3.7c0,0.3,0,0.5,0.1,0.6
		s0.2,0.2,0.3,0.2c0.2,0,0.3-0.1,0.3-0.2s0.1-0.4,0.1-0.8v-0.9h2.1c0,0.6,0,1.1-0.1,1.4s-0.2,0.6-0.4,1s-0.5,0.6-0.9,0.7
		s-0.8,0.2-1.3,0.2c-0.7,0-1.2-0.1-1.6-0.3s-0.7-0.5-0.8-1s-0.2-1-0.2-1.8v-2.2c0-0.7,0.1-1.2,0.2-1.5c0.1-0.3,0.4-0.6,0.8-0.9
		s1-0.4,1.6-0.4s1.1,0.1,1.6,0.4s0.7,0.6,0.9,1S133.1,720.9,133.1,721.7z"/>
	<path d="M141.4,721.7h-2.2v-0.9c0-0.3,0-0.5-0.1-0.6s-0.1-0.2-0.3-0.2s-0.2,0-0.3,0.1s-0.1,0.3-0.1,0.7v3.7c0,0.3,0,0.5,0.1,0.6
		s0.2,0.2,0.3,0.2c0.2,0,0.3-0.1,0.3-0.2s0.1-0.4,0.1-0.8v-0.9h2.1c0,0.6,0,1.1-0.1,1.4s-0.2,0.6-0.4,1s-0.5,0.6-0.9,0.7
		s-0.8,0.2-1.3,0.2c-0.7,0-1.2-0.1-1.6-0.3s-0.7-0.5-0.8-1s-0.2-1-0.2-1.8v-2.2c0-0.7,0.1-1.2,0.2-1.5s0.4-0.6,0.8-0.9
		s1-0.4,1.6-0.4s1.1,0.1,1.6,0.4s0.7,0.6,0.9,1S141.4,720.9,141.4,721.7z"/>
	<path d="M150.4,726.5h-2.1v-4.2l-1.6,4.2h-2.2v-7.8h2.1v4.2l1.6-4.2h2.2V726.5z"/>
	<path d="M159.5,726.5h-2.1v-4.2l-1.6,4.2h-2.2v-7.8h2.1v4.2l1.6-4.2h2.2V726.5z"/>
</g>
<g class="st5">
	<rect x="331" y="717" class="st6" width="110" height="17"/>
	<path d="M333.8,718.7v0.7c0.2-0.3,0.4-0.5,0.7-0.7c0.3-0.1,0.5-0.2,0.9-0.2c0.6,0,1.1,0.3,1.5,0.9c0.2-0.3,0.4-0.5,0.7-0.7
		c0.3-0.1,0.5-0.2,0.8-0.2c0.4,0,0.7,0.1,1,0.3s0.4,0.4,0.5,0.7s0.1,0.7,0.1,1.4v5.5h-2.3v-5.1c0-0.7,0-1.1-0.1-1.2
		s-0.1-0.2-0.3-0.2c-0.2,0-0.3,0.1-0.3,0.2s-0.1,0.6-0.1,1.2v5.1h-2.3v-4.9c0-0.8,0-1.2-0.1-1.4s-0.1-0.2-0.3-0.2
		c-0.1,0-0.2,0-0.3,0.1s-0.1,0.2-0.1,0.3s0,0.4,0,0.7v5.4h-2.3v-7.8h2.3L333.8,718.7L333.8,718.7z"/>
	<path d="M345.2,721.7H343v-0.5c0-0.6,0.1-1.1,0.2-1.4s0.4-0.6,0.8-0.9s1-0.4,1.6-0.4c0.8,0,1.4,0.1,1.8,0.4s0.7,0.6,0.7,1
		s0.1,1.3,0.1,2.5v3.9H346v-0.7c-0.1,0.3-0.3,0.5-0.6,0.6c-0.2,0.1-0.5,0.2-0.8,0.2c-0.4,0-0.8-0.1-1.1-0.3s-0.5-0.7-0.5-1.5V724
		c0-0.6,0.1-1,0.3-1.2s0.6-0.5,1.4-0.7c0.8-0.3,1.2-0.5,1.2-0.6s0.1-0.3,0.1-0.6c0-0.4,0-0.7-0.1-0.8s-0.2-0.2-0.3-0.2
		c-0.2,0-0.3,0.1-0.3,0.2s-0.1,0.4-0.1,0.8V721.7z M345.9,722.8c-0.4,0.3-0.6,0.5-0.7,0.7s-0.1,0.5-0.1,0.8c0,0.4,0,0.7,0.1,0.8
		s0.2,0.2,0.3,0.2c0.1,0,0.2,0,0.3-0.1s0.1-0.3,0.1-0.7L345.9,722.8L345.9,722.8z"/>
	<path d="M356.9,717v9.5h-2.4v-0.6c-0.2,0.2-0.5,0.4-0.7,0.5c-0.3,0.1-0.5,0.2-0.8,0.2c-0.4,0-0.7-0.1-1-0.3s-0.4-0.4-0.5-0.7
		s-0.1-0.7-0.1-1.2v-3.6c0-0.6,0-1,0.1-1.3s0.3-0.5,0.5-0.7s0.6-0.3,1-0.3c0.3,0,0.6,0.1,0.8,0.2c0.2,0.1,0.5,0.3,0.7,0.5V717H356.9
		z M354.5,720.7c0-0.3,0-0.5-0.1-0.6s-0.1-0.1-0.3-0.1c-0.1,0-0.2,0-0.3,0.1s-0.1,0.3-0.1,0.6v3.8c0,0.3,0,0.5,0.1,0.6
		s0.1,0.1,0.3,0.1c0.2,0,0.3-0.1,0.3-0.2s0.1-0.4,0.1-0.8V720.7z"/>
	<path d="M365.5,722.7h-3.1v1.7c0,0.4,0,0.6,0.1,0.7s0.1,0.2,0.3,0.2c0.2,0,0.3-0.1,0.4-0.2s0.1-0.4,0.1-0.8v-1h2.2v0.6
		c0,0.5,0,0.8-0.1,1.1s-0.2,0.5-0.4,0.8s-0.5,0.5-0.8,0.7s-0.8,0.2-1.3,0.2s-0.9-0.1-1.3-0.2s-0.7-0.3-0.9-0.6s-0.4-0.5-0.4-0.8
		s-0.1-0.7-0.1-1.3v-2.3c0-0.7,0.1-1.2,0.3-1.6s0.5-0.7,0.9-0.9s0.9-0.3,1.4-0.3c0.7,0,1.2,0.1,1.6,0.4s0.7,0.6,0.9,1s0.3,1,0.3,1.8
		v0.8L365.5,722.7L365.5,722.7z M363.1,721.5v-0.6c0-0.4,0-0.7-0.1-0.8s-0.1-0.2-0.3-0.2c-0.2,0-0.3,0-0.3,0.1s-0.1,0.4-0.1,0.8v0.6
		h0.8V721.5z"/>
	<path d="M375.6,717v1.2h-2.4V717H375.6z M375.6,718.7v7.8h-2.4v-7.8H375.6z"/>
	<path d="M381.3,718.7v0.7c0.2-0.3,0.4-0.5,0.6-0.6s0.5-0.2,0.9-0.2s0.7,0.1,1,0.3s0.4,0.4,0.5,0.7s0.1,0.8,0.1,1.5v5.4H382v-5.4
		c0-0.5,0-0.9-0.1-1s-0.1-0.2-0.3-0.2c-0.2,0-0.3,0.1-0.3,0.2s-0.1,0.5-0.1,1.1v5.3h-2.4v-7.8H381.3z"/>
	<path d="M394.5,718.7l-0.1,1c0.3-0.7,0.8-1.1,1.5-1.2v2.7c-0.4,0-0.8,0.1-1,0.2s-0.3,0.3-0.4,0.5s-0.1,0.7-0.1,1.4v3.1H392v-7.8
		L394.5,718.7L394.5,718.7z"/>
	<path d="M404.2,718.7v7.8h-2.4v-0.6c-0.2,0.3-0.4,0.5-0.6,0.6s-0.5,0.2-0.8,0.2c-0.4,0-0.7-0.1-0.9-0.2s-0.4-0.3-0.5-0.5
		s-0.2-0.4-0.2-0.6s0-0.7,0-1.3v-5.2h2.4v5.3c0,0.6,0,1,0.1,1.1s0.1,0.2,0.3,0.2c0.2,0,0.3-0.1,0.3-0.2s0-0.5,0-1.1V719h2.3
		L404.2,718.7L404.2,718.7z"/>
	<path d="M412.3,721.2h-2.1v-0.4c0-0.4,0-0.6-0.1-0.7s-0.1-0.1-0.3-0.1c-0.1,0-0.2,0-0.3,0.1s-0.1,0.2-0.1,0.4s0,0.4,0,0.5
		s0.1,0.2,0.3,0.4s0.5,0.3,1,0.6c0.7,0.3,1.1,0.7,1.4,0.9s0.3,0.7,0.3,1.3s-0.1,1.1-0.2,1.4s-0.4,0.6-0.8,0.7s-0.8,0.3-1.4,0.3
		s-1.1-0.1-1.5-0.3s-0.7-0.4-0.9-0.8s-0.2-0.8-0.2-1.5v-0.4h2.1v0.5c0,0.4,0,0.7,0.1,0.8s0.2,0.2,0.3,0.2c0.2,0,0.3,0,0.4-0.1
		s0.1-0.3,0.1-0.5c0-0.4,0-0.6-0.1-0.7c-0.1-0.1-0.5-0.4-1.4-0.8c-0.7-0.4-1.1-0.7-1.3-1.1s-0.2-0.7-0.2-1.1c0-0.6,0.1-1.1,0.2-1.4
		s0.4-0.5,0.8-0.7s0.8-0.2,1.4-0.2c0.5,0,1,0.1,1.3,0.2s0.6,0.3,0.8,0.5s0.3,0.4,0.4,0.6s0.1,0.5,0.1,0.9L412.3,721.2L412.3,721.2z"
		/>
	<path d="M420.3,721.2h-2.1v-0.4c0-0.4,0-0.6-0.1-0.7s-0.1-0.1-0.3-0.1c-0.1,0-0.2,0-0.3,0.1s-0.1,0.2-0.1,0.4s0,0.4,0,0.5
		s0.1,0.2,0.3,0.4s0.5,0.3,1,0.6c0.7,0.3,1.1,0.7,1.4,0.9s0.3,0.7,0.3,1.3s-0.1,1.1-0.2,1.4s-0.4,0.6-0.8,0.7s-0.8,0.3-1.4,0.3
		s-1.1-0.1-1.5-0.3s-0.7-0.4-0.9-0.8s-0.2-0.8-0.2-1.5v-0.4h2.1v0.5c0,0.4,0,0.7,0.1,0.8s0.2,0.2,0.3,0.2c0.2,0,0.3,0,0.4-0.1
		s0.1-0.3,0.1-0.5c0-0.4,0-0.6-0.1-0.7c-0.1-0.1-0.5-0.4-1.4-0.8c-0.7-0.4-1.1-0.7-1.3-1.1s-0.2-0.7-0.2-1.1c0-0.6,0.1-1.1,0.2-1.4
		s0.4-0.5,0.8-0.7s0.8-0.2,1.4-0.2c0.5,0,1,0.1,1.3,0.2s0.6,0.3,0.8,0.5s0.3,0.4,0.4,0.6s0.1,0.5,0.1,0.9L420.3,721.2L420.3,721.2z"
		/>
	<path d="M426,717v1.2h-2.4V717H426z M426,718.7v7.8h-2.4v-7.8H426z"/>
	<path d="M431.3,721.7h-2.2v-0.5c0-0.6,0.1-1.1,0.2-1.4s0.4-0.6,0.8-0.9s1-0.4,1.6-0.4c0.8,0,1.4,0.1,1.8,0.4s0.7,0.6,0.7,1
		s0.1,1.3,0.1,2.5v3.9H432v-0.7c-0.1,0.3-0.3,0.5-0.6,0.6c-0.2,0.1-0.5,0.2-0.8,0.2c-0.4,0-0.8-0.1-1.1-0.3s-0.5-0.7-0.5-1.5V724
		c0-0.6,0.1-1,0.3-1.2s0.6-0.5,1.4-0.7c0.8-0.3,1.2-0.5,1.2-0.6s0.1-0.3,0.1-0.6c0-0.4,0-0.7-0.1-0.8s-0.2-0.2-0.3-0.2
		c-0.2,0-0.3,0.1-0.3,0.2s-0.1,0.4-0.1,0.8L431.3,721.7L431.3,721.7z M432.1,722.8c-0.4,0.3-0.6,0.5-0.7,0.7s-0.1,0.5-0.1,0.8
		c0,0.4,0,0.7,0.1,0.8s0.2,0.2,0.3,0.2c0.1,0,0.2,0,0.3-0.1s0.1-0.3,0.1-0.7L432.1,722.8L432.1,722.8z"/>
</g>
<g>
	<circle class="st7" cx="349" cy="86" r="75.7"/>
	<g>
		<circle class="st2" cx="349" cy="86" r="11.6"/>
		<circle class="st7" cx="348.8" cy="85.9" r="5.7"/>
	</g>
</g>
<g id="Isolatiemodus_1_">
</g>
<g>
	<rect x="20" y="643.3" class="st2" width="429.1" height="88.3"/>
	<g>
		<polygon class="st3" points="187.5,659.8 140.4,639.9 93.4,659.8 44.4,639.1 48.3,635.7 93.4,654.8 140.4,634.9 187.5,654.8 
			234.5,634.9 281.6,654.8 328.6,634.9 375.7,654.8 420.8,635.7 424.7,639.1 375.7,659.8 328.6,639.9 281.6,659.8 234.5,639.9 		"/>
		<polygon class="st3" points="187.5,672.7 140.4,652.8 93.4,672.7 20,641.6 44.1,621 93.4,641.9 140.4,622 187.5,641.9 234.5,622 
			281.6,641.9 328.6,622 375.7,641.9 425.1,621 449.1,641.7 375.7,672.7 328.6,652.8 281.6,672.7 234.5,652.8 		"/>
	</g>
</g>
<rect x="38.6" y="127.3" transform="matrix(0.9684 0.2495 -0.2495 0.9684 39.0228 -19.8001)" class="st2" width="118" height="33.4"/>
<g id="Isolatiemodus_2_">
	<rect x="6.2" y="672.7" class="st2" width="456.8" height="58.8"/>
</g>
<g>
	<rect x="34.7" y="713.3" class="st6" width="389" height="45.5"/>
	<path class="st8" d="M34.8,713.3h1.5l2.6,2.6l2.6-2.6h1.5v10.3h-2.4v-5.5l-1.5,1.5h-0.6l-1.5-1.5v5.5h-2.4V713.3z"/>
	<path class="st8" d="M45.9,713.3h8.3v10.3h-2.4v-2h-3.6v2h-2.4V713.3z M48.3,715.6v3.6h3.6v-3.6H48.3z"/>
	<path class="st8" d="M57,713.3h6.4l1.9,1.9v6.5l-1.9,1.9H57V713.3z M59.4,715.6v5.6H63v-5.6H59.4z"/>
	<path class="st8" d="M68.2,713.3h8.3v2.4h-6v1.6h4v2.4h-3.9l0,1.6h5.9v2.4h-8.3V713.3z"/>
	<path class="st8" d="M83.4,713.3h2.4v10.3h-2.4V713.3z"/>
	<path class="st8" d="M88.7,713.3H91v1l3.6,3.6v-4.7H97v10.3h-2.4v-2L91,718v5.6h-2.4V713.3z"/>
	<path class="st8" d="M103.8,713.3h8.3v6.3h-2.5l2.5,2.6v1.4h-2.4l-3.6-3.6v3.6h-2.4V713.3z M106.2,715.6v1.6h3.6v-1.6H106.2z"/>
	<path class="st8" d="M114.9,713.3h2.4l0,8h3.6v-8h2.4v10.3h-8.3V713.3z"/>
	<path class="st8" d="M126,713.3h8.3l0,2.4h-6v1.6h6v6.3H126v-2.4l6,0v-1.6h-6V713.3z"/>
	<path class="st8" d="M137.1,713.3h8.3l0,2.4h-6v1.6h6v6.3h-8.3v-2.4l6,0v-1.6h-6V713.3z"/>
	<path class="st8" d="M148.2,713.3h2.4v10.3h-2.4V713.3z"/>
	<path class="st8" d="M153.5,713.3h8.3v10.3h-2.4v-2h-3.6v2h-2.4V713.3z M155.9,715.6v3.6h3.6v-3.6H155.9z"/>
</g>
</svg>
