<?xml version="1.0" encoding="utf-8"?>
<!-- Generator: Adobe Illustrator 22.0.1, SVG Export Plug-In . SVG Version: 6.00 Build 0)  -->
<svg version="1.1" id="Laag_1" xmlns="http://www.w3.org/2000/svg" xmlns:xlink="http://www.w3.org/1999/xlink" x="0px" y="0px"
	 viewBox="0 0 535 738" style="enable-background:new 0 0 535 738;" xml:space="preserve">
<style type="text/css">
	.st0{fill:#333333;}
	.st1{fill:#666666;}
	.st2{fill:#901337;}
	.st3{opacity:0.5;}
	.st4{fill:#FFFFFF;}
	.st5{opacity:0.87;}
	.st6{fill:#D3D16E;stroke:#AFAB5D;stroke-width:5;stroke-miterlimit:10;}
	.st7{opacity:0.57;}
	.st8{fill:none;}
	.st9{fill:#FFFAFC;}
	.st10{fill:#0D9D52;stroke:#0C773C;stroke-width:5;stroke-miterlimit:10;}
	.st11{opacity:0.48;}
	.st12{fill:#0C351C;}
	.st13{opacity:0.29;}
	.st14{opacity:0.31;}
</style>
<g id="Laag_1_1_">
	<path class="st0" d="M531.4,603l-52.4-6V150l52.4-6c2,0,3.6,1.6,3.6,3.6v451.8C535,601.4,533.4,603,531.4,603z"/>
	<path class="st1" d="M480.8,621H470V126h10.1c3.8,0,6.9,3.1,6.9,6.9v481.9C487,618.2,484.2,621,480.8,621z"/>
	<path class="st2" d="M451,738H19c-10.5,0-19-8.5-19-19V19C0,8.5,8.5,0,19,0h432c10.5,0,19,8.5,19,19v700
		C470,729.5,461.5,738,451,738z"/>
	<g>
		<g id="LOGO" class="st3">
			<polygon class="st4" points="119.2,494.2 96.2,467.4 125.9,442.9 149,469.6 			"/>
			<polygon class="st4" points="226.3,335.8 204,312 230.8,289 253.1,312.8 			"/>
			<path class="st4" d="M186,221.3c3.2,7.1,5.9,14.5,8.7,21.8c0.4,1.1,1.1,1.3,2.1,1.3c4.6,0,9.2,0,13.7,0c2.3,0,4.6,0.2,6.9,0.3
				c0.6,0,1.4,0,1.6,0.6c0.2,0.7-0.5,1-1,1.4c-4.2,3.7-8.8,6.9-13.2,10.3c-4.3,3.4-4.3,3.3-2.9,8.6c1.4,5.1,3.5,10,4.7,15.2
				c0.1,0.5,0.2,0.9,0.4,1.4c0.2,0.6,0.5,1.5-0.1,1.9c-0.5,0.4-1.1-0.3-1.6-0.6c-5.7-3.6-11.4-7-17.1-10.7c-1.9-1.3-3.5-1.2-5.4,0
				c-5.5,3.6-11,7.1-16.5,10.6c-0.9,0.6-2,1.9-3,1.2c-0.7-0.5,0.2-2,0.5-3c1.7-6.3,3.6-12.6,5-18.9c0.3-1.5-0.1-2.4-1.1-3.4
				c-4.8-4.4-9.9-8.3-14.9-12.4c-0.6-0.5-1.7-0.9-1.4-1.6c0.3-0.8,1.4-0.4,2.2-0.4c6.7-0.2,13.4-0.3,20.1-0.4c1.5,0,2.3-0.6,2.8-2
				c2.5-6.6,5.2-13.2,7.8-19.8c0.2-0.5,0.4-0.9,0.7-1.3C185.5,221.3,185.8,221.3,186,221.3z"/>
			<g>
				<path class="st4" d="M373.2,446.4c-9.2-9.6-17.9-19.7-26.8-29.6c-1.5-1.7-1.6-3-0.7-4.8c2.4-5,5.3-9.7,7.5-14.9
					c4.5-10.4,6.9-21.4,7.4-32.7c0.6-14.3-1.7-28.1-6.6-41.5c-5.8-15.6-14.4-29.5-26.1-41.4c-12.2-12.4-26.7-21.5-43-27.5
					c-0.9-0.3-2.2-1.2-2.7-0.4c-0.5,1,0.9,1.6,1.7,2.3c8,7,15.6,14.4,22.3,22.7c4.9,6.1,9.3,12.6,13,19.5
					c4.7,8.7,8.2,17.8,10.4,27.5c1.4,6.3,2.3,12.6,2.2,19c0,9.7-1.9,19-6.2,27.8c-1.9,3.8-3.7,7.7-6.3,11.1
					c-0.4,0.6-0.8,1.3-1.7,0.4c-4.2-4.5-8.4-8.9-12.5-13.3c-8.9-9.6-17.9-19.2-26.8-28.9c-4.2-4.6-8.5-9.1-12.2-14.1
					c-0.1-0.2-0.2-0.3-0.3-0.5L239,350.2c12,12.3,23.9,24.7,35.4,37.4c4.8,5.3,9.5,10.6,14.4,15.9c0.9,1,0.9,1.6-0.5,2.1
					c-1.4,0.4-2.8,1-4.2,1.4c-9.7,2.7-19.4,2.6-29.2,1c-16-2.7-30.3-9.2-42.3-20.3c-2.6-2.4-5.4-4.6-8.1-6.8
					c-2.1-1.7-2.4-1.7-4.5,0.1c-1,0.9-2,1.7-3.1,2.6c-17.3,14-34.2,28.4-51.2,42.7c-1,0.8-1.1,1.6-0.5,2.6c1.1,1.7,2,3.5,3.2,5.1
					c5.3,7.3,11.4,13.9,17.1,20.8c0.7,0.9,1.4,0.9,2.3,0.3c5.3-3.7,10.4-7.7,15.4-11.8c8.8-7.2,17.5-14.5,26.2-21.8
					c0.8-0.7,1.4-0.9,2.3-0.1c2,1.7,4,3.2,6.1,4.7c11.9,9.1,25.1,15.5,39.9,18.5c13.4,2.7,26.7,2.2,39.9-1.5
					c6.2-1.7,11.9-4.4,17.7-7c1.3-0.6,2.1-0.3,3,0.7c10.6,11.8,21.1,23.6,32,35c0.2,0,0.5,0,0.7,0c0.6-0.5,1.2-1.1,1.8-1.6
					c7-6,13.9-12.1,20.4-18.7C375.6,448.9,375.6,448.9,373.2,446.4z"/>
			</g>
		</g>
		<g class="st5">
			<path d="M423.5,518h-379c-6.4,0-11.5-5.1-11.5-11.5v-296c0-6.4,5.1-11.5,11.5-11.5h379c6.4,0,11.5,5.1,11.5,11.5v296
				C435,512.9,429.9,518,423.5,518z"/>
		</g>
	</g>
	<circle class="st6" cx="87" cy="627" r="54"/>
	<g>
		<path class="st4" d="M149.8,126.1c3.9-6.1,6.2-13.3,6.2-21.1c0-21.5-17.5-39-39-39s-39,17.5-39,39c0,2.3,0.2,4.6,0.6,6.8
			L149.8,126.1z"/>
		<circle class="st2" cx="117" cy="105" r="6"/>
	</g>
	<g class="st7">
		<rect x="31" y="717" class="st8" width="154" height="17"/>
		<path d="M36.7,721.7h-2.2v-0.9c0-0.3,0-0.5-0.1-0.6s-0.1-0.2-0.3-0.2s-0.2,0-0.3,0.1s-0.1,0.3-0.1,0.7v3.7c0,0.3,0,0.5,0.1,0.6
			s0.2,0.2,0.3,0.2c0.2,0,0.3-0.1,0.3-0.2s0.1-0.4,0.1-0.8v-0.9h2.1c0,0.6,0,1.1-0.1,1.4s-0.2,0.6-0.4,1s-0.5,0.6-0.9,0.7
			s-0.8,0.2-1.3,0.2c-0.7,0-1.2-0.1-1.6-0.3s-0.7-0.5-0.8-1s-0.2-1-0.2-1.8v-2.2c0-0.7,0.1-1.2,0.2-1.5s0.4-0.6,0.8-0.9
			c0.4-0.3,1-0.4,1.6-0.4s1.1,0.1,1.6,0.4s0.7,0.6,0.9,1S36.7,720.9,36.7,721.7z"/>
		<path d="M46.6,728H45v-1.5h-4v1.5h-1.6v-3.4H40c0.3-0.5,0.5-1.2,0.7-2.2s0.3-2.1,0.3-3.5v-0.3h5.1v5.9h0.5V728z M43.8,724.6v-4.2
			h-0.6v0.1c0,1.4-0.2,2.8-0.7,4.1L43.8,724.6L43.8,724.6z"/>
		<path d="M55,722.7h-3.1v1.7c0,0.4,0,0.6,0.1,0.7s0.1,0.2,0.3,0.2s0.3-0.1,0.4-0.2s0.1-0.4,0.1-0.8v-1H55v0.6c0,0.5,0,0.8-0.1,1.1
			s-0.2,0.5-0.4,0.8s-0.5,0.5-0.8,0.7s-0.8,0.2-1.3,0.2s-0.9-0.1-1.3-0.2s-0.7-0.3-0.9-0.6s-0.4-0.5-0.4-0.8s-0.1-0.7-0.1-1.3v-2.3
			c0-0.7,0.1-1.2,0.3-1.6s0.5-0.7,0.9-0.9s0.9-0.3,1.4-0.3c0.7,0,1.2,0.1,1.6,0.4s0.7,0.6,0.9,1s0.3,1,0.3,1.8v0.8H55z M52.6,721.5
			v-0.6c0-0.4,0-0.7-0.1-0.8s-0.1-0.2-0.3-0.2s-0.3,0-0.3,0.1s-0.1,0.4-0.1,0.8v0.6h0.8V721.5z"/>
		<path d="M61.8,726.5v-6.1H61v3.9c0,0.7-0.1,1.2-0.2,1.5s-0.4,0.5-0.8,0.6s-0.9,0.1-1.7,0.1h-0.4v-1.3c0.3,0,0.5,0,0.6-0.1
			s0.2-0.3,0.2-0.8v-5.6h5.5v7.8L61.8,726.5L61.8,726.5z"/>
		<path d="M69.4,721.7h-2.2v-0.5c0-0.6,0.1-1.1,0.2-1.4s0.4-0.6,0.8-0.9s1-0.4,1.6-0.4c0.8,0,1.4,0.1,1.8,0.4s0.7,0.6,0.7,1
			s0.1,1.3,0.1,2.5v3.9h-2.3v-0.7c-0.1,0.3-0.3,0.5-0.6,0.6c-0.2,0.1-0.5,0.2-0.8,0.2c-0.4,0-0.8-0.1-1.1-0.3s-0.5-0.7-0.5-1.5V724
			c0-0.6,0.1-1,0.3-1.2s0.6-0.5,1.4-0.7c0.8-0.3,1.2-0.5,1.2-0.6s0.1-0.3,0.1-0.6c0-0.4,0-0.7-0.1-0.8s-0.2-0.2-0.3-0.2
			c-0.2,0-0.3,0.1-0.3,0.2s-0.1,0.4-0.1,0.8v0.8H69.4z M70.2,722.8c-0.4,0.3-0.6,0.5-0.7,0.7s-0.1,0.5-0.1,0.8c0,0.4,0,0.7,0.1,0.8
			s0.2,0.2,0.3,0.2c0.1,0,0.2,0,0.3-0.1s0.1-0.3,0.1-0.7C70.2,724.5,70.2,722.8,70.2,722.8z"/>
		<path d="M81.3,726.5h-2.4v-2.9h-0.8v2.9h-2.3v-7.8h2.3v2.8h0.8v-2.8h2.4V726.5z"/>
		<path d="M89.9,721.4v1.9c0,0.7,0,1.2-0.1,1.5s-0.2,0.6-0.5,0.9s-0.5,0.5-0.9,0.6s-0.8,0.2-1.2,0.2c-0.5,0-1-0.1-1.3-0.2
			s-0.6-0.3-0.8-0.5s-0.3-0.5-0.4-0.8s-0.1-0.8-0.1-1.5v-2c0-0.7,0.1-1.3,0.2-1.7s0.4-0.7,0.8-1s0.9-0.4,1.6-0.4
			c0.5,0,1,0.1,1.4,0.2s0.7,0.4,0.9,0.6s0.3,0.5,0.4,0.8S89.9,720.9,89.9,721.4z M87.5,720.9c0-0.4,0-0.6-0.1-0.8s-0.1-0.2-0.3-0.2
			s-0.2,0.1-0.3,0.2s-0.1,0.4-0.1,0.8v3.5c0,0.4,0,0.6,0.1,0.7s0.1,0.2,0.3,0.2c0.1,0,0.2-0.1,0.3-0.2s0.1-0.3,0.1-0.7V720.9z"/>
		<path d="M103.1,724.4c0,0.8-0.2,1.3-0.5,1.6s-1.1,0.4-2.3,0.4h-2.7v-7.8h2.8c1,0,1.6,0.2,2,0.5s0.5,0.9,0.5,1.6
			c0,0.9-0.5,1.4-1.4,1.5c0.5,0.1,0.9,0.3,1.1,0.6s0.4,0.7,0.4,1.1L103.1,724.4L103.1,724.4z M99.9,721.6c0.4,0,0.6,0,0.7-0.1
			s0.1-0.3,0.1-0.5s0-0.4-0.1-0.5s-0.3-0.1-0.6-0.1L99.9,721.6L99.9,721.6z M100.7,724.1v-0.3c0-0.3,0-0.5-0.1-0.6s-0.3-0.1-0.6-0.1
			v1.8c0.3,0,0.5,0,0.6-0.1S100.7,724.4,100.7,724.1z"/>
		<path d="M113.1,718.7v0.7c0.2-0.3,0.4-0.5,0.7-0.6c0.3-0.1,0.5-0.2,0.8-0.2c0.4,0,0.7,0.1,1,0.3s0.4,0.4,0.5,0.7s0.1,0.7,0.1,1.3
			v3.3c0,0.7,0,1.2-0.1,1.5s-0.3,0.5-0.5,0.7s-0.6,0.3-0.9,0.3s-0.6-0.1-0.8-0.2c-0.3-0.1-0.5-0.3-0.7-0.6v1.8h-2.4v-8.9
			L113.1,718.7L113.1,718.7z M113.8,721c0-0.5,0-0.8-0.1-0.9s-0.1-0.2-0.3-0.2c-0.2,0-0.3,0.1-0.3,0.2s-0.1,0.4-0.1,0.8v3.2
			c0,0.5,0,0.8,0.1,0.9s0.1,0.2,0.3,0.2c0.2,0,0.2-0.1,0.3-0.2s0.1-0.4,0.1-0.8V721z"/>
		<path d="M124.7,721.4v1.9c0,0.7,0,1.2-0.1,1.5s-0.2,0.6-0.5,0.9s-0.5,0.5-0.9,0.6s-0.8,0.2-1.2,0.2c-0.5,0-1-0.1-1.3-0.2
			s-0.6-0.3-0.8-0.5s-0.3-0.5-0.4-0.8s-0.1-0.8-0.1-1.5v-2c0-0.7,0.1-1.3,0.2-1.7s0.4-0.7,0.8-1s0.9-0.4,1.6-0.4
			c0.5,0,1,0.1,1.4,0.2s0.7,0.4,0.9,0.6s0.3,0.5,0.4,0.8S124.7,720.9,124.7,721.4z M122.3,720.9c0-0.4,0-0.6-0.1-0.8
			s-0.1-0.2-0.3-0.2s-0.2,0.1-0.3,0.2s-0.1,0.4-0.1,0.8v3.5c0,0.4,0,0.6,0.1,0.7s0.1,0.2,0.3,0.2c0.1,0,0.2-0.1,0.3-0.2
			s0.1-0.3,0.1-0.7V720.9z"/>
		<path d="M133.1,721.7h-2.2v-0.9c0-0.3,0-0.5-0.1-0.6s-0.1-0.2-0.3-0.2s-0.2,0-0.3,0.1s-0.1,0.3-0.1,0.7v3.7c0,0.3,0,0.5,0.1,0.6
			s0.2,0.2,0.3,0.2c0.2,0,0.3-0.1,0.3-0.2s0.1-0.4,0.1-0.8v-0.9h2.1c0,0.6,0,1.1-0.1,1.4s-0.2,0.6-0.4,1s-0.5,0.6-0.9,0.7
			s-0.8,0.2-1.3,0.2c-0.7,0-1.2-0.1-1.6-0.3s-0.7-0.5-0.8-1s-0.2-1-0.2-1.8v-2.2c0-0.7,0.1-1.2,0.2-1.5c0.1-0.3,0.4-0.6,0.8-0.9
			s1-0.4,1.6-0.4s1.1,0.1,1.6,0.4s0.7,0.6,0.9,1S133.1,720.9,133.1,721.7z"/>
		<path d="M141.4,721.7h-2.2v-0.9c0-0.3,0-0.5-0.1-0.6s-0.1-0.2-0.3-0.2s-0.2,0-0.3,0.1s-0.1,0.3-0.1,0.7v3.7c0,0.3,0,0.5,0.1,0.6
			s0.2,0.2,0.3,0.2c0.2,0,0.3-0.1,0.3-0.2s0.1-0.4,0.1-0.8v-0.9h2.1c0,0.6,0,1.1-0.1,1.4s-0.2,0.6-0.4,1s-0.5,0.6-0.9,0.7
			s-0.8,0.2-1.3,0.2c-0.7,0-1.2-0.1-1.6-0.3s-0.7-0.5-0.8-1s-0.2-1-0.2-1.8v-2.2c0-0.7,0.1-1.2,0.2-1.5s0.4-0.6,0.8-0.9
			s1-0.4,1.6-0.4s1.1,0.1,1.6,0.4s0.7,0.6,0.9,1S141.4,720.9,141.4,721.7z"/>
		<path d="M150.4,726.5h-2.1v-4.2l-1.6,4.2h-2.2v-7.8h2.1v4.2l1.6-4.2h2.2V726.5z"/>
		<path d="M159.5,726.5h-2.1v-4.2l-1.6,4.2h-2.2v-7.8h2.1v4.2l1.6-4.2h2.2V726.5z"/>
	</g>
	<g class="st7">
		<rect x="331" y="717" class="st8" width="110" height="17"/>
		<path d="M333.8,718.7v0.7c0.2-0.3,0.4-0.5,0.7-0.7c0.3-0.1,0.5-0.2,0.9-0.2c0.6,0,1.1,0.3,1.5,0.9c0.2-0.3,0.4-0.5,0.7-0.7
			c0.3-0.1,0.5-0.2,0.8-0.2c0.4,0,0.7,0.1,1,0.3s0.4,0.4,0.5,0.7s0.1,0.7,0.1,1.4v5.5h-2.3v-5.1c0-0.7,0-1.1-0.1-1.2
			s-0.1-0.2-0.3-0.2c-0.2,0-0.3,0.1-0.3,0.2s-0.1,0.6-0.1,1.2v5.1h-2.3v-4.9c0-0.8,0-1.2-0.1-1.4s-0.1-0.2-0.3-0.2
			c-0.1,0-0.2,0-0.3,0.1s-0.1,0.2-0.1,0.3s0,0.4,0,0.7v5.4h-2.3v-7.8h2.3V718.7z"/>
		<path d="M345.2,721.7H343v-0.5c0-0.6,0.1-1.1,0.2-1.4s0.4-0.6,0.8-0.9s1-0.4,1.6-0.4c0.8,0,1.4,0.1,1.8,0.4s0.7,0.6,0.7,1
			s0.1,1.3,0.1,2.5v3.9H346v-0.7c-0.1,0.3-0.3,0.5-0.6,0.6c-0.2,0.1-0.5,0.2-0.8,0.2c-0.4,0-0.8-0.1-1.1-0.3s-0.5-0.7-0.5-1.5V724
			c0-0.6,0.1-1,0.3-1.2s0.6-0.5,1.4-0.7c0.8-0.3,1.2-0.5,1.2-0.6s0.1-0.3,0.1-0.6c0-0.4,0-0.7-0.1-0.8s-0.2-0.2-0.3-0.2
			c-0.2,0-0.3,0.1-0.3,0.2s-0.1,0.4-0.1,0.8V721.7z M345.9,722.8c-0.4,0.3-0.6,0.5-0.7,0.7s-0.1,0.5-0.1,0.8c0,0.4,0,0.7,0.1,0.8
			s0.2,0.2,0.3,0.2c0.1,0,0.2,0,0.3-0.1s0.1-0.3,0.1-0.7L345.9,722.8L345.9,722.8z"/>
		<path d="M356.9,717v9.5h-2.4v-0.6c-0.2,0.2-0.5,0.4-0.7,0.5c-0.3,0.1-0.5,0.2-0.8,0.2c-0.4,0-0.7-0.1-1-0.3s-0.4-0.4-0.5-0.7
			s-0.1-0.7-0.1-1.2v-3.6c0-0.6,0-1,0.1-1.3s0.3-0.5,0.5-0.7s0.6-0.3,1-0.3c0.3,0,0.6,0.1,0.8,0.2c0.2,0.1,0.5,0.3,0.7,0.5V717
			H356.9z M354.5,720.7c0-0.3,0-0.5-0.1-0.6s-0.1-0.1-0.3-0.1c-0.1,0-0.2,0-0.3,0.1s-0.1,0.3-0.1,0.6v3.8c0,0.3,0,0.5,0.1,0.6
			s0.1,0.1,0.3,0.1c0.2,0,0.3-0.1,0.3-0.2s0.1-0.4,0.1-0.8V720.7z"/>
		<path d="M365.5,722.7h-3.1v1.7c0,0.4,0,0.6,0.1,0.7s0.1,0.2,0.3,0.2c0.2,0,0.3-0.1,0.4-0.2s0.1-0.4,0.1-0.8v-1h2.2v0.6
			c0,0.5,0,0.8-0.1,1.1s-0.2,0.5-0.4,0.8s-0.5,0.5-0.8,0.7s-0.8,0.2-1.3,0.2s-0.9-0.1-1.3-0.2s-0.7-0.3-0.9-0.6s-0.4-0.5-0.4-0.8
			s-0.1-0.7-0.1-1.3v-2.3c0-0.7,0.1-1.2,0.3-1.6s0.5-0.7,0.9-0.9s0.9-0.3,1.4-0.3c0.7,0,1.2,0.1,1.6,0.4s0.7,0.6,0.9,1
			s0.3,1,0.3,1.8v0.8H365.5z M363.1,721.5v-0.6c0-0.4,0-0.7-0.1-0.8s-0.1-0.2-0.3-0.2c-0.2,0-0.3,0-0.3,0.1s-0.1,0.4-0.1,0.8v0.6
			h0.8V721.5z"/>
		<path d="M375.6,717v1.2h-2.4V717H375.6z M375.6,718.7v7.8h-2.4v-7.8H375.6z"/>
		<path d="M381.3,718.7v0.7c0.2-0.3,0.4-0.5,0.6-0.6s0.5-0.2,0.9-0.2s0.7,0.1,1,0.3s0.4,0.4,0.5,0.7s0.1,0.8,0.1,1.5v5.4H382v-5.4
			c0-0.5,0-0.9-0.1-1s-0.1-0.2-0.3-0.2c-0.2,0-0.3,0.1-0.3,0.2s-0.1,0.5-0.1,1.1v5.3h-2.4v-7.8H381.3z"/>
		<path d="M394.5,718.7l-0.1,1c0.3-0.7,0.8-1.1,1.5-1.2v2.7c-0.4,0-0.8,0.1-1,0.2s-0.3,0.3-0.4,0.5s-0.1,0.7-0.1,1.4v3.1H392v-7.8
			L394.5,718.7L394.5,718.7z"/>
		<path d="M404.2,718.7v7.8h-2.4v-0.6c-0.2,0.3-0.4,0.5-0.6,0.6s-0.5,0.2-0.8,0.2c-0.4,0-0.7-0.1-0.9-0.2s-0.4-0.3-0.5-0.5
			s-0.2-0.4-0.2-0.6s0-0.7,0-1.3v-5.2h2.4v5.3c0,0.6,0,1,0.1,1.1s0.1,0.2,0.3,0.2c0.2,0,0.3-0.1,0.3-0.2s0-0.5,0-1.1V719h2.3V718.7z
			"/>
		<path d="M412.3,721.2h-2.1v-0.4c0-0.4,0-0.6-0.1-0.7s-0.1-0.1-0.3-0.1c-0.1,0-0.2,0-0.3,0.1s-0.1,0.2-0.1,0.4s0,0.4,0,0.5
			s0.1,0.2,0.3,0.4s0.5,0.3,1,0.6c0.7,0.3,1.1,0.7,1.4,0.9s0.3,0.7,0.3,1.3s-0.1,1.1-0.2,1.4s-0.4,0.6-0.8,0.7s-0.8,0.3-1.4,0.3
			s-1.1-0.1-1.5-0.3s-0.7-0.4-0.9-0.8s-0.2-0.8-0.2-1.5v-0.4h2.1v0.5c0,0.4,0,0.7,0.1,0.8s0.2,0.2,0.3,0.2c0.2,0,0.3,0,0.4-0.1
			s0.1-0.3,0.1-0.5c0-0.4,0-0.6-0.1-0.7c-0.1-0.1-0.5-0.4-1.4-0.8c-0.7-0.4-1.1-0.7-1.3-1.1s-0.2-0.7-0.2-1.1c0-0.6,0.1-1.1,0.2-1.4
			s0.4-0.5,0.8-0.7s0.8-0.2,1.4-0.2c0.5,0,1,0.1,1.3,0.2s0.6,0.3,0.8,0.5s0.3,0.4,0.4,0.6s0.1,0.5,0.1,0.9L412.3,721.2L412.3,721.2z
			"/>
		<path d="M420.3,721.2h-2.1v-0.4c0-0.4,0-0.6-0.1-0.7s-0.1-0.1-0.3-0.1c-0.1,0-0.2,0-0.3,0.1s-0.1,0.2-0.1,0.4s0,0.4,0,0.5
			s0.1,0.2,0.3,0.4s0.5,0.3,1,0.6c0.7,0.3,1.1,0.7,1.4,0.9s0.3,0.7,0.3,1.3s-0.1,1.1-0.2,1.4s-0.4,0.6-0.8,0.7s-0.8,0.3-1.4,0.3
			s-1.1-0.1-1.5-0.3s-0.7-0.4-0.9-0.8s-0.2-0.8-0.2-1.5v-0.4h2.1v0.5c0,0.4,0,0.7,0.1,0.8s0.2,0.2,0.3,0.2c0.2,0,0.3,0,0.4-0.1
			s0.1-0.3,0.1-0.5c0-0.4,0-0.6-0.1-0.7c-0.1-0.1-0.5-0.4-1.4-0.8c-0.7-0.4-1.1-0.7-1.3-1.1s-0.2-0.7-0.2-1.1c0-0.6,0.1-1.1,0.2-1.4
			s0.4-0.5,0.8-0.7s0.8-0.2,1.4-0.2c0.5,0,1,0.1,1.3,0.2s0.6,0.3,0.8,0.5s0.3,0.4,0.4,0.6s0.1,0.5,0.1,0.9L420.3,721.2L420.3,721.2z
			"/>
		<path d="M426,717v1.2h-2.4V717H426z M426,718.7v7.8h-2.4v-7.8H426z"/>
		<path d="M431.3,721.7h-2.2v-0.5c0-0.6,0.1-1.1,0.2-1.4s0.4-0.6,0.8-0.9s1-0.4,1.6-0.4c0.8,0,1.4,0.1,1.8,0.4s0.7,0.6,0.7,1
			s0.1,1.3,0.1,2.5v3.9H432v-0.7c-0.1,0.3-0.3,0.5-0.6,0.6c-0.2,0.1-0.5,0.2-0.8,0.2c-0.4,0-0.8-0.1-1.1-0.3s-0.5-0.7-0.5-1.5V724
			c0-0.6,0.1-1,0.3-1.2s0.6-0.5,1.4-0.7c0.8-0.3,1.2-0.5,1.2-0.6s0.1-0.3,0.1-0.6c0-0.4,0-0.7-0.1-0.8s-0.2-0.2-0.3-0.2
			c-0.2,0-0.3,0.1-0.3,0.2s-0.1,0.4-0.1,0.8L431.3,721.7L431.3,721.7z M432.1,722.8c-0.4,0.3-0.6,0.5-0.7,0.7s-0.1,0.5-0.1,0.8
			c0,0.4,0,0.7,0.1,0.8s0.2,0.2,0.3,0.2c0.1,0,0.2,0,0.3-0.1s0.1-0.3,0.1-0.7L432.1,722.8L432.1,722.8z"/>
	</g>
	<g>
		<circle class="st9" cx="349" cy="105" r="78"/>
		<circle class="st2" cx="349" cy="105" r="12"/>
		<circle class="st9" cx="348.8" cy="104.9" r="5.9"/>
	</g>
	<g id="Isolatiemodus">
	</g>
	<g>
		<path class="st10" d="M423.7,686H230.3c-5.9,0-10.8-4.8-10.8-10.8v-91.5c0-5.9,4.8-10.8,10.8-10.8h193.5c5.9,0,10.8,4.8,10.8,10.8
			v91.5C434.5,681.2,429.7,686,423.7,686z"/>
		<g class="st11">
			<rect x="240.7" y="586" class="st8" width="124.3" height="104"/>
			<path class="st12" d="M265.8,624h-8.3v-16.8L251,624h-8.6v-31.1h8.3v16.7l6.5-16.7h8.7V624H265.8z"/>
			<path class="st12" d="M306.3,630H300v-6h-15.9v6h-6.3v-13.4h2c1.2-1.9,2.2-4.7,3-8.7s1.2-8.5,1.2-13.9v-1.1h20.4v23.6h2V630
				H306.3z M294.9,616.5v-16.6h-2.5v0.3c0,5.8-0.9,11.2-2.8,16.3H294.9z"/>
			<path class="st12" d="M261.1,637.9v6.5h-5.4V669h-9.4v-24.6h-5.4v-6.5H261.1z"/>
			<path class="st12" d="M296.1,669h-8.3v-16.8l-6.6,16.8h-8.6v-31.1h8.3v16.7l6.5-16.7h8.7V669z"/>
		</g>
		<g class="st13">
			<g>
				<path d="M353.6,614.9c9.9,0,19.7,0,29.6,0c0.8,0,0.8,0,0.8-0.9c0-4,0-8,0-12c0-0.1,0-0.1,0-0.2c0-0.2-0.1-0.4,0.1-0.5
					s0.3,0.2,0.4,0.3c6.4,6.4,12.9,12.9,19.3,19.3c2.8,2.8,5.6,5.6,8.3,8.3c0.5,0.5,0.5,0.5,0,0.9c-9.2,9.2-18.4,18.4-27.6,27.6
					c-0.1,0.1-0.1,0.1-0.2,0.2c-0.1,0.1-0.1,0.2-0.3,0.1c-0.1-0.1-0.1-0.2-0.1-0.3c0-0.6,0-1.3,0-1.9c0-3.5,0-7,0-10.6
					c0-0.8,0-0.8-0.8-0.8c-19.7,0-39.4,0-59.1,0c-1.1,0-1,0.1-1-1c0-9.3,0-18.5,0-27.8c0-0.2,0-0.3,0-0.5c0-0.3,0.1-0.5,0.5-0.5
					c0.2,0,0.4,0,0.6,0C334,614.9,343.8,614.9,353.6,614.9z"/>
			</g>
		</g>
	</g>
	<g class="st14">
		<g>
			<path d="M86.9,634c5,0,9.9,0,14.9,0c0.4,0,0.4,0,0.4-0.4c0-2,0-4,0-6.1v-0.1c0-0.1,0-0.2,0-0.2c0.1,0,0.2,0.1,0.2,0.1
				c3.2,3.2,6.5,6.5,9.7,9.7c1.4,1.4,2.8,2.8,4.2,4.2c0.2,0.2,0.2,0.2,0,0.5c-4.6,4.6-9.3,9.3-13.9,13.9l-0.1,0.1l-0.1,0.1
				c-0.1,0-0.1-0.1-0.1-0.2c0-0.3,0-0.6,0-0.9c0-1.8,0-3.5,0-5.3c0-0.4,0-0.4-0.4-0.4c-9.9,0-19.9,0-29.8,0c-0.5,0-0.5,0-0.5-0.5
				c0-4.7,0-9.3,0-14c0-0.1,0-0.2,0-0.2c0-0.2,0.1-0.2,0.2-0.2s0.2,0,0.3,0C77,634,82,634,86.9,634z"/>
		</g>
	</g>
	<g class="st14">
		<g>
			<path d="M87,605c-5,0-9.9,0-14.9,0c-0.4,0-0.4,0-0.4-0.4c0-2,0-4,0-6.1v-0.1c0-0.1,0-0.2,0-0.2c-0.1,0-0.2,0.1-0.2,0.1
				c-3.2,3.2-6.5,6.5-9.7,9.7c-1.4,1.4-2.8,2.8-4.2,4.2c-0.2,0.2-0.2,0.2,0,0.5c4.6,4.6,9.3,9.3,13.9,13.9l0.1,0.1l0.1,0.1
				c0.1,0,0.1-0.1,0.1-0.2c0-0.3,0-0.6,0-0.9c0-1.8,0-3.5,0-5.3c0-0.4,0-0.4,0.4-0.4c9.9,0,19.9,0,29.8,0c0.5,0,0.5,0,0.5-0.5
				c0-4.7,0-9.3,0-14c0-0.1,0-0.2,0-0.2c0-0.2-0.1-0.2-0.2-0.2s-0.2,0-0.3,0C96.9,605,91.9,605,87,605z"/>
		</g>
	</g>
</g>
<g id="Laag_2_1_">
</g>
<g id="Laag_4">
</g>
</svg>
