<?xml version="1.0" encoding="utf-8"?>
<!-- Generator: Adobe Illustrator 22.0.1, SVG Export Plug-In . SVG Version: 6.00 Build 0)  -->
<svg version="1.1" id="Laag_1" xmlns="http://www.w3.org/2000/svg" xmlns:xlink="http://www.w3.org/1999/xlink" x="0px" y="0px"
	 viewBox="0 0 535 738" style="enable-background:new 0 0 535 738;" xml:space="preserve">
<style type="text/css">
	.st0{fill:#333333;}
	.st1{fill:#666666;}
	.st2{fill:#901337;}
	.st3{opacity:0.5;}
	.st4{fill:#FFFFFF;}
	.st5{opacity:0.87;}
	.st6{opacity:0.57;}
	.st7{fill:none;}
	.st8{fill:#FFFAFC;}
	.st9{fill:#0D9D52;stroke:#0C773C;stroke-width:5;stroke-miterlimit:10;}
	.st10{opacity:0.48;}
	.st11{fill:#0C351C;}
	.st12{opacity:0.29;}
	.st13{fill:#0C0C0C;}
	.st14{fill:#070707;}
	.st15{fill:#280614;}
	.st16{font-family:'Kremlin';}
	.st17{font-size:14px;}
	.st18{letter-spacing:1;}
</style>
<g id="Laag_1_1_">
	<path class="st0" d="M1389.4,596.5l-52.4-6v-447l52.4-6c2,0,3.6,1.6,3.6,3.6v451.8C1393,594.9,1391.4,596.5,1389.4,596.5z"/>
	<path class="st1" d="M1338.8,614.5H1328v-495h10.1c3.8,0,6.9,3.1,6.9,6.9v481.9C1345,611.7,1342.2,614.5,1338.8,614.5z"/>
	<path class="st2" d="M1309,731.5H877c-10.5,0-19-8.5-19-19v-700c0-10.5,8.5-19,19-19h432c10.5,0,19,8.5,19,19v700
		C1328,723,1319.5,731.5,1309,731.5z"/>
	<g>
		<g id="LOGO" class="st3">
			<polygon class="st4" points="977.2,487.7 954.2,460.9 983.9,436.4 1007,463.1 			"/>
			<polygon class="st4" points="1084.3,329.3 1062,305.5 1088.8,282.5 1111.1,306.3 			"/>
			<path class="st4" d="M1044,214.8c3.2,7.1,5.9,14.5,8.7,21.8c0.4,1.1,1.1,1.3,2.1,1.3c4.6,0,9.2,0,13.7,0c2.3,0,4.6,0.2,6.9,0.3
				c0.6,0,1.4,0,1.6,0.6c0.2,0.7-0.5,1-1,1.4c-4.2,3.7-8.8,6.9-13.2,10.3c-4.3,3.4-4.3,3.3-2.9,8.6c1.4,5.1,3.5,10,4.7,15.2
				c0.1,0.5,0.2,0.9,0.4,1.4c0.2,0.6,0.5,1.5-0.1,1.9c-0.5,0.4-1.1-0.3-1.6-0.6c-5.7-3.6-11.4-7-17.1-10.7c-1.9-1.3-3.5-1.2-5.4,0
				c-5.5,3.6-11,7.1-16.5,10.6c-0.9,0.6-2,1.9-3,1.2c-0.7-0.5,0.2-2,0.5-3c1.7-6.3,3.6-12.6,5-18.9c0.3-1.5-0.1-2.4-1.1-3.4
				c-4.8-4.4-9.9-8.3-14.9-12.4c-0.6-0.5-1.7-0.9-1.4-1.6c0.3-0.8,1.4-0.4,2.2-0.4c6.7-0.2,13.4-0.3,20.1-0.4c1.5,0,2.3-0.6,2.8-2
				c2.5-6.6,5.2-13.2,7.8-19.8c0.2-0.5,0.4-0.9,0.7-1.3C1043.5,214.8,1043.8,214.8,1044,214.8z"/>
			<g>
				<path class="st4" d="M1231.2,439.9c-9.2-9.6-17.9-19.7-26.8-29.6c-1.5-1.7-1.6-3-0.7-4.8c2.4-5,5.3-9.7,7.5-14.9
					c4.5-10.4,6.9-21.4,7.4-32.7c0.6-14.3-1.7-28.1-6.6-41.5c-5.8-15.6-14.4-29.5-26.1-41.4c-12.2-12.4-26.7-21.5-43-27.5
					c-0.9-0.3-2.2-1.2-2.7-0.4c-0.5,1,0.9,1.6,1.7,2.3c8,7,15.6,14.4,22.3,22.7c4.9,6.1,9.3,12.6,13,19.5
					c4.7,8.7,8.2,17.8,10.4,27.5c1.4,6.3,2.3,12.6,2.2,19c0,9.7-1.9,19-6.2,27.8c-1.9,3.8-3.7,7.7-6.3,11.1
					c-0.4,0.6-0.8,1.3-1.7,0.4c-4.2-4.5-8.4-8.9-12.5-13.3c-8.9-9.6-17.9-19.2-26.8-28.9c-4.2-4.6-8.5-9.1-12.2-14.1
					c-0.1-0.2-0.2-0.3-0.3-0.5l-26.8,23.1c12,12.3,23.9,24.7,35.4,37.4c4.8,5.3,9.5,10.6,14.4,15.9c0.9,1,0.9,1.6-0.5,2.1
					c-1.4,0.4-2.8,1-4.2,1.4c-9.7,2.7-19.4,2.6-29.2,1c-16-2.7-30.3-9.2-42.3-20.3c-2.6-2.4-5.4-4.6-8.1-6.8
					c-2.1-1.7-2.4-1.7-4.5,0.1c-1,0.9-2,1.7-3.1,2.6c-17.3,14-34.2,28.4-51.2,42.7c-1,0.8-1.1,1.6-0.5,2.6c1.1,1.7,2,3.5,3.2,5.1
					c5.3,7.3,11.4,13.9,17.1,20.8c0.7,0.9,1.4,0.9,2.3,0.3c5.3-3.7,10.4-7.7,15.4-11.8c8.8-7.2,17.5-14.5,26.2-21.8
					c0.8-0.7,1.4-0.9,2.3-0.1c2,1.7,4,3.2,6.1,4.7c11.9,9.1,25.1,15.5,39.9,18.5c13.4,2.7,26.7,2.2,39.9-1.5
					c6.2-1.7,11.9-4.4,17.7-7c1.3-0.6,2.1-0.3,3,0.7c10.6,11.8,21.1,23.6,32,35c0.2,0,0.5,0,0.7,0c0.6-0.5,1.2-1.1,1.8-1.6
					c7-6,13.9-12.1,20.4-18.7C1233.6,442.4,1233.6,442.4,1231.2,439.9z"/>
			</g>
		</g>
		<g class="st5">
			<path d="M1293,511.5H891v-319h402V511.5z"/>
		</g>
	</g>
	<g>
		<path class="st4" d="M1007.8,119.6c3.9-6.1,6.2-13.3,6.2-21.1c0-21.5-17.5-39-39-39s-39,17.5-39,39c0,2.3,0.2,4.6,0.6,6.8
			L1007.8,119.6z"/>
		<circle class="st2" cx="975" cy="98.5" r="6"/>
	</g>
	<g class="st6">
		<rect x="889" y="710.5" class="st7" width="154" height="17"/>
		<path d="M894.7,715.2h-2.2v-0.9c0-0.3,0-0.5-0.1-0.6s-0.1-0.2-0.3-0.2s-0.2,0-0.3,0.1s-0.1,0.3-0.1,0.7v3.7c0,0.3,0,0.5,0.1,0.6
			s0.2,0.2,0.3,0.2c0.2,0,0.3-0.1,0.3-0.2s0.1-0.4,0.1-0.8v-0.9h2.1c0,0.6,0,1.1-0.1,1.4s-0.2,0.6-0.4,1s-0.5,0.6-0.9,0.7
			c-0.4,0.1-0.8,0.2-1.3,0.2c-0.7,0-1.2-0.1-1.6-0.3c-0.4-0.2-0.7-0.5-0.8-1s-0.2-1-0.2-1.8v-2.2c0-0.7,0.1-1.2,0.2-1.5
			s0.4-0.6,0.8-0.9c0.4-0.3,1-0.4,1.6-0.4s1.1,0.1,1.6,0.4s0.7,0.6,0.9,1S894.7,714.4,894.7,715.2z"/>
		<path d="M904.6,721.5H903V720h-4v1.5h-1.6v-3.4h0.6c0.3-0.5,0.5-1.2,0.7-2.2s0.3-2.1,0.3-3.5v-0.3h5.1v5.9h0.5V721.5z
			 M901.8,718.1v-4.2h-0.6v0.1c0,1.4-0.2,2.8-0.7,4.1L901.8,718.1L901.8,718.1z"/>
		<path d="M913,716.2h-3.1v1.7c0,0.4,0,0.6,0.1,0.7s0.1,0.2,0.3,0.2s0.3-0.1,0.4-0.2c0.1-0.1,0.1-0.4,0.1-0.8v-1h2.2v0.6
			c0,0.5,0,0.8-0.1,1.1s-0.2,0.5-0.4,0.8s-0.5,0.5-0.8,0.7s-0.8,0.2-1.3,0.2s-0.9-0.1-1.3-0.2c-0.4-0.1-0.7-0.3-0.9-0.6
			s-0.4-0.5-0.4-0.8s-0.1-0.7-0.1-1.3V715c0-0.7,0.1-1.2,0.3-1.6s0.5-0.7,0.9-0.9s0.9-0.3,1.4-0.3c0.7,0,1.2,0.1,1.6,0.4
			c0.4,0.3,0.7,0.6,0.9,1s0.3,1,0.3,1.8L913,716.2L913,716.2L913,716.2z M910.6,715v-0.6c0-0.4,0-0.7-0.1-0.8s-0.1-0.2-0.3-0.2
			s-0.3,0-0.3,0.1s-0.1,0.4-0.1,0.8v0.6h0.8C910.6,714.9,910.6,715,910.6,715z"/>
		<path d="M919.8,720v-6.1H919v3.9c0,0.7-0.1,1.2-0.2,1.5c-0.1,0.3-0.4,0.5-0.8,0.6s-0.9,0.1-1.7,0.1h-0.4v-1.3c0.3,0,0.5,0,0.6-0.1
			s0.2-0.3,0.2-0.8v-5.6h5.5v7.8L919.8,720L919.8,720z"/>
		<path d="M927.4,715.2h-2.2v-0.5c0-0.6,0.1-1.1,0.2-1.4c0.1-0.3,0.4-0.6,0.8-0.9c0.4-0.3,1-0.4,1.6-0.4c0.8,0,1.4,0.1,1.8,0.4
			c0.4,0.3,0.7,0.6,0.7,1s0.1,1.3,0.1,2.5v3.9h-2.3v-0.7c-0.1,0.3-0.3,0.5-0.6,0.6c-0.2,0.1-0.5,0.2-0.8,0.2c-0.4,0-0.8-0.1-1.1-0.3
			s-0.5-0.7-0.5-1.5v-0.6c0-0.6,0.1-1,0.3-1.2s0.6-0.5,1.4-0.7c0.8-0.3,1.2-0.5,1.2-0.6s0.1-0.3,0.1-0.6c0-0.4,0-0.7-0.1-0.8
			s-0.2-0.2-0.3-0.2c-0.2,0-0.3,0.1-0.3,0.2s-0.1,0.4-0.1,0.8L927.4,715.2L927.4,715.2z M928.2,716.3c-0.4,0.3-0.6,0.5-0.7,0.7
			s-0.1,0.5-0.1,0.8c0,0.4,0,0.7,0.1,0.8s0.2,0.2,0.3,0.2s0.2,0,0.3-0.1s0.1-0.3,0.1-0.7C928.2,718,928.2,716.3,928.2,716.3z"/>
		<path d="M939.3,720h-2.4v-2.9h-0.8v2.9h-2.3v-7.8h2.3v2.8h0.8v-2.8h2.4V720z"/>
		<path d="M947.9,714.9v1.9c0,0.7,0,1.2-0.1,1.5s-0.2,0.6-0.5,0.9s-0.5,0.5-0.9,0.6s-0.8,0.2-1.2,0.2c-0.5,0-1-0.1-1.3-0.2
			c-0.3-0.1-0.6-0.3-0.8-0.5s-0.3-0.5-0.4-0.8c-0.1-0.3-0.1-0.8-0.1-1.5v-2c0-0.7,0.1-1.3,0.2-1.7c0.1-0.4,0.4-0.7,0.8-1
			c0.4-0.3,0.9-0.4,1.6-0.4c0.5,0,1,0.1,1.4,0.2c0.4,0.1,0.7,0.4,0.9,0.6s0.3,0.5,0.4,0.8C948,713.8,947.9,714.4,947.9,714.9z
			 M945.5,714.4c0-0.4,0-0.6-0.1-0.8s-0.1-0.2-0.3-0.2s-0.2,0.1-0.3,0.2c-0.1,0.1-0.1,0.4-0.1,0.8v3.5c0,0.4,0,0.6,0.1,0.7
			c0.1,0.1,0.1,0.2,0.3,0.2c0.1,0,0.2-0.1,0.3-0.2c0.1-0.1,0.1-0.3,0.1-0.7V714.4z"/>
		<path d="M961.1,717.9c0,0.8-0.2,1.3-0.5,1.6s-1.1,0.4-2.3,0.4h-2.7v-7.8h2.8c1,0,1.6,0.2,2,0.5s0.5,0.9,0.5,1.6
			c0,0.9-0.5,1.4-1.4,1.5c0.5,0.1,0.9,0.3,1.1,0.6c0.2,0.3,0.4,0.7,0.4,1.1L961.1,717.9L961.1,717.9z M957.9,715.1
			c0.4,0,0.6,0,0.7-0.1c0.1-0.1,0.1-0.3,0.1-0.5s0-0.4-0.1-0.5s-0.3-0.1-0.6-0.1L957.9,715.1L957.9,715.1z M958.7,717.6v-0.3
			c0-0.3,0-0.5-0.1-0.6s-0.3-0.1-0.6-0.1v1.8c0.3,0,0.5,0,0.6-0.1C958.7,718.2,958.7,717.9,958.7,717.6z"/>
		<path d="M971.1,712.2v0.7c0.2-0.3,0.4-0.5,0.7-0.6s0.5-0.2,0.8-0.2c0.4,0,0.7,0.1,1,0.3s0.4,0.4,0.5,0.7s0.1,0.7,0.1,1.3v3.3
			c0,0.7,0,1.2-0.1,1.5s-0.3,0.5-0.5,0.7s-0.6,0.3-0.9,0.3s-0.6-0.1-0.8-0.2c-0.3-0.1-0.5-0.3-0.7-0.6v1.8h-2.4v-8.9L971.1,712.2
			L971.1,712.2z M971.8,714.5c0-0.5,0-0.8-0.1-0.9c-0.1-0.1-0.1-0.2-0.3-0.2s-0.3,0.1-0.3,0.2s-0.1,0.4-0.1,0.8v3.2
			c0,0.5,0,0.8,0.1,0.9c0.1,0.1,0.1,0.2,0.3,0.2s0.2-0.1,0.3-0.2c0.1-0.1,0.1-0.4,0.1-0.8V714.5z"/>
		<path d="M982.7,714.9v1.9c0,0.7,0,1.2-0.1,1.5s-0.2,0.6-0.5,0.9c-0.3,0.3-0.5,0.5-0.9,0.6s-0.8,0.2-1.2,0.2c-0.5,0-1-0.1-1.3-0.2
			s-0.6-0.3-0.8-0.5s-0.3-0.5-0.4-0.8s-0.1-0.8-0.1-1.5v-2c0-0.7,0.1-1.3,0.2-1.7c0.1-0.4,0.4-0.7,0.8-1c0.4-0.3,0.9-0.4,1.6-0.4
			c0.5,0,1,0.1,1.4,0.2c0.4,0.1,0.7,0.4,0.9,0.6s0.3,0.5,0.4,0.8C982.8,713.8,982.7,714.4,982.7,714.9z M980.3,714.4
			c0-0.4,0-0.6-0.1-0.8s-0.1-0.2-0.3-0.2s-0.2,0.1-0.3,0.2c-0.1,0.1-0.1,0.4-0.1,0.8v3.5c0,0.4,0,0.6,0.1,0.7
			c0.1,0.1,0.1,0.2,0.3,0.2c0.1,0,0.2-0.1,0.3-0.2c0.1-0.1,0.1-0.3,0.1-0.7V714.4z"/>
		<path d="M991.1,715.2h-2.2v-0.9c0-0.3,0-0.5-0.1-0.6s-0.1-0.2-0.3-0.2s-0.2,0-0.3,0.1s-0.1,0.3-0.1,0.7v3.7c0,0.3,0,0.5,0.1,0.6
			s0.2,0.2,0.3,0.2c0.2,0,0.3-0.1,0.3-0.2s0.1-0.4,0.1-0.8v-0.9h2.1c0,0.6,0,1.1-0.1,1.4c-0.1,0.3-0.2,0.6-0.4,1s-0.5,0.6-0.9,0.7
			c-0.4,0.1-0.8,0.2-1.3,0.2c-0.7,0-1.2-0.1-1.6-0.3s-0.7-0.5-0.8-1s-0.2-1-0.2-1.8v-2.2c0-0.7,0.1-1.2,0.2-1.5
			c0.1-0.3,0.4-0.6,0.8-0.9s1-0.4,1.6-0.4s1.1,0.1,1.6,0.4s0.7,0.6,0.9,1C991,713.9,991.1,714.4,991.1,715.2z"/>
		<path d="M999.4,715.2h-2.2v-0.9c0-0.3,0-0.5-0.1-0.6s-0.1-0.2-0.3-0.2s-0.2,0-0.3,0.1s-0.1,0.3-0.1,0.7v3.7c0,0.3,0,0.5,0.1,0.6
			s0.2,0.2,0.3,0.2c0.2,0,0.3-0.1,0.3-0.2s0.1-0.4,0.1-0.8v-0.9h2.1c0,0.6,0,1.1-0.1,1.4c-0.1,0.3-0.2,0.6-0.4,1s-0.5,0.6-0.9,0.7
			c-0.4,0.1-0.8,0.2-1.3,0.2c-0.7,0-1.2-0.1-1.6-0.3s-0.7-0.5-0.8-1s-0.2-1-0.2-1.8v-2.2c0-0.7,0.1-1.2,0.2-1.5
			c0.1-0.3,0.4-0.6,0.8-0.9s1-0.4,1.6-0.4s1.1,0.1,1.6,0.4s0.7,0.6,0.9,1S999.4,714.4,999.4,715.2z"/>
		<path d="M1008.4,720h-2.1v-4.2l-1.6,4.2h-2.2v-7.8h2.1v4.2l1.6-4.2h2.2V720z"/>
		<path d="M1017.5,720h-2.1v-4.2l-1.6,4.2h-2.2v-7.8h2.1v4.2l1.6-4.2h2.2V720z"/>
	</g>
	<g class="st6">
		<rect x="1189" y="710.5" class="st7" width="110" height="17"/>
		<path d="M1191.8,712.2v0.7c0.2-0.3,0.4-0.5,0.7-0.7c0.3-0.1,0.5-0.2,0.9-0.2c0.6,0,1.1,0.3,1.5,0.9c0.2-0.3,0.4-0.5,0.7-0.7
			c0.3-0.1,0.5-0.2,0.8-0.2c0.4,0,0.7,0.1,1,0.3s0.4,0.4,0.5,0.7s0.1,0.7,0.1,1.4v5.5h-2.3v-5.1c0-0.7,0-1.1-0.1-1.2
			s-0.1-0.2-0.3-0.2c-0.2,0-0.3,0.1-0.3,0.2s-0.1,0.6-0.1,1.2v5.1h-2.3V715c0-0.8,0-1.2-0.1-1.4s-0.1-0.2-0.3-0.2
			c-0.1,0-0.2,0-0.3,0.1s-0.1,0.2-0.1,0.3s0,0.4,0,0.7v5.4h-2.3v-7.8h2.3L1191.8,712.2L1191.8,712.2z"/>
		<path d="M1203.2,715.2h-2.2v-0.5c0-0.6,0.1-1.1,0.2-1.4c0.1-0.3,0.4-0.6,0.8-0.9s1-0.4,1.6-0.4c0.8,0,1.4,0.1,1.8,0.4
			s0.7,0.6,0.7,1s0.1,1.3,0.1,2.5v3.9h-2.2v-0.7c-0.1,0.3-0.3,0.5-0.6,0.6c-0.2,0.1-0.5,0.2-0.8,0.2c-0.4,0-0.8-0.1-1.1-0.3
			s-0.5-0.7-0.5-1.5v-0.6c0-0.6,0.1-1,0.3-1.2c0.2-0.2,0.6-0.5,1.4-0.7c0.8-0.3,1.2-0.5,1.2-0.6s0.1-0.3,0.1-0.6
			c0-0.4,0-0.7-0.1-0.8s-0.2-0.2-0.3-0.2c-0.2,0-0.3,0.1-0.3,0.2s-0.1,0.4-0.1,0.8V715.2z M1203.9,716.3c-0.4,0.3-0.6,0.5-0.7,0.7
			s-0.1,0.5-0.1,0.8c0,0.4,0,0.7,0.1,0.8s0.2,0.2,0.3,0.2s0.2,0,0.3-0.1s0.1-0.3,0.1-0.7L1203.9,716.3L1203.9,716.3z"/>
		<path d="M1214.9,710.5v9.5h-2.4v-0.6c-0.2,0.2-0.5,0.4-0.7,0.5c-0.3,0.1-0.5,0.2-0.8,0.2c-0.4,0-0.7-0.1-1-0.3s-0.4-0.4-0.5-0.7
			s-0.1-0.7-0.1-1.2v-3.6c0-0.6,0-1,0.1-1.3s0.3-0.5,0.5-0.7s0.6-0.3,1-0.3c0.3,0,0.6,0.1,0.8,0.2c0.2,0.1,0.5,0.3,0.7,0.5v-2.2
			L1214.9,710.5L1214.9,710.5z M1212.5,714.2c0-0.3,0-0.5-0.1-0.6s-0.1-0.1-0.3-0.1c-0.1,0-0.2,0-0.3,0.1s-0.1,0.3-0.1,0.6v3.8
			c0,0.3,0,0.5,0.1,0.6s0.1,0.1,0.3,0.1c0.2,0,0.3-0.1,0.3-0.2s0.1-0.4,0.1-0.8V714.2z"/>
		<path d="M1223.5,716.2h-3.1v1.7c0,0.4,0,0.6,0.1,0.7s0.1,0.2,0.3,0.2c0.2,0,0.3-0.1,0.4-0.2c0.1-0.1,0.1-0.4,0.1-0.8v-1h2.2v0.6
			c0,0.5,0,0.8-0.1,1.1s-0.2,0.5-0.4,0.8s-0.5,0.5-0.8,0.7s-0.8,0.2-1.3,0.2s-0.9-0.1-1.3-0.2c-0.4-0.1-0.7-0.3-0.9-0.6
			c-0.2-0.3-0.4-0.5-0.4-0.8s-0.1-0.7-0.1-1.3V715c0-0.7,0.1-1.2,0.3-1.6s0.5-0.7,0.9-0.9s0.9-0.3,1.4-0.3c0.7,0,1.2,0.1,1.6,0.4
			s0.7,0.6,0.9,1s0.3,1,0.3,1.8L1223.5,716.2L1223.5,716.2L1223.5,716.2z M1221.1,715v-0.6c0-0.4,0-0.7-0.1-0.8s-0.1-0.2-0.3-0.2
			c-0.2,0-0.3,0-0.3,0.1s-0.1,0.4-0.1,0.8v0.6h0.8V715z"/>
		<path d="M1233.6,710.5v1.2h-2.4v-1.2H1233.6z M1233.6,712.2v7.8h-2.4v-7.8H1233.6z"/>
		<path d="M1239.3,712.2v0.7c0.2-0.3,0.4-0.5,0.6-0.6s0.5-0.2,0.9-0.2s0.7,0.1,1,0.3s0.4,0.4,0.5,0.7s0.1,0.8,0.1,1.5v5.4h-2.4v-5.4
			c0-0.5,0-0.9-0.1-1s-0.1-0.2-0.3-0.2c-0.2,0-0.3,0.1-0.3,0.2s-0.1,0.5-0.1,1.1v5.3h-2.4v-7.8H1239.3z"/>
		<path d="M1252.5,712.2l-0.1,1c0.3-0.7,0.8-1.1,1.5-1.2v2.7c-0.4,0-0.8,0.1-1,0.2c-0.2,0.1-0.3,0.3-0.4,0.5s-0.1,0.7-0.1,1.4v3.1
			h-2.4v-7.8L1252.5,712.2L1252.5,712.2z"/>
		<path d="M1262.2,712.2v7.8h-2.4v-0.6c-0.2,0.3-0.4,0.5-0.6,0.6s-0.5,0.2-0.8,0.2c-0.4,0-0.7-0.1-0.9-0.2s-0.4-0.3-0.5-0.5
			s-0.2-0.4-0.2-0.6s0-0.7,0-1.3v-5.2h2.4v5.3c0,0.6,0,1,0.1,1.1s0.1,0.2,0.3,0.2c0.2,0,0.3-0.1,0.3-0.2s0-0.5,0-1.1v-5.2h2.3
			L1262.2,712.2L1262.2,712.2z"/>
		<path d="M1270.3,714.7h-2.1v-0.4c0-0.4,0-0.6-0.1-0.7s-0.1-0.1-0.3-0.1c-0.1,0-0.2,0-0.3,0.1s-0.1,0.2-0.1,0.4s0,0.4,0,0.5
			s0.1,0.2,0.3,0.4s0.5,0.3,1,0.6c0.7,0.3,1.1,0.7,1.4,0.9s0.3,0.7,0.3,1.3s-0.1,1.1-0.2,1.4s-0.4,0.6-0.8,0.7
			c-0.4,0.1-0.8,0.3-1.4,0.3s-1.1-0.1-1.5-0.3s-0.7-0.4-0.9-0.8s-0.2-0.8-0.2-1.5v-0.4h2.1v0.5c0,0.4,0,0.7,0.1,0.8s0.2,0.2,0.3,0.2
			c0.2,0,0.3,0,0.4-0.1s0.1-0.3,0.1-0.5c0-0.4,0-0.6-0.1-0.7c-0.1-0.1-0.5-0.4-1.4-0.8c-0.7-0.4-1.1-0.7-1.3-1.1s-0.2-0.7-0.2-1.1
			c0-0.6,0.1-1.1,0.2-1.4s0.4-0.5,0.8-0.7s0.8-0.2,1.4-0.2c0.5,0,1,0.1,1.3,0.2c0.3,0.1,0.6,0.3,0.8,0.5s0.3,0.4,0.4,0.6
			s0.1,0.5,0.1,0.9L1270.3,714.7L1270.3,714.7z"/>
		<path d="M1278.3,714.7h-2.1v-0.4c0-0.4,0-0.6-0.1-0.7s-0.1-0.1-0.3-0.1c-0.1,0-0.2,0-0.3,0.1s-0.1,0.2-0.1,0.4s0,0.4,0,0.5
			s0.1,0.2,0.3,0.4s0.5,0.3,1,0.6c0.7,0.3,1.1,0.7,1.4,0.9s0.3,0.7,0.3,1.3s-0.1,1.1-0.2,1.4s-0.4,0.6-0.8,0.7
			c-0.4,0.1-0.8,0.3-1.4,0.3s-1.1-0.1-1.5-0.3s-0.7-0.4-0.9-0.8s-0.2-0.8-0.2-1.5v-0.4h2.1v0.5c0,0.4,0,0.7,0.1,0.8s0.2,0.2,0.3,0.2
			c0.2,0,0.3,0,0.4-0.1s0.1-0.3,0.1-0.5c0-0.4,0-0.6-0.1-0.7c-0.1-0.1-0.5-0.4-1.4-0.8c-0.7-0.4-1.1-0.7-1.3-1.1s-0.2-0.7-0.2-1.1
			c0-0.6,0.1-1.1,0.2-1.4s0.4-0.5,0.8-0.7s0.8-0.2,1.4-0.2c0.5,0,1,0.1,1.3,0.2c0.3,0.1,0.6,0.3,0.8,0.5s0.3,0.4,0.4,0.6
			s0.1,0.5,0.1,0.9L1278.3,714.7L1278.3,714.7z"/>
		<path d="M1284,710.5v1.2h-2.4v-1.2H1284z M1284,712.2v7.8h-2.4v-7.8H1284z"/>
		<path d="M1289.3,715.2h-2.2v-0.5c0-0.6,0.1-1.1,0.2-1.4c0.1-0.3,0.4-0.6,0.8-0.9s1-0.4,1.6-0.4c0.8,0,1.4,0.1,1.8,0.4
			c0.4,0.3,0.7,0.6,0.7,1s0.1,1.3,0.1,2.5v3.9h-2.3v-0.7c-0.1,0.3-0.3,0.5-0.6,0.6c-0.2,0.1-0.5,0.2-0.8,0.2c-0.4,0-0.8-0.1-1.1-0.3
			s-0.5-0.7-0.5-1.5v-0.6c0-0.6,0.1-1,0.3-1.2c0.2-0.2,0.6-0.5,1.4-0.7c0.8-0.3,1.2-0.5,1.2-0.6s0.1-0.3,0.1-0.6
			c0-0.4,0-0.7-0.1-0.8s-0.2-0.2-0.3-0.2c-0.2,0-0.3,0.1-0.3,0.2s-0.1,0.4-0.1,0.8L1289.3,715.2L1289.3,715.2z M1290.1,716.3
			c-0.4,0.3-0.6,0.5-0.7,0.7s-0.1,0.5-0.1,0.8c0,0.4,0,0.7,0.1,0.8s0.2,0.2,0.3,0.2c0.1,0,0.2,0,0.3-0.1s0.1-0.3,0.1-0.7
			L1290.1,716.3L1290.1,716.3z"/>
	</g>
	<g>
		<circle class="st8" cx="1207" cy="98.5" r="78"/>
		<circle class="st2" cx="1207" cy="98.5" r="12"/>
		<circle class="st8" cx="1206.8" cy="98.4" r="5.9"/>
	</g>
	<g id="Isolatiemodus">
	</g>
	<g>
		<path class="st9" d="M1281.7,679.5h-193.4c-5.9,0-10.8-4.8-10.8-10.8v-91.5c0-5.9,4.8-10.8,10.8-10.8h193.5
			c5.9,0,10.8,4.8,10.8,10.8v91.5C1292.5,674.7,1287.7,679.5,1281.7,679.5z"/>
		<g class="st10">
			<rect x="1098.7" y="579.5" class="st7" width="124.3" height="104"/>
			<path class="st11" d="M1123.8,617.5h-8.3v-16.8l-6.5,16.8h-8.6v-31.1h8.3v16.7l6.5-16.7h8.7L1123.8,617.5L1123.8,617.5z"/>
			<path class="st11" d="M1164.3,623.5h-6.3v-6h-15.9v6h-6.3v-13.4h2c1.2-1.9,2.2-4.7,3-8.7s1.2-8.5,1.2-13.9v-1.1h20.4V610h2
				L1164.3,623.5L1164.3,623.5z M1152.9,610v-16.6h-2.5v0.3c0,5.8-0.9,11.2-2.8,16.3H1152.9z"/>
			<path class="st11" d="M1119.1,631.4v6.5h-5.4v24.6h-9.4v-24.6h-5.4v-6.5H1119.1z"/>
			<path class="st11" d="M1154.1,662.5h-8.3v-16.8l-6.6,16.8h-8.6v-31.1h8.3v16.7l6.5-16.7h8.7V662.5z"/>
		</g>
		<g class="st12">
			<g>
				<path d="M1211.6,608.4c9.9,0,19.7,0,29.6,0c0.8,0,0.8,0,0.8-0.9c0-4,0-8,0-12c0-0.1,0-0.1,0-0.2c0-0.2-0.1-0.4,0.1-0.5
					s0.3,0.2,0.4,0.3c6.4,6.4,12.9,12.9,19.3,19.3c2.8,2.8,5.6,5.6,8.3,8.3c0.5,0.5,0.5,0.5,0,0.9c-9.2,9.2-18.4,18.4-27.6,27.6
					c-0.1,0.1-0.1,0.1-0.2,0.2c-0.1,0.1-0.1,0.2-0.3,0.1c-0.1-0.1-0.1-0.2-0.1-0.3c0-0.6,0-1.3,0-1.9c0-3.5,0-7,0-10.6
					c0-0.8,0-0.8-0.8-0.8c-19.7,0-39.4,0-59.1,0c-1.1,0-1,0.1-1-1c0-9.3,0-18.5,0-27.8c0-0.2,0-0.3,0-0.5c0-0.3,0.1-0.5,0.5-0.5
					c0.2,0,0.4,0,0.6,0C1192,608.4,1201.8,608.4,1211.6,608.4z"/>
			</g>
		</g>
	</g>
</g>
<g id="Laag_2_1_">
</g>
<g id="Laag_4">
</g>
<g>
	<polygon class="st13" points="1048.3,526.9 1004.1,507 959.9,526.9 913.8,506.2 917.5,502.9 959.9,521.9 1004.1,502 1048.3,521.9 
		1092.5,502 1136.8,521.9 1181,502 1225.2,521.9 1267.6,502.9 1271.3,506.2 1225.2,526.9 1181,507 1136.8,526.9 1092.5,507 	"/>
	<polygon class="st13" points="1048.3,539.8 1004.1,519.9 959.9,539.8 890.9,508.8 913.5,488.2 959.9,509.1 1004.1,489.1 
		1048.3,509.1 1092.5,489.1 1136.8,509.1 1181,489.1 1225.2,509.1 1271.6,488.2 1294.2,508.8 1225.2,539.8 1181,519.9 1136.8,539.8 
		1092.5,519.9 	"/>
</g>
<g>
	<polygon class="st13" points="1048.8,180.5 1004.6,200.4 960.4,180.5 914.4,201.3 918,204.6 960.4,185.5 1004.6,205.4 
		1048.8,185.5 1093,205.4 1137.2,185.5 1181.4,205.4 1225.6,185.5 1268,204.6 1271.6,201.3 1225.6,180.5 1181.4,200.4 1137.2,180.5 
		1093,200.4 	"/>
	<polygon class="st13" points="1048.8,167.6 1004.6,187.5 960.4,167.6 891.5,198.7 914,219.3 960.4,198.4 1004.6,218.3 
		1048.8,198.4 1093,218.3 1137.2,198.4 1181.4,218.3 1225.6,198.4 1272,219.3 1294.6,198.7 1225.6,167.6 1181.4,187.5 1137.2,167.6 
		1093,187.5 	"/>
</g>
<path class="st0" d="M508.9,603l-45.9-6V150l45.9-6c1.8,0,3.1,1.6,3.1,3.6v451.8C512,601.4,510.6,603,508.9,603z"/>
<path class="st1" d="M477.2,621H470V126h6.7c2.5,0,4.6,3.1,4.6,6.9v481.9C481.3,618.2,479.5,621,477.2,621z"/>
<path class="st2" d="M451,738H19c-10.5,0-19-8.5-19-19V19C0,8.5,8.5,0,19,0h432c10.5,0,19,8.5,19,19v700
	C470,729.5,461.5,738,451,738z"/>
<rect x="34.7" y="204.7" class="st14" width="400.6" height="443.8"/>
<g>
	<rect x="20" y="51.1" class="st2" width="429.1" height="156.1"/>
	<g>
		<polygon class="st14" points="187.5,190.1 140.4,210 93.4,190.1 44.4,210.8 48.3,214.1 93.4,195.1 140.4,215 187.5,195.1 
			234.5,215 281.6,195.1 328.6,215 375.7,195.1 420.8,214.1 424.7,210.8 375.7,190.1 328.6,210 281.6,190.1 234.5,210 		"/>
		<polygon class="st14" points="187.5,177.2 140.4,197.1 93.4,177.2 20,208.2 44.1,228.8 93.4,207.9 140.4,227.9 187.5,207.9 
			234.5,227.9 281.6,207.9 328.6,227.9 375.7,207.9 425.1,228.8 449.1,208.2 375.7,177.2 328.6,197.1 281.6,177.2 234.5,197.1 		"/>
	</g>
</g>
<g>
	<circle class="st4" cx="117" cy="98" r="39"/>
	<circle class="st2" cx="117" cy="98" r="6"/>
</g>
<g class="st6">
	<rect x="31" y="717" class="st7" width="154" height="17"/>
	<path d="M36.7,721.7h-2.2v-0.9c0-0.3,0-0.5-0.1-0.6s-0.1-0.2-0.3-0.2s-0.2,0-0.3,0.1s-0.1,0.3-0.1,0.7v3.7c0,0.3,0,0.5,0.1,0.6
		s0.2,0.2,0.3,0.2c0.2,0,0.3-0.1,0.3-0.2s0.1-0.4,0.1-0.8v-0.9h2.1c0,0.6,0,1.1-0.1,1.4s-0.2,0.6-0.4,1s-0.5,0.6-0.9,0.7
		s-0.8,0.2-1.3,0.2c-0.7,0-1.2-0.1-1.6-0.3s-0.7-0.5-0.8-1s-0.2-1-0.2-1.8v-2.2c0-0.7,0.1-1.2,0.2-1.5s0.4-0.6,0.8-0.9
		c0.4-0.3,1-0.4,1.6-0.4s1.1,0.1,1.6,0.4s0.7,0.6,0.9,1S36.7,720.9,36.7,721.7z"/>
	<path d="M46.6,728H45v-1.5h-4v1.5h-1.6v-3.4H40c0.3-0.5,0.5-1.2,0.7-2.2s0.3-2.1,0.3-3.5v-0.3h5.1v5.9h0.5V728z M43.8,724.6v-4.2
		h-0.6v0.1c0,1.4-0.2,2.8-0.7,4.1L43.8,724.6L43.8,724.6z"/>
	<path d="M55,722.7h-3.1v1.7c0,0.4,0,0.6,0.1,0.7s0.1,0.2,0.3,0.2s0.3-0.1,0.4-0.2s0.1-0.4,0.1-0.8v-1H55v0.6c0,0.5,0,0.8-0.1,1.1
		s-0.2,0.5-0.4,0.8s-0.5,0.5-0.8,0.7s-0.8,0.2-1.3,0.2s-0.9-0.1-1.3-0.2s-0.7-0.3-0.9-0.6s-0.4-0.5-0.4-0.8s-0.1-0.7-0.1-1.3v-2.3
		c0-0.7,0.1-1.2,0.3-1.6s0.5-0.7,0.9-0.9s0.9-0.3,1.4-0.3c0.7,0,1.2,0.1,1.6,0.4s0.7,0.6,0.9,1s0.3,1,0.3,1.8v0.8L55,722.7L55,722.7
		z M52.6,721.5v-0.6c0-0.4,0-0.7-0.1-0.8s-0.1-0.2-0.3-0.2s-0.3,0-0.3,0.1s-0.1,0.4-0.1,0.8v0.6h0.8
		C52.6,721.4,52.6,721.5,52.6,721.5z"/>
	<path d="M61.8,726.5v-6.1H61v3.9c0,0.7-0.1,1.2-0.2,1.5s-0.4,0.5-0.8,0.6s-0.9,0.1-1.7,0.1h-0.4v-1.3c0.3,0,0.5,0,0.6-0.1
		s0.2-0.3,0.2-0.8v-5.6h5.5v7.8L61.8,726.5L61.8,726.5z"/>
	<path d="M69.4,721.7h-2.2v-0.5c0-0.6,0.1-1.1,0.2-1.4s0.4-0.6,0.8-0.9s1-0.4,1.6-0.4c0.8,0,1.4,0.1,1.8,0.4s0.7,0.6,0.7,1
		s0.1,1.3,0.1,2.5v3.9h-2.3v-0.7c-0.1,0.3-0.3,0.5-0.6,0.6c-0.2,0.1-0.5,0.2-0.8,0.2c-0.4,0-0.8-0.1-1.1-0.3s-0.5-0.7-0.5-1.5V724
		c0-0.6,0.1-1,0.3-1.2s0.6-0.5,1.4-0.7c0.8-0.3,1.2-0.5,1.2-0.6s0.1-0.3,0.1-0.6c0-0.4,0-0.7-0.1-0.8s-0.2-0.2-0.3-0.2
		c-0.2,0-0.3,0.1-0.3,0.2s-0.1,0.4-0.1,0.8v0.8H69.4z M70.2,722.8c-0.4,0.3-0.6,0.5-0.7,0.7s-0.1,0.5-0.1,0.8c0,0.4,0,0.7,0.1,0.8
		s0.2,0.2,0.3,0.2c0.1,0,0.2,0,0.3-0.1s0.1-0.3,0.1-0.7C70.2,724.5,70.2,722.8,70.2,722.8z"/>
	<path d="M81.3,726.5h-2.4v-2.9h-0.8v2.9h-2.3v-7.8h2.3v2.8h0.8v-2.8h2.4V726.5z"/>
	<path d="M89.9,721.4v1.9c0,0.7,0,1.2-0.1,1.5s-0.2,0.6-0.5,0.9s-0.5,0.5-0.9,0.6s-0.8,0.2-1.2,0.2c-0.5,0-1-0.1-1.3-0.2
		s-0.6-0.3-0.8-0.5s-0.3-0.5-0.4-0.8s-0.1-0.8-0.1-1.5v-2c0-0.7,0.1-1.3,0.2-1.7s0.4-0.7,0.8-1s0.9-0.4,1.6-0.4c0.5,0,1,0.1,1.4,0.2
		s0.7,0.4,0.9,0.6s0.3,0.5,0.4,0.8S89.9,720.9,89.9,721.4z M87.5,720.9c0-0.4,0-0.6-0.1-0.8s-0.1-0.2-0.3-0.2s-0.2,0.1-0.3,0.2
		s-0.1,0.4-0.1,0.8v3.5c0,0.4,0,0.6,0.1,0.7s0.1,0.2,0.3,0.2c0.1,0,0.2-0.1,0.3-0.2s0.1-0.3,0.1-0.7V720.9z"/>
	<path d="M103.1,724.4c0,0.8-0.2,1.3-0.5,1.6s-1.1,0.4-2.3,0.4h-2.7v-7.8h2.8c1,0,1.6,0.2,2,0.5s0.5,0.9,0.5,1.6
		c0,0.9-0.5,1.4-1.4,1.5c0.5,0.1,0.9,0.3,1.1,0.6s0.4,0.7,0.4,1.1L103.1,724.4L103.1,724.4z M99.9,721.6c0.4,0,0.6,0,0.7-0.1
		s0.1-0.3,0.1-0.5s0-0.4-0.1-0.5s-0.3-0.1-0.6-0.1L99.9,721.6L99.9,721.6z M100.7,724.1v-0.3c0-0.3,0-0.5-0.1-0.6s-0.3-0.1-0.6-0.1
		v1.8c0.3,0,0.5,0,0.6-0.1S100.7,724.4,100.7,724.1z"/>
	<path d="M113.1,718.7v0.7c0.2-0.3,0.4-0.5,0.7-0.6c0.3-0.1,0.5-0.2,0.8-0.2c0.4,0,0.7,0.1,1,0.3s0.4,0.4,0.5,0.7s0.1,0.7,0.1,1.3
		v3.3c0,0.7,0,1.2-0.1,1.5s-0.3,0.5-0.5,0.7s-0.6,0.3-0.9,0.3s-0.6-0.1-0.8-0.2c-0.3-0.1-0.5-0.3-0.7-0.6v1.8h-2.4v-8.9L113.1,718.7
		L113.1,718.7z M113.8,721c0-0.5,0-0.8-0.1-0.9s-0.1-0.2-0.3-0.2c-0.2,0-0.3,0.1-0.3,0.2s-0.1,0.4-0.1,0.8v3.2c0,0.5,0,0.8,0.1,0.9
		s0.1,0.2,0.3,0.2c0.2,0,0.2-0.1,0.3-0.2s0.1-0.4,0.1-0.8V721z"/>
	<path d="M124.7,721.4v1.9c0,0.7,0,1.2-0.1,1.5s-0.2,0.6-0.5,0.9s-0.5,0.5-0.9,0.6s-0.8,0.2-1.2,0.2c-0.5,0-1-0.1-1.3-0.2
		s-0.6-0.3-0.8-0.5s-0.3-0.5-0.4-0.8s-0.1-0.8-0.1-1.5v-2c0-0.7,0.1-1.3,0.2-1.7s0.4-0.7,0.8-1s0.9-0.4,1.6-0.4c0.5,0,1,0.1,1.4,0.2
		s0.7,0.4,0.9,0.6s0.3,0.5,0.4,0.8S124.7,720.9,124.7,721.4z M122.3,720.9c0-0.4,0-0.6-0.1-0.8s-0.1-0.2-0.3-0.2s-0.2,0.1-0.3,0.2
		s-0.1,0.4-0.1,0.8v3.5c0,0.4,0,0.6,0.1,0.7s0.1,0.2,0.3,0.2c0.1,0,0.2-0.1,0.3-0.2s0.1-0.3,0.1-0.7V720.9z"/>
	<path d="M133.1,721.7h-2.2v-0.9c0-0.3,0-0.5-0.1-0.6s-0.1-0.2-0.3-0.2s-0.2,0-0.3,0.1s-0.1,0.3-0.1,0.7v3.7c0,0.3,0,0.5,0.1,0.6
		s0.2,0.2,0.3,0.2c0.2,0,0.3-0.1,0.3-0.2s0.1-0.4,0.1-0.8v-0.9h2.1c0,0.6,0,1.1-0.1,1.4s-0.2,0.6-0.4,1s-0.5,0.6-0.9,0.7
		s-0.8,0.2-1.3,0.2c-0.7,0-1.2-0.1-1.6-0.3s-0.7-0.5-0.8-1s-0.2-1-0.2-1.8v-2.2c0-0.7,0.1-1.2,0.2-1.5c0.1-0.3,0.4-0.6,0.8-0.9
		s1-0.4,1.6-0.4s1.1,0.1,1.6,0.4s0.7,0.6,0.9,1S133.1,720.9,133.1,721.7z"/>
	<path d="M141.4,721.7h-2.2v-0.9c0-0.3,0-0.5-0.1-0.6s-0.1-0.2-0.3-0.2s-0.2,0-0.3,0.1s-0.1,0.3-0.1,0.7v3.7c0,0.3,0,0.5,0.1,0.6
		s0.2,0.2,0.3,0.2c0.2,0,0.3-0.1,0.3-0.2s0.1-0.4,0.1-0.8v-0.9h2.1c0,0.6,0,1.1-0.1,1.4s-0.2,0.6-0.4,1s-0.5,0.6-0.9,0.7
		s-0.8,0.2-1.3,0.2c-0.7,0-1.2-0.1-1.6-0.3s-0.7-0.5-0.8-1s-0.2-1-0.2-1.8v-2.2c0-0.7,0.1-1.2,0.2-1.5s0.4-0.6,0.8-0.9
		s1-0.4,1.6-0.4s1.1,0.1,1.6,0.4s0.7,0.6,0.9,1S141.4,720.9,141.4,721.7z"/>
	<path d="M150.4,726.5h-2.1v-4.2l-1.6,4.2h-2.2v-7.8h2.1v4.2l1.6-4.2h2.2V726.5z"/>
	<path d="M159.5,726.5h-2.1v-4.2l-1.6,4.2h-2.2v-7.8h2.1v4.2l1.6-4.2h2.2V726.5z"/>
</g>
<g class="st6">
	<rect x="331" y="717" class="st7" width="110" height="17"/>
	<path d="M333.8,718.7v0.7c0.2-0.3,0.4-0.5,0.7-0.7c0.3-0.1,0.5-0.2,0.9-0.2c0.6,0,1.1,0.3,1.5,0.9c0.2-0.3,0.4-0.5,0.7-0.7
		c0.3-0.1,0.5-0.2,0.8-0.2c0.4,0,0.7,0.1,1,0.3s0.4,0.4,0.5,0.7s0.1,0.7,0.1,1.4v5.5h-2.3v-5.1c0-0.7,0-1.1-0.1-1.2
		s-0.1-0.2-0.3-0.2c-0.2,0-0.3,0.1-0.3,0.2s-0.1,0.6-0.1,1.2v5.1h-2.3v-4.9c0-0.8,0-1.2-0.1-1.4s-0.1-0.2-0.3-0.2
		c-0.1,0-0.2,0-0.3,0.1s-0.1,0.2-0.1,0.3s0,0.4,0,0.7v5.4h-2.3v-7.8h2.3L333.8,718.7L333.8,718.7z"/>
	<path d="M345.2,721.7H343v-0.5c0-0.6,0.1-1.1,0.2-1.4s0.4-0.6,0.8-0.9s1-0.4,1.6-0.4c0.8,0,1.4,0.1,1.8,0.4s0.7,0.6,0.7,1
		s0.1,1.3,0.1,2.5v3.9H346v-0.7c-0.1,0.3-0.3,0.5-0.6,0.6c-0.2,0.1-0.5,0.2-0.8,0.2c-0.4,0-0.8-0.1-1.1-0.3s-0.5-0.7-0.5-1.5V724
		c0-0.6,0.1-1,0.3-1.2s0.6-0.5,1.4-0.7c0.8-0.3,1.2-0.5,1.2-0.6s0.1-0.3,0.1-0.6c0-0.4,0-0.7-0.1-0.8s-0.2-0.2-0.3-0.2
		c-0.2,0-0.3,0.1-0.3,0.2s-0.1,0.4-0.1,0.8V721.7z M345.9,722.8c-0.4,0.3-0.6,0.5-0.7,0.7s-0.1,0.5-0.1,0.8c0,0.4,0,0.7,0.1,0.8
		s0.2,0.2,0.3,0.2c0.1,0,0.2,0,0.3-0.1s0.1-0.3,0.1-0.7L345.9,722.8L345.9,722.8z"/>
	<path d="M356.9,717v9.5h-2.4v-0.6c-0.2,0.2-0.5,0.4-0.7,0.5c-0.3,0.1-0.5,0.2-0.8,0.2c-0.4,0-0.7-0.1-1-0.3s-0.4-0.4-0.5-0.7
		s-0.1-0.7-0.1-1.2v-3.6c0-0.6,0-1,0.1-1.3s0.3-0.5,0.5-0.7s0.6-0.3,1-0.3c0.3,0,0.6,0.1,0.8,0.2c0.2,0.1,0.5,0.3,0.7,0.5V717H356.9
		z M354.5,720.7c0-0.3,0-0.5-0.1-0.6s-0.1-0.1-0.3-0.1c-0.1,0-0.2,0-0.3,0.1s-0.1,0.3-0.1,0.6v3.8c0,0.3,0,0.5,0.1,0.6
		s0.1,0.1,0.3,0.1c0.2,0,0.3-0.1,0.3-0.2s0.1-0.4,0.1-0.8V720.7z"/>
	<path d="M365.5,722.7h-3.1v1.7c0,0.4,0,0.6,0.1,0.7s0.1,0.2,0.3,0.2c0.2,0,0.3-0.1,0.4-0.2s0.1-0.4,0.1-0.8v-1h2.2v0.6
		c0,0.5,0,0.8-0.1,1.1s-0.2,0.5-0.4,0.8s-0.5,0.5-0.8,0.7s-0.8,0.2-1.3,0.2s-0.9-0.1-1.3-0.2s-0.7-0.3-0.9-0.6s-0.4-0.5-0.4-0.8
		s-0.1-0.7-0.1-1.3v-2.3c0-0.7,0.1-1.2,0.3-1.6s0.5-0.7,0.9-0.9s0.9-0.3,1.4-0.3c0.7,0,1.2,0.1,1.6,0.4s0.7,0.6,0.9,1s0.3,1,0.3,1.8
		v0.8L365.5,722.7L365.5,722.7z M363.1,721.5v-0.6c0-0.4,0-0.7-0.1-0.8s-0.1-0.2-0.3-0.2c-0.2,0-0.3,0-0.3,0.1s-0.1,0.4-0.1,0.8v0.6
		h0.8V721.5z"/>
	<path d="M375.6,717v1.2h-2.4V717H375.6z M375.6,718.7v7.8h-2.4v-7.8H375.6z"/>
	<path d="M381.3,718.7v0.7c0.2-0.3,0.4-0.5,0.6-0.6s0.5-0.2,0.9-0.2s0.7,0.1,1,0.3s0.4,0.4,0.5,0.7s0.1,0.8,0.1,1.5v5.4H382v-5.4
		c0-0.5,0-0.9-0.1-1s-0.1-0.2-0.3-0.2c-0.2,0-0.3,0.1-0.3,0.2s-0.1,0.5-0.1,1.1v5.3h-2.4v-7.8H381.3z"/>
	<path d="M394.5,718.7l-0.1,1c0.3-0.7,0.8-1.1,1.5-1.2v2.7c-0.4,0-0.8,0.1-1,0.2s-0.3,0.3-0.4,0.5s-0.1,0.7-0.1,1.4v3.1H392v-7.8
		L394.5,718.7L394.5,718.7z"/>
	<path d="M404.2,718.7v7.8h-2.4v-0.6c-0.2,0.3-0.4,0.5-0.6,0.6s-0.5,0.2-0.8,0.2c-0.4,0-0.7-0.1-0.9-0.2s-0.4-0.3-0.5-0.5
		s-0.2-0.4-0.2-0.6s0-0.7,0-1.3v-5.2h2.4v5.3c0,0.6,0,1,0.1,1.1s0.1,0.2,0.3,0.2c0.2,0,0.3-0.1,0.3-0.2s0-0.5,0-1.1V719h2.3
		L404.2,718.7L404.2,718.7z"/>
	<path d="M412.3,721.2h-2.1v-0.4c0-0.4,0-0.6-0.1-0.7s-0.1-0.1-0.3-0.1c-0.1,0-0.2,0-0.3,0.1s-0.1,0.2-0.1,0.4s0,0.4,0,0.5
		s0.1,0.2,0.3,0.4s0.5,0.3,1,0.6c0.7,0.3,1.1,0.7,1.4,0.9s0.3,0.7,0.3,1.3s-0.1,1.1-0.2,1.4s-0.4,0.6-0.8,0.7s-0.8,0.3-1.4,0.3
		s-1.1-0.1-1.5-0.3s-0.7-0.4-0.9-0.8s-0.2-0.8-0.2-1.5v-0.4h2.1v0.5c0,0.4,0,0.7,0.1,0.8s0.2,0.2,0.3,0.2c0.2,0,0.3,0,0.4-0.1
		s0.1-0.3,0.1-0.5c0-0.4,0-0.6-0.1-0.7c-0.1-0.1-0.5-0.4-1.4-0.8c-0.7-0.4-1.1-0.7-1.3-1.1s-0.2-0.7-0.2-1.1c0-0.6,0.1-1.1,0.2-1.4
		s0.4-0.5,0.8-0.7s0.8-0.2,1.4-0.2c0.5,0,1,0.1,1.3,0.2s0.6,0.3,0.8,0.5s0.3,0.4,0.4,0.6s0.1,0.5,0.1,0.9L412.3,721.2L412.3,721.2z"
		/>
	<path d="M420.3,721.2h-2.1v-0.4c0-0.4,0-0.6-0.1-0.7s-0.1-0.1-0.3-0.1c-0.1,0-0.2,0-0.3,0.1s-0.1,0.2-0.1,0.4s0,0.4,0,0.5
		s0.1,0.2,0.3,0.4s0.5,0.3,1,0.6c0.7,0.3,1.1,0.7,1.4,0.9s0.3,0.7,0.3,1.3s-0.1,1.1-0.2,1.4s-0.4,0.6-0.8,0.7s-0.8,0.3-1.4,0.3
		s-1.1-0.1-1.5-0.3s-0.7-0.4-0.9-0.8s-0.2-0.8-0.2-1.5v-0.4h2.1v0.5c0,0.4,0,0.7,0.1,0.8s0.2,0.2,0.3,0.2c0.2,0,0.3,0,0.4-0.1
		s0.1-0.3,0.1-0.5c0-0.4,0-0.6-0.1-0.7c-0.1-0.1-0.5-0.4-1.4-0.8c-0.7-0.4-1.1-0.7-1.3-1.1s-0.2-0.7-0.2-1.1c0-0.6,0.1-1.1,0.2-1.4
		s0.4-0.5,0.8-0.7s0.8-0.2,1.4-0.2c0.5,0,1,0.1,1.3,0.2s0.6,0.3,0.8,0.5s0.3,0.4,0.4,0.6s0.1,0.5,0.1,0.9L420.3,721.2L420.3,721.2z"
		/>
	<path d="M426,717v1.2h-2.4V717H426z M426,718.7v7.8h-2.4v-7.8H426z"/>
	<path d="M431.3,721.7h-2.2v-0.5c0-0.6,0.1-1.1,0.2-1.4s0.4-0.6,0.8-0.9s1-0.4,1.6-0.4c0.8,0,1.4,0.1,1.8,0.4s0.7,0.6,0.7,1
		s0.1,1.3,0.1,2.5v3.9H432v-0.7c-0.1,0.3-0.3,0.5-0.6,0.6c-0.2,0.1-0.5,0.2-0.8,0.2c-0.4,0-0.8-0.1-1.1-0.3s-0.5-0.7-0.5-1.5V724
		c0-0.6,0.1-1,0.3-1.2s0.6-0.5,1.4-0.7c0.8-0.3,1.2-0.5,1.2-0.6s0.1-0.3,0.1-0.6c0-0.4,0-0.7-0.1-0.8s-0.2-0.2-0.3-0.2
		c-0.2,0-0.3,0.1-0.3,0.2s-0.1,0.4-0.1,0.8L431.3,721.7L431.3,721.7z M432.1,722.8c-0.4,0.3-0.6,0.5-0.7,0.7s-0.1,0.5-0.1,0.8
		c0,0.4,0,0.7,0.1,0.8s0.2,0.2,0.3,0.2c0.1,0,0.2,0,0.3-0.1s0.1-0.3,0.1-0.7L432.1,722.8L432.1,722.8z"/>
</g>
<g>
	<circle class="st8" cx="349" cy="86" r="75.7"/>
	<g>
		<circle class="st2" cx="349" cy="86" r="11.6"/>
		<circle class="st8" cx="348.8" cy="85.9" r="5.7"/>
	</g>
</g>
<g id="Isolatiemodus_1_">
</g>
<path class="st9" d="M1158.7,912.3H965.3c-5.9,0-10.8-4.8-10.8-10.8V810c0-5.9,4.8-10.8,10.8-10.8h193.5c5.9,0,10.8,4.8,10.8,10.8
	v91.5C1169.4,907.5,1164.7,912.3,1158.7,912.3z"/>
<g class="st10">
	<rect x="975.7" y="812.3" class="st7" width="124.3" height="104"/>
	<path class="st11" d="M1000.8,850.3h-8.3v-16.8l-6.5,16.8h-8.6v-31.1h8.3v16.7l6.5-16.7h8.7L1000.8,850.3L1000.8,850.3z"/>
	<path class="st11" d="M1041.3,856.3h-6.3v-6h-15.9v6h-6.3v-13.4h2c1.2-1.9,2.2-4.7,3-8.7c0.8-4,1.2-8.5,1.2-13.9v-1.1h20.4v23.6h2
		L1041.3,856.3L1041.3,856.3L1041.3,856.3z M1029.8,842.8v-16.6h-2.5v0.3c0,5.8-0.9,11.2-2.8,16.3H1029.8z"/>
	<path class="st11" d="M996,864.2v6.5h-5.4v24.6h-9.4v-24.6h-5.4v-6.5H996z"/>
	<path class="st11" d="M1031.1,895.3h-8.3v-16.8l-6.6,16.8h-8.6v-31.1h8.3v16.7l6.5-16.7h8.7V895.3z"/>
</g>
<g class="st12">
	<g>
		<path d="M1088.6,841.2c9.9,0,19.7,0,29.6,0c0.8,0,0.8,0,0.8-0.9c0-4,0-8,0-12c0-0.1,0-0.1,0-0.2c0-0.2-0.1-0.4,0.1-0.5
			c0.2-0.1,0.3,0.2,0.4,0.3c6.4,6.4,12.9,12.9,19.3,19.3c2.8,2.8,5.6,5.6,8.3,8.3c0.5,0.5,0.5,0.5,0,0.9
			c-9.2,9.2-18.4,18.4-27.6,27.6c-0.1,0.1-0.1,0.1-0.2,0.2c-0.1,0.1-0.1,0.2-0.3,0.1c-0.1-0.1-0.1-0.2-0.1-0.3c0-0.6,0-1.3,0-1.9
			c0-3.5,0-7,0-10.6c0-0.8,0-0.8-0.8-0.8c-19.7,0-39.4,0-59.1,0c-1.1,0-1,0.1-1-1c0-9.3,0-18.5,0-27.8c0-0.2,0-0.3,0-0.5
			c0-0.3,0.1-0.5,0.5-0.5c0.2,0,0.4,0,0.6,0C1068.9,841.2,1078.8,841.2,1088.6,841.2z"/>
	</g>
</g>
<g>
	<rect x="20" y="643.3" class="st2" width="429.1" height="88.3"/>
	<g>
		<polygon class="st14" points="187.5,659.8 140.4,639.9 93.4,659.8 44.4,639.1 48.3,635.7 93.4,654.8 140.4,634.9 187.5,654.8 
			234.5,634.9 281.6,654.8 328.6,634.9 375.7,654.8 420.8,635.7 424.7,639.1 375.7,659.8 328.6,639.9 281.6,659.8 234.5,639.9 		"/>
		<polygon class="st14" points="187.5,672.7 140.4,652.8 93.4,672.7 20,641.6 44.1,621 93.4,641.9 140.4,622 187.5,641.9 234.5,622 
			281.6,641.9 328.6,622 375.7,641.9 425.1,621 449.1,641.7 375.7,672.7 328.6,652.8 281.6,672.7 234.5,652.8 		"/>
	</g>
</g>
<rect x="38.6" y="127.3" transform="matrix(0.9684 0.2495 -0.2495 0.9684 39.0228 -19.8001)" class="st2" width="118" height="33.4"/>
<g id="Isolatiemodus_2_">
	<rect x="6.2" y="672.7" class="st2" width="456.8" height="58.8"/>
</g>
<rect x="34.7" y="713.3" class="st7" width="389" height="45.5"/>
<text transform="matrix(1 0 0 1 34.7 723.5381)" class="st15 st16 st17 st18">MADE IN RUSSIA</text>
</svg>
