<?xml version="1.0" encoding="utf-8"?>
<!-- Generator: Adobe Illustrator 22.0.1, SVG Export Plug-In . SVG Version: 6.00 Build 0)  -->
<svg version="1.1" id="Laag_1" xmlns="http://www.w3.org/2000/svg" xmlns:xlink="http://www.w3.org/1999/xlink" x="0px" y="0px"
	 viewBox="0 0 301.5 434.5" style="enable-background:new 0 0 301.5 434.5;" xml:space="preserve">
<style type="text/css">
	.st0{fill:#333333;}
	.st1{fill:#666666;}
	.st2{fill:#901337;}
	.st3{fill:#070707;}
	.st4{fill:#FFFFFF;}
	.st5{opacity:0.57;}
	.st6{fill:none;}
	.st7{fill:#FFFAFC;}
	.st8{fill:#470C27;}
</style>
<g id="Laag_2_1_">
</g>
<g id="Laag_4">
</g>
<path class="st0" d="M299.6,355l-27-3.5V88.3l27-3.5c1,0,1.8,0.9,1.8,2.1v266C301.5,354.1,300.6,355,299.6,355z"/>
<path class="st1" d="M281,365.6h-4.2V74.2h4c1.5,0,2.7,1.8,2.7,4.1V362C283.4,364,282.3,365.6,281,365.6z"/>
<path class="st2" d="M274.5,434.5H2.3c-1.2,0-2.3-1-2.3-2.3V2.3C0,1,1,0,2.3,0h272.2c1.2,0,2.3,1,2.3,2.3v430
	C276.7,433.5,275.7,434.5,274.5,434.5z"/>
<rect x="20.4" y="120.5" class="st3" width="235.9" height="261.3"/>
<g>
	<rect x="11.8" y="6.1" class="st2" width="252.7" height="115.9"/>
	<g>
		<polygon class="st3" points="110.4,111.9 82.7,123.6 55,111.9 26.1,124.1 28.4,126.1 55,114.9 82.7,126.6 110.4,114.9 
			138.1,126.6 165.8,114.9 193.5,126.6 221.2,114.9 247.8,126.1 250.1,124.1 221.2,111.9 193.5,123.6 165.8,111.9 138.1,123.6 		"/>
		<polygon class="st3" points="110.4,104.3 82.7,116.1 55,104.3 11.8,122.6 26,134.7 55,122.4 82.7,134.2 110.4,122.4 138.1,134.2 
			165.8,122.4 193.5,134.2 221.2,122.4 250.3,134.7 264.4,122.6 221.2,104.3 193.5,116.1 165.8,104.3 138.1,116.1 		"/>
	</g>
</g>
<g>
	<circle class="st4" cx="68.9" cy="57.7" r="23"/>
	<circle class="st2" cx="68.9" cy="57.7" r="3.5"/>
</g>
<g class="st5">
	<rect x="18.3" y="422.2" class="st6" width="90.7" height="10"/>
	<path d="M21.6,424.9h-1.3v-0.5c0-0.2,0-0.3-0.1-0.4c-0.1-0.1-0.1-0.1-0.2-0.1s-0.1,0-0.2,0.1c-0.1,0.1-0.1,0.2-0.1,0.4v2.2
		c0,0.2,0,0.3,0.1,0.4c0.1,0.1,0.1,0.1,0.2,0.1c0.1,0,0.2-0.1,0.2-0.1s0.1-0.2,0.1-0.5v-0.5h1.2c0,0.4,0,0.6-0.1,0.8
		c-0.1,0.2-0.1,0.4-0.2,0.6c-0.1,0.2-0.3,0.4-0.5,0.4c-0.2,0.1-0.5,0.1-0.8,0.1c-0.4,0-0.7-0.1-0.9-0.2s-0.4-0.3-0.5-0.6
		c-0.1-0.3-0.1-0.6-0.1-1.1v-1.3c0-0.4,0.1-0.7,0.1-0.9s0.2-0.4,0.5-0.5c0.2-0.2,0.6-0.2,0.9-0.2s0.6,0.1,0.9,0.2
		c0.3,0.2,0.4,0.4,0.5,0.6S21.6,424.5,21.6,424.9z"/>
	<path d="M27.4,428.6h-0.9v-0.9h-2.4v0.9h-0.9v-2h0.4c0.2-0.3,0.3-0.7,0.4-1.3c0.1-0.6,0.2-1.2,0.2-2.1v-0.2h3v3.5h0.3V428.6z
		 M25.8,426.6v-2.5h-0.4v0.1c0,0.8-0.1,1.6-0.4,2.4L25.8,426.6L25.8,426.6z"/>
	<path d="M32.4,425.5h-1.8v1c0,0.2,0,0.4,0.1,0.4c0.1,0.1,0.1,0.1,0.2,0.1s0.2-0.1,0.2-0.1c0.1-0.1,0.1-0.2,0.1-0.5v-0.6h1.3v0.4
		c0,0.3,0,0.5-0.1,0.6c-0.1,0.2-0.1,0.3-0.2,0.5c-0.1,0.2-0.3,0.3-0.5,0.4c-0.2,0.1-0.5,0.1-0.8,0.1c-0.3,0-0.5-0.1-0.8-0.1
		s-0.4-0.2-0.5-0.4s-0.2-0.3-0.2-0.5s-0.1-0.4-0.1-0.8v-1.4c0-0.4,0.1-0.7,0.2-0.9s0.3-0.4,0.5-0.5c0.2-0.1,0.5-0.2,0.8-0.2
		c0.4,0,0.7,0.1,0.9,0.2s0.4,0.4,0.5,0.6s0.2,0.6,0.2,1.1L32.4,425.5L32.4,425.5L32.4,425.5z M31,424.8v-0.4c0-0.2,0-0.4-0.1-0.5
		c-0.1-0.1-0.1-0.1-0.2-0.1c-0.1,0-0.2,0-0.2,0.1s-0.1,0.2-0.1,0.5v0.4L31,424.8C31,424.8,31,424.8,31,424.8z"/>
	<path d="M36.4,427.8v-3.6h-0.5v2.3c0,0.4-0.1,0.7-0.1,0.9c-0.1,0.2-0.2,0.3-0.5,0.4c-0.2,0.1-0.5,0.1-1,0.1h-0.2V427
		c0.2,0,0.3,0,0.4-0.1c0.1-0.1,0.1-0.2,0.1-0.5v-3.3h3.2v4.6L36.4,427.8L36.4,427.8z"/>
	<path d="M40.9,424.9h-1.3v-0.3c0-0.4,0.1-0.6,0.1-0.8c0.1-0.2,0.2-0.4,0.5-0.5s0.6-0.2,0.9-0.2c0.5,0,0.8,0.1,1.1,0.2
		s0.4,0.4,0.4,0.6s0.1,0.8,0.1,1.5v2.3h-1.4v-0.4c-0.1,0.2-0.2,0.3-0.4,0.4c-0.1,0.1-0.3,0.1-0.5,0.1c-0.2,0-0.5-0.1-0.6-0.2
		s-0.3-0.4-0.3-0.9v-0.4c0-0.4,0.1-0.6,0.2-0.7c0.1-0.1,0.4-0.3,0.8-0.4c0.5-0.2,0.7-0.3,0.7-0.4s0.1-0.2,0.1-0.4
		c0-0.2,0-0.4-0.1-0.5c-0.1-0.1-0.1-0.1-0.2-0.1c-0.1,0-0.2,0.1-0.2,0.1s-0.1,0.2-0.1,0.5L40.9,424.9L40.9,424.9z M41.3,425.6
		c-0.2,0.2-0.4,0.3-0.4,0.4s-0.1,0.3-0.1,0.5c0,0.2,0,0.4,0.1,0.5s0.1,0.1,0.2,0.1c0.1,0,0.1,0,0.2-0.1s0.1-0.2,0.1-0.4
		C41.3,426.6,41.3,425.6,41.3,425.6z"/>
	<path d="M47.9,427.8h-1.4v-1.7H46v1.7h-1.4v-4.6H46v1.6h0.5v-1.6h1.4V427.8z"/>
	<path d="M52.9,424.8v1.1c0,0.4,0,0.7-0.1,0.9c-0.1,0.2-0.1,0.4-0.3,0.5c-0.2,0.2-0.3,0.3-0.5,0.4s-0.5,0.1-0.7,0.1
		c-0.3,0-0.6-0.1-0.8-0.1c-0.2-0.1-0.4-0.2-0.5-0.3s-0.2-0.3-0.2-0.5c-0.1-0.2-0.1-0.5-0.1-0.9v-1.2c0-0.4,0.1-0.8,0.1-1
		c0.1-0.2,0.2-0.4,0.5-0.6s0.5-0.2,0.9-0.2c0.3,0,0.6,0.1,0.8,0.1s0.4,0.2,0.5,0.4c0.1,0.1,0.2,0.3,0.2,0.5S52.9,424.5,52.9,424.8z
		 M51.5,424.5c0-0.2,0-0.4-0.1-0.5c-0.1-0.1-0.1-0.1-0.2-0.1c-0.1,0-0.1,0.1-0.2,0.1s-0.1,0.2-0.1,0.5v2.1c0,0.2,0,0.4,0.1,0.4
		s0.1,0.1,0.2,0.1c0.1,0,0.1-0.1,0.2-0.1s0.1-0.2,0.1-0.4V424.5z"/>
	<path d="M60.7,426.5c0,0.5-0.1,0.8-0.3,0.9c-0.2,0.2-0.6,0.2-1.4,0.2h-1.6v-4.6h1.6c0.6,0,0.9,0.1,1.2,0.3s0.3,0.5,0.3,0.9
		c0,0.5-0.3,0.8-0.8,0.9c0.3,0.1,0.5,0.2,0.6,0.4c0.1,0.2,0.2,0.4,0.2,0.6L60.7,426.5L60.7,426.5z M58.8,424.9c0.2,0,0.4,0,0.4-0.1
		s0.1-0.2,0.1-0.3s0-0.2-0.1-0.3c-0.1-0.1-0.2-0.1-0.4-0.1L58.8,424.9L58.8,424.9z M59.3,426.3v-0.2c0-0.2,0-0.3-0.1-0.4
		s-0.2-0.1-0.4-0.1v1.1c0.2,0,0.3,0,0.4-0.1C59.3,426.7,59.3,426.5,59.3,426.3z"/>
	<path d="M66.6,423.2v0.4c0.1-0.2,0.2-0.3,0.4-0.4c0.2-0.1,0.3-0.1,0.5-0.1c0.2,0,0.4,0.1,0.6,0.2c0.2,0.1,0.2,0.2,0.3,0.4
		c0.1,0.2,0.1,0.4,0.1,0.8v1.9c0,0.4,0,0.7-0.1,0.9c-0.1,0.2-0.2,0.3-0.3,0.4c-0.1,0.1-0.4,0.2-0.5,0.2s-0.4-0.1-0.5-0.1
		c-0.2-0.1-0.3-0.2-0.4-0.4v1.1h-1.4v-5.2L66.6,423.2L66.6,423.2z M67,424.5c0-0.3,0-0.5-0.1-0.5c-0.1-0.1-0.1-0.1-0.2-0.1
		s-0.2,0.1-0.2,0.1c0,0.1-0.1,0.2-0.1,0.5v1.9c0,0.3,0,0.5,0.1,0.5c0.1,0.1,0.1,0.1,0.2,0.1s0.1-0.1,0.2-0.1s0.1-0.2,0.1-0.5V424.5z
		"/>
	<path d="M73.4,424.8v1.1c0,0.4,0,0.7-0.1,0.9c-0.1,0.2-0.1,0.4-0.3,0.5c-0.2,0.2-0.3,0.3-0.5,0.4s-0.5,0.1-0.7,0.1
		c-0.3,0-0.6-0.1-0.8-0.1s-0.4-0.2-0.5-0.3c-0.1-0.1-0.2-0.3-0.2-0.5c-0.1-0.2-0.1-0.5-0.1-0.9v-1.2c0-0.4,0.1-0.8,0.1-1
		s0.2-0.4,0.5-0.6s0.5-0.2,0.9-0.2c0.3,0,0.6,0.1,0.8,0.1s0.4,0.2,0.5,0.4c0.1,0.1,0.2,0.3,0.2,0.5
		C73.5,424.1,73.4,424.5,73.4,424.8z M72,424.5c0-0.2,0-0.4-0.1-0.5c-0.1-0.1-0.1-0.1-0.2-0.1s-0.1,0.1-0.2,0.1s-0.1,0.2-0.1,0.5
		v2.1c0,0.2,0,0.4,0.1,0.4c0.1,0.1,0.1,0.1,0.2,0.1c0.1,0,0.1-0.1,0.2-0.1s0.1-0.2,0.1-0.4V424.5z"/>
	<path d="M78.4,424.9h-1.3v-0.5c0-0.2,0-0.3-0.1-0.4s-0.1-0.1-0.2-0.1c-0.1,0-0.1,0-0.2,0.1c-0.1,0.1-0.1,0.2-0.1,0.4v2.2
		c0,0.2,0,0.3,0.1,0.4s0.1,0.1,0.2,0.1c0.1,0,0.2-0.1,0.2-0.1s0.1-0.2,0.1-0.5v-0.5h1.2c0,0.4,0,0.6-0.1,0.8s-0.1,0.4-0.2,0.6
		c-0.1,0.2-0.3,0.4-0.5,0.4c-0.2,0.1-0.5,0.1-0.8,0.1c-0.4,0-0.7-0.1-0.9-0.2s-0.4-0.3-0.5-0.6s-0.1-0.6-0.1-1.1v-1.3
		c0-0.4,0.1-0.7,0.1-0.9s0.2-0.4,0.5-0.5s0.6-0.2,0.9-0.2c0.4,0,0.6,0.1,0.9,0.2c0.3,0.2,0.4,0.4,0.5,0.6
		C78.3,424.2,78.4,424.5,78.4,424.9z"/>
	<path d="M83.3,424.9H82v-0.5c0-0.2,0-0.3-0.1-0.4s-0.1-0.1-0.2-0.1s-0.1,0-0.2,0.1c-0.1,0.1-0.1,0.2-0.1,0.4v2.2
		c0,0.2,0,0.3,0.1,0.4s0.1,0.1,0.2,0.1c0.1,0,0.2-0.1,0.2-0.1s0.1-0.2,0.1-0.5v-0.5h1.2c0,0.4,0,0.6-0.1,0.8s-0.1,0.4-0.2,0.6
		s-0.3,0.4-0.5,0.4c-0.2,0.1-0.5,0.1-0.8,0.1c-0.4,0-0.7-0.1-0.9-0.2c-0.2-0.1-0.4-0.3-0.5-0.6s-0.1-0.6-0.1-1.1v-1.3
		c0-0.4,0.1-0.7,0.1-0.9s0.2-0.4,0.5-0.5c0.2-0.2,0.6-0.2,0.9-0.2c0.4,0,0.6,0.1,0.9,0.2c0.3,0.2,0.4,0.4,0.5,0.6
		C83.2,424.2,83.3,424.5,83.3,424.9z"/>
	<path d="M88.6,427.8h-1.2v-2.5l-0.9,2.5h-1.3v-4.6h1.2v2.5l0.9-2.5h1.3V427.8z"/>
	<path d="M93.9,427.8h-1.2v-2.5l-0.9,2.5h-1.3v-4.6h1.2v2.5l0.9-2.5h1.3V427.8z"/>
</g>
<g class="st5">
	<rect x="194.9" y="422.2" class="st6" width="64.8" height="10"/>
	<path d="M196.5,423.2v0.4c0.1-0.2,0.2-0.3,0.4-0.4c0.2-0.1,0.3-0.1,0.5-0.1c0.4,0,0.6,0.2,0.9,0.5c0.1-0.2,0.2-0.3,0.4-0.4
		c0.2-0.1,0.3-0.1,0.5-0.1c0.2,0,0.4,0.1,0.6,0.2c0.2,0.1,0.2,0.2,0.3,0.4s0.1,0.4,0.1,0.8v3.2h-1.4v-3c0-0.4,0-0.6-0.1-0.7
		s-0.1-0.1-0.2-0.1c-0.1,0-0.2,0.1-0.2,0.1s-0.1,0.4-0.1,0.7v3H197v-2.9c0-0.5,0-0.7-0.1-0.8s-0.1-0.1-0.2-0.1c-0.1,0-0.1,0-0.2,0.1
		c-0.1,0.1-0.1,0.1-0.1,0.2s0,0.2,0,0.4v3.2h-1.4v-4.6L196.5,423.2L196.5,423.2L196.5,423.2z"/>
	<path d="M203.3,424.9H202v-0.3c0-0.4,0.1-0.6,0.1-0.8s0.2-0.4,0.5-0.5s0.6-0.2,0.9-0.2c0.5,0,0.8,0.1,1.1,0.2s0.4,0.4,0.4,0.6
		s0.1,0.8,0.1,1.5v2.3h-1.3v-0.4c-0.1,0.2-0.2,0.3-0.4,0.4c-0.1,0.1-0.3,0.1-0.5,0.1c-0.2,0-0.5-0.1-0.6-0.2s-0.3-0.4-0.3-0.9v-0.4
		c0-0.4,0.1-0.6,0.2-0.7s0.4-0.3,0.8-0.4c0.5-0.2,0.7-0.3,0.7-0.4s0.1-0.2,0.1-0.4c0-0.2,0-0.4-0.1-0.5s-0.1-0.1-0.2-0.1
		c-0.1,0-0.2,0.1-0.2,0.1s-0.1,0.2-0.1,0.5V424.9z M203.7,425.6c-0.2,0.2-0.4,0.3-0.4,0.4s-0.1,0.3-0.1,0.5c0,0.2,0,0.4,0.1,0.5
		s0.1,0.1,0.2,0.1c0.1,0,0.1,0,0.2-0.1c0.1-0.1,0.1-0.2,0.1-0.4L203.7,425.6L203.7,425.6z"/>
	<path d="M210.1,422.2v5.6h-1.4v-0.4c-0.1,0.1-0.3,0.2-0.4,0.3c-0.2,0.1-0.3,0.1-0.5,0.1c-0.2,0-0.4-0.1-0.6-0.2
		c-0.2-0.1-0.2-0.2-0.3-0.4s-0.1-0.4-0.1-0.7v-2.1c0-0.4,0-0.6,0.1-0.8s0.2-0.3,0.3-0.4s0.4-0.2,0.6-0.2c0.2,0,0.4,0.1,0.5,0.1
		c0.1,0.1,0.3,0.2,0.4,0.3v-1.3H210.1z M208.7,424.3c0-0.2,0-0.3-0.1-0.4s-0.1-0.1-0.2-0.1c-0.1,0-0.1,0-0.2,0.1
		c-0.1,0.1-0.1,0.2-0.1,0.4v2.2c0,0.2,0,0.3,0.1,0.4s0.1,0.1,0.2,0.1c0.1,0,0.2-0.1,0.2-0.1s0.1-0.2,0.1-0.5V424.3z"/>
	<path d="M215.2,425.5h-1.8v1c0,0.2,0,0.4,0.1,0.4s0.1,0.1,0.2,0.1c0.1,0,0.2-0.1,0.2-0.1s0.1-0.2,0.1-0.5v-0.6h1.3v0.4
		c0,0.3,0,0.5-0.1,0.6c-0.1,0.2-0.1,0.3-0.2,0.5s-0.3,0.3-0.5,0.4c-0.2,0.1-0.5,0.1-0.8,0.1s-0.5-0.1-0.8-0.1s-0.4-0.2-0.5-0.4
		c-0.1-0.2-0.2-0.3-0.2-0.5s-0.1-0.4-0.1-0.8v-1.4c0-0.4,0.1-0.7,0.2-0.9c0.1-0.2,0.3-0.4,0.5-0.5s0.5-0.2,0.8-0.2
		c0.4,0,0.7,0.1,0.9,0.2c0.2,0.2,0.4,0.4,0.5,0.6c0.1,0.2,0.2,0.6,0.2,1.1L215.2,425.5L215.2,425.5L215.2,425.5z M213.8,424.8v-0.4
		c0-0.2,0-0.4-0.1-0.5s-0.1-0.1-0.2-0.1c-0.1,0-0.2,0-0.2,0.1s-0.1,0.2-0.1,0.5v0.4L213.8,424.8L213.8,424.8z"/>
	<path d="M221.2,422.2v0.7h-1.4v-0.7H221.2z M221.2,423.2v4.6h-1.4v-4.6H221.2z"/>
	<path d="M224.5,423.2v0.4c0.1-0.2,0.2-0.3,0.4-0.4s0.3-0.1,0.5-0.1c0.2,0,0.4,0.1,0.6,0.2s0.2,0.2,0.3,0.4s0.1,0.5,0.1,0.9v3.2
		h-1.4v-3.2c0-0.3,0-0.5-0.1-0.6s-0.1-0.1-0.2-0.1c-0.1,0-0.2,0.1-0.2,0.1s-0.1,0.3-0.1,0.6v3.1H223v-4.6H224.5z"/>
	<path d="M232.3,423.2l-0.1,0.6c0.2-0.4,0.5-0.6,0.9-0.7v1.6c-0.2,0-0.5,0.1-0.6,0.1c-0.1,0.1-0.2,0.2-0.2,0.3s-0.1,0.4-0.1,0.8v1.8
		h-1.4v-4.6L232.3,423.2L232.3,423.2z"/>
	<path d="M238,423.2v4.6h-1.4v-0.4c-0.1,0.2-0.2,0.3-0.4,0.4s-0.3,0.1-0.5,0.1c-0.2,0-0.4-0.1-0.5-0.1s-0.2-0.2-0.3-0.3
		s-0.1-0.2-0.1-0.4s0-0.4,0-0.8v-3.1h1.4v3.1c0,0.4,0,0.6,0.1,0.6s0.1,0.1,0.2,0.1c0.1,0,0.2-0.1,0.2-0.1s0-0.3,0-0.6v-3.1h1.4
		L238,423.2L238,423.2z"/>
	<path d="M242.8,424.6h-1.2v-0.2c0-0.2,0-0.4-0.1-0.4c-0.1-0.1-0.1-0.1-0.2-0.1c-0.1,0-0.1,0-0.2,0.1c-0.1,0.1-0.1,0.1-0.1,0.2
		c0,0.1,0,0.2,0,0.3s0.1,0.1,0.2,0.2s0.3,0.2,0.6,0.4c0.4,0.2,0.6,0.4,0.8,0.5c0.2,0.1,0.2,0.4,0.2,0.8c0,0.4-0.1,0.6-0.1,0.8
		s-0.2,0.4-0.5,0.4s-0.5,0.2-0.8,0.2c-0.4,0-0.6-0.1-0.9-0.2c-0.2-0.1-0.4-0.2-0.5-0.5s-0.1-0.5-0.1-0.9v-0.2h1.2v0.3
		c0,0.2,0,0.4,0.1,0.5s0.1,0.1,0.2,0.1c0.1,0,0.2,0,0.2-0.1s0.1-0.2,0.1-0.3c0-0.2,0-0.4-0.1-0.4c-0.1-0.1-0.3-0.2-0.8-0.5
		c-0.4-0.2-0.6-0.4-0.8-0.6c-0.1-0.2-0.1-0.4-0.1-0.6c0-0.4,0.1-0.6,0.1-0.8s0.2-0.3,0.5-0.4c0.2-0.1,0.5-0.1,0.8-0.1
		c0.3,0,0.6,0.1,0.8,0.1s0.4,0.2,0.5,0.3c0.1,0.1,0.2,0.2,0.2,0.4s0.1,0.3,0.1,0.5L242.8,424.6L242.8,424.6z"/>
	<path d="M247.5,424.6h-1.2v-0.2c0-0.2,0-0.4-0.1-0.4c-0.1-0.1-0.1-0.1-0.2-0.1c-0.1,0-0.1,0-0.2,0.1c-0.1,0.1-0.1,0.1-0.1,0.2
		c0,0.1,0,0.2,0,0.3s0.1,0.1,0.2,0.2c0.1,0.1,0.3,0.2,0.6,0.4c0.4,0.2,0.6,0.4,0.8,0.5s0.2,0.4,0.2,0.8c0,0.4-0.1,0.6-0.1,0.8
		s-0.2,0.4-0.5,0.4c-0.2,0.1-0.5,0.2-0.8,0.2s-0.6-0.1-0.9-0.2s-0.4-0.2-0.5-0.5c-0.1-0.2-0.1-0.5-0.1-0.9v-0.2h1.2v0.3
		c0,0.2,0,0.4,0.1,0.5s0.1,0.1,0.2,0.1c0.1,0,0.2,0,0.2-0.1s0.1-0.2,0.1-0.3c0-0.2,0-0.4-0.1-0.4c-0.1-0.1-0.3-0.2-0.8-0.5
		c-0.4-0.2-0.6-0.4-0.8-0.6c-0.1-0.2-0.1-0.4-0.1-0.6c0-0.4,0.1-0.6,0.1-0.8c0.1-0.2,0.2-0.3,0.5-0.4s0.5-0.1,0.8-0.1
		c0.3,0,0.6,0.1,0.8,0.1c0.2,0.1,0.4,0.2,0.5,0.3s0.2,0.2,0.2,0.4c0.1,0.1,0.1,0.3,0.1,0.5L247.5,424.6L247.5,424.6z"/>
	<path d="M250.8,422.2v0.7h-1.4v-0.7H250.8z M250.8,423.2v4.6h-1.4v-4.6H250.8z"/>
	<path d="M253.9,424.9h-1.3v-0.3c0-0.4,0.1-0.6,0.1-0.8s0.2-0.4,0.5-0.5s0.6-0.2,0.9-0.2c0.5,0,0.8,0.1,1.1,0.2s0.4,0.4,0.4,0.6
		s0.1,0.8,0.1,1.5v2.3h-1.4v-0.4c-0.1,0.2-0.2,0.3-0.4,0.4c-0.1,0.1-0.3,0.1-0.5,0.1c-0.2,0-0.5-0.1-0.6-0.2s-0.3-0.4-0.3-0.9v-0.4
		c0-0.4,0.1-0.6,0.2-0.7c0.1-0.1,0.4-0.3,0.8-0.4c0.5-0.2,0.7-0.3,0.7-0.4s0.1-0.2,0.1-0.4c0-0.2,0-0.4-0.1-0.5s-0.1-0.1-0.2-0.1
		c-0.1,0-0.2,0.1-0.2,0.1s-0.1,0.2-0.1,0.5L253.9,424.9L253.9,424.9z M254.4,425.6c-0.2,0.2-0.4,0.3-0.4,0.4
		c-0.1,0.1-0.1,0.3-0.1,0.5c0,0.2,0,0.4,0.1,0.5c0.1,0.1,0.1,0.1,0.2,0.1c0.1,0,0.1,0,0.2-0.1s0.1-0.2,0.1-0.4L254.4,425.6
		L254.4,425.6z"/>
</g>
<g>
	<circle class="st7" cx="205.5" cy="50.6" r="44.6"/>
	<g>
		<circle class="st2" cx="205.5" cy="50.6" r="6.9"/>
		<circle class="st7" cx="205.4" cy="50.6" r="3.4"/>
	</g>
</g>
<g id="Isolatiemodus_1_">
</g>
<g>
	<rect x="11.8" y="378.7" class="st2" width="252.7" height="52"/>
	<g>
		<polygon class="st3" points="110.4,388.5 82.7,376.8 55,388.5 26.1,376.3 28.4,374.3 55,385.5 82.7,373.8 110.4,385.5 
			138.1,373.8 165.8,385.5 193.5,373.8 221.2,385.5 247.8,374.3 250.1,376.3 221.2,388.5 193.5,376.8 165.8,388.5 138.1,376.8 		"/>
		<polygon class="st3" points="110.4,396.1 82.7,384.4 55,396.1 11.8,377.8 26,365.6 55,377.9 82.7,366.2 110.4,377.9 138.1,366.2 
			165.8,377.9 193.5,366.2 221.2,377.9 250.3,365.6 264.4,377.8 221.2,396.1 193.5,384.4 165.8,396.1 138.1,384.4 		"/>
	</g>
</g>
<rect x="22.7" y="75" transform="matrix(0.9684 0.2495 -0.2495 0.9684 22.9765 -11.6582)" class="st2" width="69.5" height="19.6"/>
<g id="Isolatiemodus_2_">
	<rect x="3.7" y="396.1" class="st2" width="269" height="34.6"/>
</g>
<g>
	<rect x="20.4" y="420" class="st6" width="229" height="10.7"/>
	<path class="st8" d="M20.5,420h0.9l1.6,1.5l1.5-1.5h0.9v6.1H24v-3.2l-0.9,0.9h-0.3l-0.9-0.9v3.2h-1.4V420z"/>
	<path class="st8" d="M27,420h4.9v6.1h-1.4v-1.2h-2.1v1.2H27V420z M28.4,421.4v2.1h2.1v-2.1H28.4z"/>
	<path class="st8" d="M33.6,420h3.8l1.1,1.1v3.8l-1.1,1.1h-3.8V420z M35,421.4v3.3h2.1v-3.3H35z"/>
	<path class="st8" d="M40.1,420H45v1.4h-3.5v0.9h2.3v1.4h-2.3l0,0.9H45v1.4h-4.9V420z"/>
	<path class="st8" d="M49.1,420h1.4v6.1h-1.4V420z"/>
	<path class="st8" d="M52.2,420h1.4v0.6l2.1,2.1V420h1.4v6.1h-1.4v-1.2l-2.1-2.1v3.3h-1.4V420z"/>
	<path class="st8" d="M61.1,420H66v3.7h-1.5l1.5,1.5v0.8h-1.4l-2.1-2.1v2.1h-1.4V420z M62.5,421.4v0.9h2.1v-0.9H62.5z"/>
	<path class="st8" d="M67.7,420h1.4l0,4.7h2.1V420h1.4v6.1h-4.9V420z"/>
	<path class="st8" d="M74.2,420h4.9l0,1.4h-3.5v0.9h3.5v3.7h-4.9v-1.4l3.5,0v-0.9h-3.5V420z"/>
	<path class="st8" d="M80.7,420h4.9l0,1.4h-3.5v0.9h3.5v3.7h-4.9v-1.4l3.5,0v-0.9h-3.5V420z"/>
	<path class="st8" d="M87.3,420h1.4v6.1h-1.4V420z"/>
	<path class="st8" d="M90.4,420h4.9v6.1h-1.4v-1.2h-2.1v1.2h-1.4V420z M91.8,421.4v2.1h2.1v-2.1H91.8z"/>
</g>
</svg>
