<svg xmlns="http://www.w3.org/2000/svg" viewBox="0 0 641.84 68.6"><defs><style>.cls-1{fill:#fff;}</style></defs><title>Middel 2</title><g id="Laag_2" data-name="Laag 2"><g id="Laag_1-2" data-name="Laag 1"><path class="cls-1" d="M614.12,68.56c-6.23,0-12.45-.06-18.67,0-1.81,0-2.45-.65-2.34-2.36a29.36,29.36,0,0,0,0-3.25c0-.46-.09-1.25-.3-1.31-2.14-.6-1.68-2.32-1.71-3.8,0-1.32-.8-1.64-1.87-1.49-2.13.3-2.78-.72-2.61-2.67a28,28,0,0,0,0-3c0-.47.06-1.16-.39-1.29-2.18-.63-1.6-2.38-1.61-3.82q0-15.22,0-30.45c0-2.87,0-2.87,2.77-2.89,3.85,0,3.73.53,3.72-3.72,0-2,.06-4.06,0-6.09C591,.75,591.51,0,593.37,0c11.77.07,23.54.05,35.32,0,1.58,0,2.31.54,2.15,2.1-.2,2,.32,3.18,2.63,2.82,1.3-.2,1.85.5,1.84,1.76s0,2.3,0,3.45c0,1,0,1.8,1.24,2.21s.8,1.62.76,2.5c-.06,1.6.42,2.5,2.18,2.25s2.34.62,2.33,2.32q-.06,17.27,0,34.51c0,1.79-.51,2.52-2.44,2.48-4.34-.08-4.08-.75-4.08,4.13,0,1.9-.07,3.79,0,5.69.08,1.71-.52,2.38-2.33,2.36C626.71,68.5,620.41,68.56,614.12,68.56Zm.17-2.72c5.21,0,10.42-.06,15.63,0,1.71,0,2.29-.59,2.21-2.24-.09-2,0-3.92,0-5.89,0-4.91,0-4.11,4-4,2,0,2.54-.64,2.52-2.56-.08-9.61,0-19.22,0-28.83a11,11,0,0,0-.08-1.62.84.84,0,0,0-.46-.57c-.42-.12-.6.25-.63.59-.06.6-.08,1.21-.08,1.82V44.05c0,4.78,0,4.82-4.7,5-1.32.05-1.82.55-1.8,1.82,0,2.44,0,4.88,0,7.31,0,3.07,0,3.08-3,3.08-9.81,0-19.62,0-29.43,0-1.84,0-2.12.82-2.13,2.35s.34,2.35,2.15,2.32C603.73,65.77,609,65.84,614.29,65.84Zm-19.3-4h-.52c0,1.25.06,2.5,0,3.75s.4,1.92,1.85,1.92q18-.08,35.92,0c1.35,0,1.8-.52,1.76-1.8-.06-1.9,0-3.79,0-5.69,0-4.59,0-4.65,4.55-4.68,1.52,0,2-.53,2-2,0-11,0-22.06,0-33.08,0-2.12-.38-2.34-2.6-1.5,2.06-.39,2.1.84,2.1,2.2q0,14.5,0,29c0,4.65,0,4.7-4.66,4.78-1.44,0-1.89.54-1.86,1.92.07,2.78,0,5.55,0,8.32,0,1.31-.34,2-1.82,2q-17.46-.06-34.91,0c-1.34,0-1.81-.56-1.76-1.83C595,64,595,62.91,595,61.81ZM599.61,27h0c0-2.7,0-5.41,0-8.12,0-1.25.51-1.83,1.83-1.8,2.51.06,5,0,7.51,0,1.66,0,1.64-1.05,1.61-2.18s.27-2.43-1.57-2.41c-3,0-6.1,0-9.14,0A1.29,1.29,0,0,0,598.38,14c0,7,0,14.07,0,21.11,0,.48-.12,1.25.69,1.19.6,0,.52-.72.52-1.16C599.62,32.43,599.61,29.72,599.61,27Zm11.75,15.91c0,1.28,0,2.57,0,3.85,0,.62-.28,1.67.59,1.68s.53-1,.64-1.64c0-.2,0-.4,0-.61,0-4.56,0-4.61,4.58-4.7,1.39,0,1.95-.5,1.92-1.9,0-2.7,0-5.41,0-8.11-.05-1.65.57-2.43,2.25-2.2,1.88.26,2.24-.7,2.28-2.37,0-1.86-.73-2.43-2.43-2.23a5.44,5.44,0,0,1-1.21,0c-1.58-.19-2.2.48-2.15,2.07.07,2.71,0,5.41,0,8.12,0,1.09-.16,1.94-1.62,2s-3.56-.84-4.57.61c-.88,1.28-.21,3.16-.3,4.78C611.35,42.51,611.36,42.71,611.36,42.92Zm12.22-2.46c0-2.24,0-4.47,0-6.7,0-.55.21-1.48-.63-1.44s-.58.94-.59,1.51c0,2,0,3.92,0,5.88,0,4.38,0,4.42-4.42,4.46-1.43,0-2.1.41-2.1,1.95,0,2.46.12,2.65,2.57,2.66,1,0,2-.08,3,0,1.75.18,2.25-.65,2.18-2.26C623.51,44.52,623.58,42.49,623.58,40.46ZM602.84,28.33v6.5a2.67,2.67,0,0,0,0,.4c0,.46,0,1.1.62,1.1s.59-.65.59-1.11c0-2,0-3.93,0-5.89,0-4.74,0-4.74,4.6-4.92h.41c1.71,0,1.47-1.24,1.47-2.29s.23-2.31-1.48-2.29c-1.49,0-3,.05-4.47,0-1.33-.06-1.82.54-1.79,1.81C602.86,23.86,602.84,26.1,602.84,28.33Zm11.3,20.21a4.43,4.43,0,0,0,.31-.68c.2-1.45-.6-3.27.43-4.31s3-.38,4.49-.42c1.26,0,1.64-.58,1.62-1.74,0-2.64,0-5.28,0-7.91,0-1.44-.17-2.94,2.19-2.77-2.64-.42-2.68-.4-2.69,1.89,0,2.64-.05,5.27,0,7.91,0,1.41-.38,2.06-1.94,2.09-4.73.1-4.73.16-4.56,5A7,7,0,0,0,614.14,48.54ZM609.9,18.73v-.52c-2.28,0-4.57.07-6.85,0-1.58-.07-2.14.47-2.11,2.07.08,4.59,0,9.18,0,13.76v2.05a1.1,1.1,0,0,0,.51-1c0-4.72.06-9.44,0-14.16,0-1.68.56-2.29,2.23-2.2C605.75,18.81,607.83,18.73,609.9,18.73Z"/><path class="cls-1" d="M503.92,68.56c-6.16,0-12.32-.06-18.47,0-1.9,0-2.79-.48-2.57-2.49a25.17,25.17,0,0,0,0-3.25c0-.53.1-1.31-.5-1.41-1.92-.35-1.56-1.78-1.49-3,.09-1.57-.45-2.31-2.08-2.08-1.83.25-2.62-.49-2.44-2.38a28.36,28.36,0,0,0,0-3.45c0-.47.05-1.16-.43-1.25-2.13-.41-1.57-2-1.57-3.35,0-10.35,0-20.71-.05-31.06,0-2,.43-2.76,2.58-2.71,4.43.11,3.91.68,3.95-4,0-2.09,0-4.19,0-6.29,0-1.24.37-1.86,1.74-1.86q18.06,0,36.13,0c1.6,0,1.78,1,1.67,2.14-.21,2.06.45,3.1,2.68,2.76,1.34-.2,1.82.57,1.8,1.8,0,1.08,0,2.16,0,3.25s-.14,2,1.27,2.38c1.06.3.79,1.49.73,2.3-.13,1.81.45,2.73,2.39,2.44,1.63-.24,2.12.61,2.12,2.12q0,17.46,0,34.92c0,1.61-.5,2.27-2.22,2.26-4.29,0-4.29.06-4.29,4.33,0,1.76-.09,3.52,0,5.27s-.51,2.63-2.52,2.59C516.23,68.49,510.07,68.56,503.92,68.56Zm-.09-2.72h14.82c3.24,0,3.24,0,3.24-3.34,0-1.49,0-3,0-4.46,0-5.06-.51-4.4,4.27-4.34,1.84,0,2.27-.64,2.26-2.36-.07-9.74,0-19.49,0-29.23,0-.2,0-.41,0-.61-.07-.56.19-1.44-.63-1.48-1,0-.75.92-.82,1.54a13.45,13.45,0,0,0,0,1.42V44.29c0,4.64,0,4.7-4.53,4.75-1.54,0-2,.6-2,2.05.06,2.43,0,4.87,0,7.3,0,2.85,0,2.86-2.8,2.86-9.87,0-19.75,0-29.63,0-1.84,0-2.11.81-2.12,2.34s.3,2.36,2.13,2.33C493.28,65.77,498.56,65.84,503.83,65.84Zm-15.9-41.28v4.67c0,2,0,4.06,0,6.08,0,.54.07,1.2.83,1.12.6-.07.58-.66.6-1.13s0-.95,0-1.42c0-4.87.05-9.74,0-14.61,0-1.7.6-2.26,2.25-2.19,2.36.1,4.73,0,7.1,0,1.84.07,1.65-1.14,1.64-2.3s.23-2.37-1.62-2.32c-3,.08-6,.07-8.93,0-1.43,0-1.91.56-1.89,1.92C488,17.8,487.94,21.18,487.93,24.56Zm13,18.19c0,1.15-.08,2.3,0,3.44.08.84-.51,2.35.75,2.33s.65-1.53.66-2.36c.08-4.57.05-4.63,4.59-4.65,1.53,0,2-.56,2-2-.08-2.56.09-5.13-.05-7.69-.11-1.94.56-2.74,2.52-2.53.74.08,1.64.26,2-.9.68-2.58-.07-3.65-2.67-3.66-.4,0-.81,0-1.21,0-1.48-.16-2.08.46-2,2,.07,2.77,0,5.54,0,8.3,0,1.15-.28,1.9-1.69,1.95s-3.44-.75-4.44.49-.24,3.14-.36,4.74C500.91,42.34,500.93,42.54,500.93,42.75ZM484.26,62.09c0,1.21,0,2.42,0,3.63s.56,1.76,1.84,1.76q17.85,0,35.71,0c1.34,0,1.79-.53,1.75-1.81-.06-2,0-3.92,0-5.88,0-5.26-.46-4.48,4.35-4.48,1.51,0,2.18-.34,2.17-2-.06-11,0-22,0-33.07,0-2.1-.34-2.3-2.66-1.5,2.46-.46,2.37,1.1,2.37,2.61v28.4c0,4.81,0,4.85-4.69,5-1.3.05-1.83.51-1.81,1.8,0,2.64-.08,5.28,0,7.91.08,1.94-.64,2.55-2.59,2.54-10.34-.09-20.69,0-31,0C484.71,66.94,484.71,66.94,484.26,62.09Zm8.15-33.81c0,2.23,0,4.46,0,6.69,0,.58-.13,1.42.71,1.45s.71-.83.72-1.39c0-1.76,0-3.52,0-5.27s-.69-3.67.43-4.9,2.95-.41,4.48-.42c1.88,0,1.53-1.27,1.57-2.38s.11-2.36-1.69-2.25a44.23,44.23,0,0,1-4.46,0c-1.3-.06-1.84.47-1.82,1.77C492.44,23.82,492.41,26.05,492.41,28.28Zm20.94,12.09c0-2.29,0-4.59,0-6.88,0-.52.1-1.25-.62-1.3-.89-.06-.81.75-.82,1.33,0,2.15,0,4.31,0,6.47,0,5,.06,4.12-4.06,4.2a4.14,4.14,0,0,1-.61,0c-1.66-.18-1.88.84-1.83,2.15s-.2,2.55,1.74,2.45c1.48-.07,3-.06,4.45,0,1.29.06,1.83-.43,1.79-1.76C513.31,44.82,513.36,42.59,513.35,40.37Zm-9.47,7.53c.42-1.4-.49-3.3.61-4.36s3-.35,4.5-.42c1.12,0,1.58-.47,1.56-1.58,0-2.57.07-5.14,0-7.71-.06-1.76,0-3.25,2.47-3.11-2.53-.5-2.72-.37-2.74,2q0,3.95,0,7.91c0,1.26-.36,2-1.84,2C503.68,42.76,503.68,42.81,503.88,47.9ZM490.77,35.76l.29,0c0-4.79.08-9.57,0-14.35,0-2,.5-2.84,2.61-2.67s4.12,0,6.18,0l0-.52c-2.49,0-5,0-7.46,0-1.14,0-1.57.53-1.57,1.6Q490.78,27.78,490.77,35.76Z"/><path class="cls-1" d="M227.46,30.56c0-9.33,0-18.67,0-28C227.41.63,228,0,230,0q17.24.12,34.49,0c1.92,0,2.82.54,2.57,2.51s.49,2.68,2.39,2.41c1.66-.24,2.15.66,2.08,2.15,0,1.08,0,2.16,0,3.24,0,.92.07,1.64,1.2,2s.83,1.73.8,2.66c-.05,1.57.52,2.33,2.12,2.09,2-.29,2.44.72,2.4,2.47-.08,3.45-.06,6.9,0,10.35,0,1.54-.55,2.28-2.15,2.1a4.51,4.51,0,0,0-1.42,0c-1,.17-2.52-.63-2.76.84-.22,1.3-1.1,3.1,1.2,3.9.95.34.69,1.56.62,2.39-.13,1.74.5,2.57,2.31,2.32s2.23.64,2.2,2.23c-.06,3.52-.05,7,0,10.56,0,1.53-.52,2.14-2.13,2.14-4.38,0-4.38.08-4.38,4.44,0,1.9,0,3.79,0,5.69,0,1.41-.47,2-2,2q-19-.06-37.94,0c-1.65,0-2.15-.66-2.05-2.18.08-1.21,0-2.43,0-3.65,0-.62,0-1.34-.77-1.45-1.54-.23-1.23-1.39-1.24-2.34Q227.46,44.77,227.46,30.56Zm22.91,35.28c5.41,0,10.83,0,16.24,0,1.4,0,1.94-.47,1.89-1.88-.08-2,0-3.93,0-5.89,0-4.36,0-4.36,4.41-4.43a1.87,1.87,0,0,1,.41,0c1.21.11,1.72-.43,1.69-1.65-.06-2,0-4.06,0-6.09,0-.61.26-1.59-.77-1.53-.79,0-.63.9-.67,1.48-.22,3.19-.22,3.19-3.48,3.2-.41,0-.82,0-1.22,0-1.3-.12-1.84.47-1.82,1.77,0,2.63-.08,5.28,0,7.91.09,2-.63,2.56-2.58,2.54-9.8-.08-19.61,0-29.42-.07-1.68,0-2.63.23-2.61,2.28s.7,2.41,2.52,2.37C240.09,65.77,245.23,65.84,250.37,65.84Zm.84-48.73h0c2.44,0,4.87,0,7.3,0,1.78,0,1.43-1.28,1.42-2.29s.36-2.31-1.41-2.3c-5.34,0-10.68,0-16,0-.76,0-1.41.21-1.42,1.08,0,3.24,0,6.48,0,9.73,0,.49.18,1,.82.91s.57-.52.57-.94a27.78,27.78,0,0,0,0-3.65c-.24-2.11.67-2.73,2.67-2.59S249.18,17.11,251.21,17.11Zm-.65,19.78c-2.57,0-5.14,0-7.71,0-1,0-1.8.1-1.8,1.35q0,4.65,0,9.32c0,.48.08,1.05.69,1.07.78,0,.72-.67.73-1.2,0-1.28.09-2.57,0-3.85-.1-1.57.49-2.15,2.1-2.12,4.26.08,8.52,0,12.78,0,1.78,0,2.66-.24,2.68-2.37,0-2.28-1.13-2.32-2.78-2.26C255,36.94,252.79,36.88,250.56,36.89Zm2.11,11.89c1.9,0,3.79-.06,5.68,0s1.58-1.21,1.6-2.33.15-2.32-1.67-2.29c-3.71.08-7.43.07-11.14,0-1.81,0-1.63,1.18-1.65,2.34s-.06,2.35,1.71,2.28S250.85,48.78,252.67,48.78Zm.12-24.37c1.82,0,3.65-.07,5.47,0S260,23.38,260,22.18s.31-2.39-1.58-2.36c-3.71.05-7.43.06-11.14,0-1.95,0-1.7,1.24-1.75,2.46s.17,2.25,1.84,2.17C249.14,24.34,251,24.41,252.79,24.41ZM267,30.74h.05c0,1.62,0,3.24,0,4.85,0,.42.18.84.68.85s.66-.39.69-.81,0-.81,0-1.21c.08-1.55-.59-3.41.31-4.55,1-1.32,3-.49,4.6-.55,1.29-.05,1.63-.62,1.59-1.76,0-1.55.08-3.11,0-4.65-.07-1,.63-2.74-.62-2.79-1.41-.05-.68,1.7-.79,2.65-.12,1.13-.28,1.91-1.7,2s-3.44-.75-4.45.47-.25,3.13-.37,4.73C267,30.2,267,30.47,267,30.74Zm7,12.2c2.11-.22,2.34,1,2.3,2.57s0,3,0,4.46c0,4.64,0,4.7-4.53,4.75-1.54,0-2,.63-2,2.06.06,2.5-.07,5,0,7.5.09,2-.52,2.72-2.63,2.7-10.48-.1-21,0-31.45,0-4.53,0-4.53,0-4.64-4.44a1.63,1.63,0,0,0-.11-.42,34.57,34.57,0,0,0-.18,3.65c0,1.33.58,1.75,1.85,1.75q17.85,0,35.71,0c1.35,0,1.78-.55,1.74-1.82-.06-1.89,0-3.78,0-5.68,0-4.57,0-4.63,4.57-4.67,1.55,0,2-.59,1.94-2-.07-2.84-.1-5.68,0-8.52C276.74,42.76,275.94,42.21,274,42.94ZM259.4,18.73V18.2c-3.56,0-7.12-.05-10.68,0-5.39.1-4.9-1.17-4.84,5.15,0,.07.11.14.27.33,0-.73,0-1.34,0-1.94,0-3,0-3,3-3ZM244.15,47.92a17.93,17.93,0,0,0,0-2.2c-.24-2,.51-2.76,2.6-2.66,3.36.15,6.73,0,10.1,0h2.6l0-.53H248.71C243.55,42.57,243.55,42.57,244.15,47.92Zm25.86-12c.41-1.54-.55-3.42.55-4.51s3-.38,4.48-.43c1.27,0,1.62-.6,1.6-1.75,0-3,0-5.93,0-8.89,0-2.19-.18-2.29-2.65-1.72,2.4-.25,2.38,1.26,2.36,2.83q0,3.54,0,7.08c0,1.32-.51,1.89-1.92,1.92-4.8.13-4.8.18-4.56,5.05A1.91,1.91,0,0,0,270,35.88Z"/><path class="cls-1" d="M88,68.56c-6.22,0-12.45,0-18.67,0-1.77,0-2.5-.52-2.33-2.32a30.36,30.36,0,0,0,0-3.44c0-.54.08-1.3-.53-1.4-1.8-.31-1.54-1.64-1.47-2.8.1-1.57-.31-2.52-2.11-2.25S60.35,55.8,60.54,54c.09-1,0-2,0-3s0-1.75-1.23-1.94c-.92-.15-.78-1-.78-1.64,0-11.1,0-22.2,0-33.29,0-1.46.66-1.8,2-1.84C65,12.1,65,12.07,65,7.55c0-1.89,0-3.79,0-5.68C65,.6,65.44,0,66.78,0q18,0,35.92,0c1.67,0,2,.9,1.85,2.18-.24,2.11.54,3.05,2.71,2.73,1.2-.18,1.76.44,1.76,1.63s0,2.3,0,3.45S109,12,110.33,12.39c1.11.35.76,1.64.71,2.52-.09,1.66.53,2.43,2.22,2.2,1.85-.27,2.3.69,2.29,2.36q-.06,17.25,0,34.51c0,1.82-.58,2.47-2.47,2.44-4.38-.07-4-.73-4,4.15,0,2-.05,3.92,0,5.88,0,1.54-.53,2.16-2.14,2.14C100.62,68.52,94.32,68.56,88,68.56ZM76.55,34.31c0,4.13,0,8.25,0,12.38,0,1.56.5,2.14,2.11,2.12,5.61-.07,11.23-.06,16.84,0,1.43,0,2.06-.36,2-1.93q-.07-12.58,0-25.16c0-1.58-.64-1.93-2.06-1.91-5.62.05-11.23.07-16.84,0-1.62,0-2.13.58-2.1,2.14C76.59,26.06,76.55,30.19,76.55,34.31ZM88.1,65.84c5.27,0,10.55,0,15.83,0,1.56,0,2.22-.42,2.13-2.06-.11-2,0-4.06,0-6.09,0-4.57-.44-4.14,4-4,2.16.06,2.58-.72,2.56-2.69-.09-9.54,0-19.08,0-28.62,0-.4,0-.81,0-1.22s0-1.23-.74-1.18-.66.74-.69,1.27,0,.94,0,1.42V44.2c0,4.67,0,4.73-4.65,4.84-1.45,0-1.89.62-1.86,2,0,2.5,0,5,0,7.51,0,2.71,0,2.74-2.71,2.74-9.88,0-19.75,0-29.63,0-1.72,0-2.21.61-2.22,2.24s.37,2.46,2.26,2.42C77.54,65.77,82.82,65.84,88.1,65.84Zm-16-35.26V46.2a14.53,14.53,0,0,0,.07,1.62c0,.43.21.83.72.81s.62-.45.65-.87,0-1.09,0-1.63V20.36c0-3.25,0-3.25,3.16-3.25,6.29,0,12.58-.06,18.87,0,1.79,0,2-.83,2-2.24s0-2.45-2-2.42c-7.1.1-14.21.09-21.31,0-1.75,0-2.2.65-2.18,2.26C72.12,20,72.08,25.3,72.08,30.58ZM68.42,61.75c0,1.55,0,2.81,0,4.06s.53,1.66,1.73,1.66q18,0,35.91,0c1.25,0,1.68-.52,1.65-1.71,0-2,0-4,0-6.08,0-5.11-.42-4.39,4.25-4.38,1.6,0,2.28-.37,2.27-2.13-.06-11,0-21.92,0-32.87,0-2.2-.19-2.31-2.66-1.72,2.46-.29,2.36,1.29,2.36,2.84V50c0,4.54,0,4.59-4.6,4.69-1.41,0-1.93.54-1.91,1.92.05,2.56-.09,5.14,0,7.7.11,2.07-.68,2.65-2.71,2.63-10.34-.09-20.69,0-31,0-4.74,0-4.74,0-5-4.72A2.86,2.86,0,0,0,68.42,61.75Zm6.49-13.84.3,0c0-8.91,0-17.82,0-26.73,0-2,.64-2.55,2.57-2.52,5.87.11,11.75,0,17.63,0a2.44,2.44,0,0,0,2-.5h-21c-1.23,0-1.42.76-1.42,1.74Z"/><path class="cls-1" d="M308.93,68.56c-6.23,0-12.46-.06-18.68,0-1.8,0-2.45-.59-2.3-2.34a33.08,33.08,0,0,0,0-3.45c0-.47.06-1.19-.38-1.28-1.93-.37-1.72-1.81-1.62-3.12.13-1.65-.59-2.24-2.13-2-1.93.27-2.53-.64-2.37-2.44.09-1.14,0-2.3,0-3.45,0-.47,0-1.14-.48-1.22-1.91-.33-1.53-1.75-1.53-3,0-10.49,0-21-.05-31.47,0-2,.58-2.69,2.64-2.64,4.33.09,3.87.64,3.9-3.85,0-2.17,0-4.33,0-6.5,0-1.29.49-1.8,1.79-1.8q18,0,35.93,0c1.5,0,2,.75,1.82,2-.23,2.1.39,3.25,2.74,2.9,1.21-.18,1.73.49,1.73,1.65s0,2.17,0,3.25-.2,2.11,1.32,2.56c1,.29.73,1.51.68,2.34-.1,1.66.37,2.63,2.25,2.37,1.67-.23,2.27.52,2.26,2.18q-.06,17.46,0,34.92c0,1.67-.63,2.21-2.28,2.2-4.61,0-4.21-.83-4.23,4.39,0,1.89,0,3.79,0,5.68,0,1.56-.58,2.12-2.17,2.11C321.51,68.52,315.22,68.56,308.93,68.56ZM297.47,34.1c0,4.26,0,8.52,0,12.78,0,1.37.47,1.94,1.89,1.92q8.63-.07,17.25,0c1.45,0,1.85-.56,1.85-1.93q-.06-12.57,0-25.15c0-1.58-.63-1.94-2.06-1.92-5.61.05-11.22.06-16.84,0-1.61,0-2.13.57-2.1,2.13C297.52,26,297.47,30.05,297.47,34.1Zm11.4,31.74c5.34,0,10.69,0,16,0,1.62,0,2.17-.54,2.08-2.12-.1-1.82,0-3.65,0-5.48,0-4.53,0-4.6,4.43-4.58,1.62,0,2.11-.53,2.09-2.11-.07-6.09,0-12.18,0-18.27,0-4,0-8,0-12,0-.52.11-1.25-.59-1.32-.89-.09-.8.73-.84,1.31s0,1.08,0,1.62V44.05c0,4.79,0,4.83-4.7,5-1.31.05-1.83.52-1.81,1.81,0,2.63-.08,5.28,0,7.91.09,2-.65,2.54-2.59,2.53-9.94-.08-19.89,0-29.83-.07-1.8,0-2.18.72-2.16,2.3s.23,2.39,2.1,2.36C298.31,65.77,303.59,65.84,308.87,65.84ZM293,30.64c0,5.48,0,11,0,16.44,0,.61-.18,1.58.83,1.51.81-.06.57-.93.61-1.5s0-1,0-1.42c0-8.73,0-17.45,0-26.18,0-1.87.6-2.44,2.45-2.42,6.49.09,13,0,19.48.07,1.82,0,2.12-.75,2.1-2.3s-.15-2.39-2-2.36q-10.55.15-21.11,0c-1.78,0-2.36.56-2.33,2.33C293.06,20.08,293,25.36,293,30.64ZM289.33,62.1c0,1.21,0,2.42,0,3.63s.57,1.75,1.85,1.75q17.85,0,35.71,0c1.36,0,1.77-.56,1.74-1.82-.06-2,0-3.92,0-5.89,0-5.25-.44-4.46,4.37-4.46,1.53,0,2.16-.39,2.15-2.05-.06-11,0-22,0-33.07,0-2.09-.38-2.31-2.6-1.5,2.1-.32,2.33.89,2.32,2.45q0,14.5,0,29c0,4.46,0,4.52-4.51,4.57-1.53,0-2,.59-2,2,.06,2.43,0,4.87,0,7.31,0,2.84,0,2.86-2.79,2.86H294.68C289.81,66.94,289.81,66.94,289.33,62.1ZM295.84,48l.29-.07c0-8.92,0-17.83,0-26.75,0-1.83.54-2.48,2.42-2.45,5.88.11,11.76,0,17.64,0,.56,0,1.24.28,1.89-.51-7,0-13.84,0-20.66,0-1.15,0-1.56.55-1.56,1.62Q295.84,33.89,295.84,48Z"/><path class="cls-1" d="M175.48,30.59c0-9.34.05-18.68,0-28C175.43.66,176,0,178,0q20.51.12,41,0c1.91,0,2.82.54,2.57,2.51s.49,2.68,2.39,2.41c1.66-.24,2.1.67,2.08,2.15,0,3.52-.06,7,0,10.55,0,1.66-.58,2.24-2.26,2.23-9.27-.06-18.54,0-27.81,0a2.56,2.56,0,0,0-2.27,4c.42.77,1.15.62,1.79.62,3.59,0,7.18.06,10.76,0,1.61,0,2.51.43,2.3,2.15-.25,2.05.43,3.1,2.67,2.77,1.33-.21,1.81.55,1.8,1.79,0,3.72,0,7.44,0,11.16,0,1.51-.65,2-2.1,2-5.07-.06-10.15,0-15.22-.06-1.74,0-2.2.63-2.21,2.25s.38,2.43,2.26,2.41c7.78-.09,15.56,0,23.34-.07,1.87,0,2.68.58,2.45,2.42s.57,2.76,2.52,2.49c1.39-.19,2,.49,2,1.86,0,3.72,0,7.45,0,11.17,0,1.37-.55,1.89-2,1.89q-22.33-.06-44.66,0c-1.42,0-1.95-.55-1.88-1.93.06-1.21,0-2.43,0-3.65,0-.85,0-1.57-1.14-1.82-1.35-.31-.86-1.53-.87-2.38C175.47,49.4,175.48,40,175.48,30.59ZM201.7,65.84c6.42,0,12.84,0,19.26,0,.76,0,1.89.29,1.94-.88.13-2.56.06-5.13,0-7.7a.67.67,0,0,0-.58-.72c-.51-.05-.71.32-.77.75a9.82,9.82,0,0,0-.07,1.21c-.09,2.75-.09,2.76-2.89,2.76-11.83,0-23.65,0-35.48,0-1.76,0-2.71.23-2.72,2.37s1.16,2.28,2.81,2.27C189.4,65.81,195.55,65.84,201.7,65.84Zm3.8-53.32c-4.73,0-9.46.07-14.19,0-1.82,0-2.38.63-2.3,2.36.11,2.36,0,4.73.05,7.09,0,.81-.41,2.23.66,2.23,1.35,0,.74-1.47.75-2.28.08-4.77.05-4.77,4.92-4.77,8.51,0,17,0,25.54,0,1.59,0,2.19-.51,2.09-2.1s0-3.25-.06-4.86c-.05-.82.6-2.29-.76-2.28-1.06,0-.68,1.44-.64,2.23.1,1.84-.61,2.47-2.48,2.43C214.55,12.44,210,12.52,205.5,12.52Zm-5.12,29c2.43,0,4.87-.12,7.29,0,1.94.13,2.5-.64,2.35-2.45-.12-1.54,0-3.11-.05-4.65,0-.78.53-2.16-.7-2.16s-.76,1.41-.7,2.18c.15,2-.72,2.53-2.62,2.49-5-.11-10,0-15,0-.91,0-1.87,0-1.88,1.24,0,3.18,0,6.35,0,9.52,0,.48.13,1,.77,1s.63-.62.64-1.09c0-1.35.08-2.7,0-4.05s.47-2.07,2-2C195.11,41.53,197.74,41.48,200.38,41.47ZM178.87,62.05c0,1.19,0,2.39,0,3.59-.07,1.43.61,1.84,2,1.84q21,0,42,0c1.48,0,1.85-.62,1.82-2-.06-2.9,0-5.81,0-8.72,0-2.14-.27-2.3-2.65-1.61,2.34-.36,2.37,1.09,2.36,2.63,0,2.16-.1,4.33,0,6.49s-.6,2.67-2.67,2.66c-12.59-.09-25.17,0-37.76,0C179.21,66.94,179.21,66.94,178.87,62.05ZM221.94,6.46c2.66-.44,2.39,1.3,2.41,2.8,0,2.1-.09,4.2,0,6.29s-.52,2.73-2.63,2.7c-8.33-.11-16.65-.1-25,0-5.4.05-4.92-1.2-4.86,5.17,0,.08.07.16.26.54V22.34c0-4-.19-3.6,3.64-3.6,8.87,0,17.73-.06,26.6,0,1.82,0,2.36-.58,2.28-2.34-.12-2.76,0-5.54,0-8.32C224.63,5.93,224.45,5.81,221.94,6.46ZM209.07,30.73c2-.15,2.33,1,2.3,2.57-.06,2.43-.05,4.86,0,7.29,0,1.45-.56,2-2.06,2q-6.27-.11-12.55,0c-5.4.1-4.91-1.18-4.85,5.16,0,.07.11.14.26.32a20.11,20.11,0,0,0,0-2.34c-.25-2,.52-2.73,2.6-2.67,4.86.14,9.72,0,14.58.08,1.72,0,2.45-.39,2.36-2.25-.14-2.76-.12-5.54,0-8.3C211.77,30.59,211,30,209.07,30.73Z"/><path class="cls-1" d="M448.71,68.56c-7.3,0-14.61-.06-21.92,0-1.9,0-2.56-.65-2.38-2.46.09-1,0-2,0-3s0-1.75-1.24-1.93c-.81-.11-.77-.85-.77-1.45,0-7.17,0-14.34,0-21.51,0-1.28.65-1.56,1.78-1.61,4.72-.23,4.72-.26,4.72-5.09,0-1.56.09-3.12,0-4.67-.14-1.82.5-2.48,2.4-2.45,7,.09,14.07,0,21.1.06,1.68,0,2.58-.19,2.59-2.26s-.89-2.4-2.68-2.38c-8.45.07-16.91,0-25.37.07-2,0-2.71-.61-2.51-2.55a25.16,25.16,0,0,0,0-3.25c0-.53.08-1.28-.55-1.39-1.81-.3-1.45-1.64-1.46-2.8,0-2.64,0-5.28,0-7.92,0-1.36.45-1.93,1.88-1.92Q442.11.09,460,0c1.77,0,2.1.93,1.94,2.3-.23,2,.54,2.91,2.62,2.62,1.46-.21,1.9.63,1.87,1.93,0,1.15,0,2.3,0,3.45,0,.91.07,1.64,1.2,2s.83,1.73.8,2.66c-.05,1.57.52,2.33,2.12,2.09,2-.29,2.44.72,2.4,2.47-.08,3.45-.06,6.9,0,10.35,0,1.55-.56,2.12-2.15,2.12-4.36,0-4.36.08-4.36,4.47,0,1.83-.06,3.66,0,5.48.07,1.64-.55,2.25-2.24,2.23-7.11-.07-14.21,0-21.31,0a2.55,2.55,0,0,0-2.29,3.95c.46.85,1.28.62,2,.62,7.51,0,15,0,22.53,0,3.15,0,3.2,0,3.33,3.12.05,1.3.55,1.94,1.84,1.74,2.29-.35,2.75.83,2.67,2.82-.1,3,0,6.08,0,9.13s0,3-2.88,3Zm-.13-2.72c6.42,0,12.84,0,19.26,0,.82,0,2,.29,2-1,.08-2.5,0-5,0-7.5a.68.68,0,0,0-.55-.74c-.5-.08-.73.27-.79.71a9.83,9.83,0,0,0-.08,1.21c-.09,2.78-.09,2.79-2.86,2.79-12,0-23.92,0-35.88,0-1.8,0-2.32.6-2.33,2.34s.59,2.34,2.36,2.31C436,65.78,442.3,65.84,448.58,65.84Zm1.78-24.37c3.72,0,7.44,0,11.16,0,1.4,0,2-.45,1.91-1.88-.08-1.82,0-3.65,0-5.47,0-4.72,0-4.72,4.6-4.86h.21c1.2.11,1.73-.4,1.7-1.64-.06-2,0-4.06,0-6.09,0-.6.27-1.58-.76-1.54-.8,0-.68.9-.67,1.47.07,3.9-.56,3.14-3.48,3.21a8.51,8.51,0,0,1-1,0c-1.48-.17-2.09.45-2,2,.07,2.43,0,4.87,0,7.31,0,2.91,0,2.91-2.94,2.91H438.1c-.92,0-2.08-.22-2.1,1.22-.05,3.18,0,6.36,0,9.54,0,.48.13,1,.78,1s.62-.62.63-1.09c0-1.35.08-2.71,0-4.06s.5-2,2-2C443.06,41.52,446.71,41.48,450.36,41.47Zm-9.14-28.95c-3.78,0-7.57.08-11.35,0-1.83-.06-2.51.48-2.5,2.39s.68,2.29,2.4,2.27q11.36-.12,22.72,0c1.84,0,2.47-.48,2.45-2.38s-.61-2.33-2.36-2.28C448.8,12.6,445,12.52,441.22,12.52ZM425.78,62.13c0,1.14.05,2.29,0,3.43-.06,1.37.47,1.93,1.89,1.92q21.09,0,42.17,0c1.35,0,1.77-.54,1.75-1.81-.05-3,0-6,0-8.92,0-2.09-.37-2.3-2.6-1.53,2-.28,2.35.88,2.31,2.45,0,2.23-.11,4.47,0,6.69.12,2.06-.69,2.63-2.71,2.62-12.43-.09-24.87,0-37.3,0C426.32,66.94,426.32,66.94,425.78,62.13Zm43.08-43.58c2.64-.25,2.4,1.47,2.4,3v4.05c0,4.59,0,4.65-4.57,4.71-1.57,0-2,.7-1.94,2.1.06,2.56-.05,5.14,0,7.7.06,1.81-.56,2.49-2.46,2.46-6.22-.11-12.44-.1-18.66,0-5.41.07-4.92-1.2-4.86,5.16,0,.06.11.13.27.3,0-.73,0-1.33,0-1.94,0-3,0-3,3-3,7,0,13.93,0,20.9,0,1.57,0,2.21-.46,2.11-2.08s0-3.52,0-5.27c0-4.72,0-4.77,4.61-4.84,1.39,0,1.94-.45,1.9-1.87-.07-2.91-.1-5.82,0-8.72C471.67,18.33,470.83,17.86,468.86,18.55Zm-43.08-5.13a26.51,26.51,0,0,1,0,2.82c-.21,2,.58,2.55,2.53,2.53,8.17-.09,16.34,0,24.5-.05a2.1,2.1,0,0,0,1.89-.52H431.45C426.35,18.2,426.35,18.2,425.78,13.42Z"/><path class="cls-1" d="M559.18,68.56c-7.31,0-14.62-.06-21.92,0-1.91,0-2.57-.64-2.39-2.46.09-1,0-2,0-3s0-1.75-1.25-1.93c-.81-.11-.77-.85-.77-1.45,0-7.17,0-14.34,0-21.52,0-1.27.66-1.55,1.78-1.6,4.72-.23,4.72-.26,4.72-5.1,0-1.62.08-3.25,0-4.87s.51-2.25,2.2-2.23c7,.07,14.08,0,21.11,0,2.59,0,3.37-1.12,2.67-3.68-.32-1.15-1.21-.9-2-.9-7,0-14.08,0-21.11,0-1.83,0-3.66-.06-5.48,0-1.43.06-1.94-.56-1.88-1.93.07-1.21,0-2.43,0-3.65,0-.85,0-1.64-1.15-1.8-.93-.13-.86-.93-.86-1.59,0-3,0-6.09,0-9.13,0-1.2.47-1.7,1.69-1.69q18.06,0,36.13,0c1.4,0,1.83.74,1.7,1.9-.24,2.19.41,3.38,2.86,3,1.11-.18,1.6.48,1.61,1.55l0,3.65c0,.95,0,1.81,1.23,2.21s.8,1.6.77,2.48c-.06,1.57.36,2.53,2.15,2.27s2.37.62,2.34,2.32c-.08,3.45-.07,6.91,0,10.36,0,1.61-.52,2.26-2.23,2.26-4.6,0-4.23-.87-4.25,4.37,0,1.89,0,3.79,0,5.68,0,1.55-.55,2.14-2.15,2.12-7.1-.06-14.21,0-21.31,0-2.29,0-3.4,1.78-2.42,3.87.46,1,1.38.7,2.14.7,7.58,0,15.16,0,22.73,0,2.92,0,3,0,3,2.83,0,1.63.63,2.25,2.17,2,1.84-.25,2.35.67,2.32,2.35q-.11,5.18,0,10.35c0,1.64-.56,2.26-2.25,2.24C573.79,68.52,566.49,68.56,559.18,68.56ZM559,65.84c6.29,0,12.59,0,18.88,0,.82,0,2,.3,2.1-1,.13-2.49.06-5,.05-7.5,0-.35-.16-.72-.56-.72s-.52.36-.56.72,0,.67-.05,1c-.1,2.87-.1,2.88-3,2.88-11.91,0-23.82,0-35.73,0-1.76,0-2.37.52-2.37,2.31s.53,2.37,2.33,2.34C546.46,65.78,552.75,65.84,559,65.84Zm1.87-24.37c3.65,0,7.31,0,11,0,1.46,0,2.11-.42,2-2s-.07-3.38,0-5.07-.64-3.51.4-4.72,2.81-.35,4.27-.44c1-.07,1.56-.37,1.56-1.42,0-2.23,0-4.46,0-6.69,0-.45,0-1.1-.6-1.09s-.53.66-.59,1.11c-.4,3.46-.4,3.46-4,3.48-.27,0-.55,0-.81,0-1.23-.09-1.71.49-1.7,1.68,0,2.23,0,4.46,0,6.7,0,4.56-.1,3.77-3.87,3.79-6.69,0-13.39,0-20.08,0-1,0-2-.09-2,1.33q0,4.66,0,9.33c0,.47.08,1.05.69,1.07.78,0,.72-.67.73-1.19,0-1.29.09-2.58,0-3.86-.1-1.56.49-2.16,2.1-2.12C553.61,41.54,557.26,41.48,560.91,41.47Zm-9.24-24.36c3.92,0,7.84-.1,11.76,0,2,.07,1.89-1.1,1.93-2.46s-.26-2.21-2-2.2c-7.84.09-15.69.08-23.53,0-1.75,0-2,.83-2,2.25s.14,2.46,2,2.4C543.82,17,547.75,17.11,551.67,17.11Zm27.74,38c2.05-.13,2.11,1.11,2.08,2.53,0,2.23-.13,4.47,0,6.7.14,2-.54,2.67-2.62,2.66-13-.09-26,0-39,0-3.35,0-3.34,0-3.38-3.26,0-.51.21-1.07-.29-1.7,0,1.32,0,2.47,0,3.61-.06,1.39.51,1.9,1.92,1.9q21,0,42,0c1.46,0,1.87-.58,1.84-1.94-.06-2.91-.1-5.82,0-8.72C582.1,54.87,581.24,54.45,579.41,55.09Zm0-36.56c1.94-.08,2.14,1,2.07,2.5-.07,1.69,0,3.38,0,5.07,0,5,.37,4.27-4.16,4.26-1.61,0-2.16.57-2.11,2.13.07,2.63,0,5.27,0,7.9,0,1.67-.63,2.23-2.29,2.21q-9.42-.1-18.85,0c-5.42,0-4.84-1.09-4.85,5a4.38,4.38,0,0,0,.29.81c0-1,0-1.57,0-2.1,0-3.19,0-3.19,3.24-3.19,6.89,0,13.79,0,20.68,0,1.6,0,2.18-.52,2.09-2.1-.1-1.76,0-3.52,0-5.28,0-4.67,0-4.73,4.63-4.81,1.44,0,1.88-.55,1.85-1.92-.07-2.9-.1-5.82,0-8.72C582.1,18.38,581.3,17.88,579.42,18.53Zm-43.18-5.12V16c0,2.69,0,2.7,2.7,2.7q12.06,0,24.1,0a2.94,2.94,0,0,0,2.22-.52H541.92C536.8,18.2,536.8,18.2,536.24,13.41Z"/><path class="cls-1" d="M57.05,24.55c0,5.76,0,11.51,0,17.26,0,1.84-.62,2.46-2.48,2.43-4.29-.07-4-.74-4,4,0,2.1,0,4.19,0,6.29,0,1.36-.54,1.88-1.94,1.91-4.56.11-4.56.16-4.56,4.68,0,1.9,0,3.79,0,5.69,0,1.25-.5,1.81-1.82,1.8q-12.69,0-25.38,0c-1.3,0-1.85-.51-1.78-1.8,0-1,0-2,0-3s.29-2.24-1.39-2.66c-1-.26-.66-1.54-.6-2.34.12-1.7-.36-2.63-2.23-2.35s-2.44-.58-2.29-2.32c.1-1.14,0-2.3,0-3.45,0-.47.06-1.19-.39-1.27-2-.36-1.7-1.83-1.61-3.12.13-1.67-.62-2.23-2.14-2-1.95.28-2.52-.68-2.36-2.45a32,32,0,0,0,0-3.25c0-.53.1-1.31-.49-1.42-1.92-.34-1.52-1.77-1.52-3,0-10.49,0-21,0-31.46C0,.57.62-.1,2.66,0c2.9.16,5.82.1,8.73,0,1.52,0,2.38.43,2.19,2C13.32,4.21,14,5.25,16.35,5c1.76-.23,1.71,1.11,1.71,2.28q0,12.39,0,24.77c0,1,0,1.89,0,2.84,0,.46.07,1.25.28,1.31,2.24.65,1.65,2.48,1.74,4s1.07,1.43,2,1.31c1.9-.22,2.45.63,2.46,2.44,0,4.9.07,4.9,4.94,4.89,3,0,3,0,3-3,0-2.51,0-5,0-7.51,0-1.2.46-1.78,1.68-1.69.2,0,.4,0,.61,0C39,36.53,39,36.53,39,32.41c0-9.95,0-19.89,0-29.84C39,.65,39.52-.08,41.51,0c3,.15,6,.11,8.93,0,1.59,0,2.3.56,2.13,2.11-.21,2,.33,3.16,2.63,2.81,1.67-.25,1.86.87,1.86,2.16C57,12.92,57.05,18.73,57.05,24.55Zm-3,0q0-7.71,0-15.42c0-.52.11-1.26-.59-1.32-.9-.09-.79.73-.84,1.31a13.42,13.42,0,0,0,0,1.42q0,11.06,0,22.11c0,5,.06,4.13-4.08,4.21-.2,0-.4,0-.6,0-1.3-.13-1.86.45-1.83,1.76.05,1.89,0,3.78,0,5.68,0,4.58,0,4.65-4.56,4.71-1.57,0-2,.66-2,2.08.06,2.56-.06,5.14,0,7.7.07,1.8-.52,2.51-2.43,2.47-5.75-.11-11.5,0-17.24-.06-1.64,0-2,.79-1.88,2.14.07,1.19-.25,2.5,1.72,2.49,6.56-.06,13.12,0,19.68,0,1.28,0,1.64-.58,1.61-1.73,0-1.9,0-3.79,0-5.68,0-4.61,0-4.67,4.68-4.75,1.46,0,1.88-.59,1.83-1.95-.07-2,0-3.92,0-5.88,0-5-.51-4.4,4.25-4.34,1.83,0,2.31-.61,2.28-2.35C54,34.3,54.05,29.43,54.05,24.57ZM16.43,62.15c0,1.21,0,2.43,0,3.64s.49,1.69,1.7,1.68c7.65,0,15.3,0,22.94,0,1.24,0,1.69-.51,1.66-1.7,0-1.89,0-3.79,0-5.68,0-4.65,0-4.7,4.66-4.79,1.45,0,1.9-.56,1.85-1.93-.07-2,0-3.92,0-5.89,0-5.11-.41-4.38,4.27-4.36,1.61,0,2.26-.41,2.25-2.15-.06-11,0-21.92,0-32.88,0-2.17-.23-2.3-2.67-1.66,2.56-.36,2.37,1.32,2.37,2.83V37.69c0,4.68,0,4.73-4.64,4.85-1.45,0-1.9.63-1.87,2,.05,1.83,0,3.66,0,5.48,0,4.62,0,4.68-4.55,4.74-1.56,0-2,.66-2,2.08.06,2.64,0,5.28,0,7.91,0,1.62-.53,2.28-2.24,2.26-6.09-.08-12.18,0-18.27,0C17,66.94,17,66.94,16.43,62.15ZM15.07,22.33q0-6.48,0-13c0-.57.2-1.44-.6-1.51-1-.09-.84.88-.84,1.5q0,12.78,0,25.55c0,.62-.18,1.59.83,1.52.81-.06.6-.93.61-1.5Q15.08,28.63,15.07,22.33Zm1.36,13.45.29-.08c0-9.26,0-18.52,0-27.78,0-2.06-1-2.12-2.66-1.55,2.4-.24,2.37,1.31,2.34,2.87,0,.74,0,1.48,0,2.23Q16.43,23.62,16.43,35.78Z"/><path class="cls-1" d="M143.22.05c7.91,0,15.83.05,23.74,0,1.89,0,2.84.5,2.59,2.49-.23,1.81.44,2.71,2.37,2.43,1.64-.24,2.12.62,2.1,2.13,0,3.51-.06,7,0,10.55,0,1.62-.52,2.28-2.23,2.25-4.94-.09-9.88.06-14.81-.07-2-.06-2.51.68-2.5,2.57.06,14.27,0,28.54,0,42.81,0,3.39,0,3.39-3.28,3.39-3.52,0-7-.07-10.55,0-1.71,0-2.32-.61-2.18-2.25.09-1,0-2,0-3.05s.12-1.87-1.24-2.15c-1.1-.22-.76-1.29-.77-2,0-6.36,0-12.71,0-19.07,0-6-.05-12,0-18.06,0-1.72-.59-2.21-2.24-2.17-4.39.09-8.79,0-13.18.05-1.62,0-2.2-.58-2.09-2.13.08-1.15,0-2.3,0-3.45,0-.85,0-1.65-1.14-1.81-.93-.13-.87-.91-.87-1.57,0-3,.06-6,0-8.93-.06-1.78.91-1.93,2.3-1.92C127.26.07,135.24.05,143.22.05Zm6.83,36.79c0,7.31-.05,14.61,0,21.92,0,2-.65,2.7-2.59,2.52-1.41-.13-2.85,0-4.26,0-1.78-.09-1.73,1.08-1.72,2.28s-.14,2.39,1.67,2.33a52.41,52.41,0,0,1,5.88,0c2,.17,2.5-.63,2.49-2.54-.07-14.55,0-29.09-.08-43.64,0-2.07.62-2.68,2.66-2.63,4.93.13,9.87,0,14.81.08,1.62,0,2.19-.53,2.08-2.11s0-3.25,0-4.87c0-.8.47-2.22-.59-2.26-1.36-.05-.85,1.45-.81,2.26.08,1.88-.69,2.43-2.52,2.39-4.87-.1-9.75,0-14.62-.07-1.9-.05-2.45.6-2.43,2.44C150.1,22.22,150.05,29.53,150.05,36.84ZM129.29,12.52c-1.89,0-3.79,0-5.68,0-1.66,0-1.6,1.09-1.57,2.2s-.27,2.42,1.58,2.4c3.78,0,7.56,0,11.34,0,1.73,0,1.56-1.13,1.52-2.21s.39-2.45-1.52-2.4S131.18,12.52,129.29,12.52ZM170,6.38c2.67-.27,2.4,1.47,2.4,3,0,2.23-.05,4.46,0,6.69,0,1.54-.55,2.16-2.16,2.13-4.87-.08-9.74,0-14.61,0-2.72,0-2.73,0-2.73,2.67q0,13.89,0,27.8c0,5.34,0,10.68,0,16,0,1.6-.51,2.33-2.23,2.25-2.43-.11-4.87,0-7.31,0-3.15,0-3.14,0-3.18-3.25,0-.51.23-1.08-.29-1.68,0,1.22.06,2.3,0,3.37-.11,1.57.51,2.17,2.11,2.12,2.84-.1,5.68,0,8.52,0,2.67,0,2.68,0,2.68-2.68,0-14.54,0-29.08,0-43.63,0-1.81.51-2.5,2.42-2.46,5.07.12,10.14,0,15.21.06,1.39,0,1.95-.44,1.91-1.87-.07-2.9-.1-5.81,0-8.72C172.78,6.15,171.93,5.68,170,6.38Zm-34,12.34V18.2c-3.76,0-7.51,0-11.27,0-4.41,0-4,.45-4-4,0-.27-.06-.54-.08-.81a23.55,23.55,0,0,0-.21,3.83c0,1,.36,1.54,1.42,1.53Z"/><path class="cls-1" d="M364.18.05c7.91,0,15.83.05,23.74,0,1.95,0,2.79.59,2.54,2.54s.56,2.64,2.42,2.38c1.49-.21,2.08.5,2.06,2q-.06,5.48,0,11c0,1.47-.57,2-2.06,2-4.94-.06-9.88.07-14.81-.07-2-.05-2.68.55-2.67,2.62.08,14.34,0,28.68,0,43,0,3.14,0,3.14-3.12,3.14-3.65,0-7.3,0-11,0-1.36,0-2-.45-1.92-1.88.06-1.14,0-2.3,0-3.45,0-1,0-1.81-1.28-2.13-1.16-.27-.73-1.46-.73-2.26,0-7.85,0-15.7,0-23.54,0-4.4-.07-8.8,0-13.19,0-1.74-.45-2.39-2.28-2.34-4.32.12-8.65,0-13,.06-1.63,0-2.4-.46-2.25-2.17.09-1.08,0-2.17,0-3.25,0-.89.08-1.78-1.17-2-1-.17-.83-1.1-.84-1.8,0-2.84.05-5.68,0-8.52,0-1.61.57-2.1,2.14-2.09C348.08.08,356.13.05,364.18.05ZM371,36.74v3.45c0,6.22,0,12.45,0,18.67,0,1.84-.61,2.58-2.48,2.42-1.48-.13-3,0-4.46,0-1.66-.06-1.64,1-1.61,2.18s-.3,2.45,1.56,2.42a54.89,54.89,0,0,1,5.88,0c2.13.19,2.6-.64,2.59-2.65-.08-14.55,0-29.09-.08-43.64,0-2,.62-2.57,2.56-2.52,5,.11,10,0,15,0,.76,0,1.84.24,1.88-1,.1-2.5.05-5,0-7.5,0-.43-.16-.84-.68-.84s-.65.42-.7.84a6.67,6.67,0,0,0,0,1.41c.23,2-.69,2.55-2.6,2.51-4.8-.12-9.6,0-14.4-.08-2-.05-2.57.6-2.54,2.54C371,22.26,371,29.5,371,36.74ZM350.35,12.52c-1.89,0-3.78.06-5.67,0s-1.75,1.06-1.73,2.27-.17,2.37,1.65,2.35c3.71-.05,7.43-.07,11.14,0,2,0,1.61-1.31,1.68-2.48s-.1-2.26-1.8-2.15S352.11,12.52,350.35,12.52Zm40.24-6.2c2.6.43,2.66.47,2.69,2.46,0,2.44,0,4.87,0,7.31,0,1.52-.52,2.17-2.14,2.14-4.66-.08-9.33,0-14,0-3.36,0-3.36,0-3.36,3.27V46.63c0,5.95,0,11.9,0,17.86,0,1.77-.48,2.62-2.43,2.48-2.15-.15-4.32,0-6.49,0-4.12,0-3.77.41-3.81-3.85,0-.31.19-.71-.29-1,0,1.17.06,2.25,0,3.32-.11,1.55.47,2.2,2.1,2.14,2.83-.1,5.68,0,8.52,0,2.68,0,2.69,0,2.69-2.66,0-14.48,0-28.95,0-43.43,0-2,.5-2.74,2.61-2.68,4.94.14,9.88,0,14.81.07,1.56,0,2.2-.42,2.14-2.06-.1-2.84-.11-5.69,0-8.52C393.7,6.17,392.87,5.67,390.59,6.32Zm-49.28,7.09c0,1.07.06,2.15,0,3.22-.11,1.55.48,2.16,2.09,2.13,4.11-.09,8.22,0,12.34,0,.39,0,.9.2,1.28-.52H347C341.87,18.2,341.87,18.2,341.31,13.41Z"/></g></g></svg>